<svg width="36" height="36" viewBox="0 0 36 36" fill="none" xmlns="http://www.w3.org/2000/svg">
<path d="M18 31.875C25.663 31.875 31.875 25.663 31.875 18C31.875 10.337 25.663 4.125 18 4.125C10.337 4.125 4.125 10.337 4.125 18C4.125 25.663 10.337 31.875 18 31.875Z" stroke="#333439" stroke-width="2" stroke-linecap="round" stroke-linejoin="round"/>
<path d="M12.7949 5.14502C14.9999 8.11502 17.5949 12.18 19.7849 17.355C21.9449 22.44 23.0699 27.06 23.6699 30.675" stroke="#333439" stroke-width="2" stroke-linecap="round" stroke-linejoin="round"/>
<path d="M4.24512 16.2148C6.61512 16.5148 10.9952 16.7248 16.0502 15.0298C21.9302 13.0498 25.6201 9.50982 27.2701 7.69482" stroke="#333439" stroke-width="2" stroke-linecap="round" stroke-linejoin="round"/>
<path d="M31.275 19.155C29.805 18.795 25.53 17.91 20.49 19.08C18.84 19.47 17.145 20.055 15.405 20.955C11.61 22.95 9.195 25.65 7.875 27.465" stroke="#333439" stroke-width="2" stroke-linecap="round" stroke-linejoin="round"/>
</svg>
