<svg width="36" height="36" viewBox="0 0 36 36" fill="none" xmlns="http://www.w3.org/2000/svg">
<path d="M22.6503 23.7749C22.6503 22.6049 22.6503 21.4349 22.6503 20.2499C22.6503 19.0799 22.3803 18.5699 21.9453 18.1799C21.4203 17.7149 20.7303 17.6249 20.3403 17.6099C19.9503 17.6249 19.2603 17.7149 18.7353 18.1799C18.3003 18.5699 18.0303 19.0949 18.0303 20.2499C18.0303 21.4199 18.0303 22.5899 18.0303 23.7749" stroke="#333439" stroke-width="2" stroke-linecap="round" stroke-linejoin="round"/>
<path d="M13.3501 23.7751V16.0801" stroke="#333439" stroke-width="2" stroke-linecap="round" stroke-linejoin="round"/>
<path d="M25.71 31.875H10.29C6.88498 31.875 4.125 29.115 4.125 25.71V10.29C4.125 6.885 6.88498 4.125 10.29 4.125H25.71C29.115 4.125 31.875 6.885 31.875 10.29V25.71C31.875 29.115 29.115 31.875 25.71 31.875Z" stroke="#333439" stroke-width="2" stroke-linecap="round" stroke-linejoin="round"/>
</svg>
