<svg width="47" height="59" viewBox="0 0 47 59" fill="none" xmlns="http://www.w3.org/2000/svg">
<path d="M22.656 28.44C22.672 28.456 22.68 28.48 22.68 28.512C22.68 28.608 22.584 28.68 22.392 28.728C22.232 28.76 21.944 28.776 21.528 28.776C21.224 28.776 20.984 28.728 20.808 28.632C20.776 28.584 20.712 28.528 20.616 28.464C20.536 28.4 20.48 28.36 20.448 28.344C20.4 28.392 20.336 28.416 20.256 28.416C20.144 28.416 20.008 28.376 19.848 28.296C19.704 28.216 19.608 28.168 19.56 28.152C19.288 28.072 18.96 27.912 18.576 27.672C18.24 27.448 17.968 27.304 17.76 27.24C17.616 27.192 17.48 27.104 17.352 26.976C17.24 26.848 17.144 26.76 17.064 26.712C17.032 26.728 16.992 26.736 16.944 26.736C16.848 26.736 16.776 26.68 16.728 26.568C16.68 26.504 16.592 26.424 16.464 26.328C16.368 26.216 16.256 26.128 16.128 26.064C16.08 26.048 16.008 26.04 15.912 26.04L15.744 25.776C15.696 25.744 15.632 25.72 15.552 25.704C15.488 25.688 15.432 25.672 15.384 25.656C15.112 25.512 14.84 25.32 14.568 25.08C14.296 24.856 14.128 24.72 14.064 24.672L13.392 24.192C12.96 23.888 12.664 23.672 12.504 23.544C12.008 23.144 11.776 22.96 11.808 22.992C11.696 22.912 11.568 22.816 11.424 22.704C11.28 22.592 11.112 22.464 10.92 22.32C10.376 21.872 10.12 21.664 10.152 21.696L9.408 21.096C9.328 21.016 9.152 20.896 8.88 20.736C8.832 20.704 8.712 20.624 8.52 20.496C8.328 20.352 8.168 20.2 8.04 20.04C8.024 20.072 8.008 20.112 7.992 20.16C7.976 20.208 7.952 20.232 7.92 20.232C7.904 20.232 7.864 20.216 7.8 20.184C7.8 20.328 7.768 20.496 7.704 20.688C7.656 20.864 7.624 21 7.608 21.096C7.592 21.144 7.56 21.216 7.512 21.312C7.48 21.408 7.48 21.504 7.512 21.6C7.528 21.632 7.56 21.672 7.608 21.72C7.672 21.752 7.704 21.816 7.704 21.912C7.576 21.928 7.544 22.016 7.608 22.176V22.248C7.608 22.328 7.576 22.392 7.512 22.44C7.608 22.488 7.608 22.552 7.512 22.632L7.32 22.728C7.064 23.016 6.936 23.32 6.936 23.64C6.904 23.624 6.84 23.632 6.744 23.664C6.792 23.744 6.792 23.824 6.744 23.904C6.712 23.968 6.656 24.064 6.576 24.192C6.384 24.4 6.336 24.552 6.432 24.648C6.4 24.744 6.216 24.792 5.88 24.792C5.688 24.792 5.568 24.784 5.52 24.768C5.376 24.736 5.216 24.672 5.04 24.576C4.864 24.48 4.736 24.376 4.656 24.264C4.56 24.136 4.504 24.016 4.488 23.904C4.472 23.792 4.464 23.656 4.464 23.496C4.464 23.336 4.456 23.192 4.44 23.064C4.408 22.744 4.392 22.536 4.392 22.44C4.392 22.328 4.408 22.112 4.44 21.792C4.488 21.392 4.584 21 4.728 20.616C4.792 20.44 4.832 20.232 4.848 19.992C4.864 19.752 4.88 19.576 4.896 19.464C4.912 19.416 4.944 19.336 4.992 19.224C5.056 19.112 5.088 19.032 5.088 18.984L5.112 18.864C5.112 18.784 5.088 18.712 5.04 18.648C4.992 18.6 4.928 18.576 4.848 18.576C4.736 18.576 4.664 18.536 4.632 18.456C4.6 18.392 4.608 18.352 4.656 18.336C4.704 18.32 4.712 18.296 4.68 18.264C4.632 18.408 4.536 18.44 4.392 18.36C4.312 18.488 4.248 18.488 4.2 18.36C4.12 18.248 4.024 18.216 3.912 18.264C3.8 18.312 3.72 18.296 3.672 18.216C3.64 18.216 3.568 18.2 3.456 18.168C3.36 18.12 3.288 18.088 3.24 18.072C3.176 18.072 3.112 18.088 3.048 18.12C3 18.152 2.96 18.168 2.928 18.168C2.88 18.168 2.824 18.104 2.76 17.976C2.712 18.024 2.672 18.048 2.64 18.048C2.576 18.048 2.52 18 2.472 17.904L2.424 17.808C2.424 17.776 2.44 17.744 2.472 17.712C2.504 17.68 2.528 17.64 2.544 17.592C2.624 17.64 2.704 17.664 2.784 17.664C2.928 17.664 3.032 17.64 3.096 17.592L3.432 17.424C3.496 17.52 3.568 17.528 3.648 17.448C3.696 17.448 3.768 17.408 3.864 17.328C3.976 17.248 4.056 17.208 4.104 17.208L4.272 17.4C4.336 17.304 4.432 17.272 4.56 17.304C4.592 17.272 4.608 17.232 4.608 17.184C4.608 17.152 4.568 17.136 4.488 17.136C4.392 17.136 4.328 17.128 4.296 17.112C4.232 17.08 4.152 17.008 4.056 16.896C3.96 16.768 3.888 16.688 3.84 16.656C3.808 16.64 3.752 16.616 3.672 16.584C3.592 16.536 3.528 16.488 3.48 16.44C3.448 16.392 3.456 16.336 3.504 16.272C3.536 16.224 3.616 16.184 3.744 16.152C3.888 16.12 3.968 16.104 3.984 16.104C4.288 15.976 4.632 15.864 5.016 15.768C5.224 15.72 5.408 15.656 5.568 15.576C5.616 15.56 5.68 15.544 5.76 15.528C5.856 15.496 5.928 15.44 5.976 15.36C5.992 15.312 6.008 15.24 6.024 15.144C6.056 15.032 6.08 14.96 6.096 14.928C6.128 14.864 6.168 14.8 6.216 14.736C6.28 14.656 6.32 14.592 6.336 14.544C6.24 14.496 6.248 14.424 6.36 14.328C6.44 14.248 6.464 14.16 6.432 14.064C6.448 14 6.456 13.944 6.456 13.896C6.456 13.848 6.472 13.808 6.504 13.776C6.536 13.744 6.584 13.704 6.648 13.656C6.6 13.576 6.576 13.52 6.576 13.488C6.576 13.472 6.592 13.448 6.624 13.416C6.656 13.384 6.688 13.336 6.72 13.272C6.752 13.224 6.784 13.192 6.816 13.176C6.848 13.16 6.864 13.144 6.864 13.128C6.864 13.096 6.824 13.032 6.744 12.936C6.808 12.904 6.848 12.864 6.864 12.816C6.896 12.768 6.912 12.72 6.912 12.672C6.912 12.608 6.92 12.544 6.936 12.48C6.952 12.336 6.992 12.2 7.056 12.072C7.136 11.928 7.192 11.824 7.224 11.76C7.24 11.696 7.248 11.616 7.248 11.52C7.264 11.408 7.288 11.328 7.32 11.28C7.432 10.96 7.496 10.784 7.512 10.752L7.68 10.32C7.728 10.24 7.728 10.16 7.68 10.08C7.76 10.032 7.824 9.96 7.872 9.864C7.92 9.784 7.944 9.712 7.944 9.648C7.944 9.44 7.712 9.336 7.248 9.336L7.152 9.432C7.12 9.368 7.144 9.336 7.224 9.336V9.312C7.224 9.2 7.288 9.144 7.416 9.144C7.576 9.144 7.688 9.176 7.752 9.24C7.784 9.144 7.8 9.072 7.8 9.024C7.8 8.944 7.776 8.872 7.728 8.808C7.696 8.744 7.648 8.712 7.584 8.712C7.472 8.712 7.408 8.824 7.392 9.048C7.264 8.984 7.208 8.936 7.224 8.904C7.256 8.872 7.248 8.832 7.2 8.784C7.104 8.832 7.032 8.896 6.984 8.976C6.936 9.056 6.904 9.112 6.888 9.144C6.84 9.096 6.784 9.072 6.72 9.072C6.64 9.072 6.536 9.12 6.408 9.216C6.392 9.248 6.376 9.288 6.36 9.336C6.344 9.368 6.328 9.392 6.312 9.408C6.28 9.44 6.232 9.472 6.168 9.504C6.104 9.536 6.048 9.576 6 9.624C5.904 9.704 5.856 9.768 5.856 9.816L5.88 10.032C5.88 10.08 5.864 10.136 5.832 10.2C5.8 10.248 5.792 10.28 5.808 10.296C5.84 10.216 5.912 10.152 6.024 10.104C6.072 10.232 6 10.376 5.808 10.536C5.632 10.696 5.528 10.792 5.496 10.824C5.464 10.84 5.416 10.872 5.352 10.92C5.304 10.968 5.256 11.056 5.208 11.184C5.16 11.296 5.112 11.424 5.064 11.568C5.048 11.568 5 11.552 4.92 11.52C4.84 11.488 4.8 11.432 4.8 11.352C4.8 11.352 4.824 11.352 4.872 11.352C4.92 11.352 4.92 11.32 4.872 11.256C4.856 11.288 4.832 11.32 4.8 11.352C4.784 11.368 4.768 11.376 4.752 11.376C4.752 11.392 4.768 11.416 4.8 11.448C4.832 11.464 4.832 11.48 4.8 11.496C4.752 11.512 4.704 11.512 4.656 11.496C4.624 11.48 4.6 11.472 4.584 11.472C4.536 11.504 4.488 11.592 4.44 11.736C4.392 11.864 4.36 11.952 4.344 12L4.056 12.552C4.04 12.584 4.008 12.648 3.96 12.744C3.928 12.824 3.888 12.88 3.84 12.912C3.792 12.944 3.744 12.936 3.696 12.888C3.664 12.984 3.648 13.064 3.648 13.128C3.648 13.256 3.68 13.352 3.744 13.416C3.696 13.464 3.64 13.504 3.576 13.536C3.528 13.568 3.488 13.616 3.456 13.68C3.424 13.728 3.408 13.784 3.408 13.848C3.408 13.912 3.4 13.968 3.384 14.016C3.368 14.048 3.352 14.096 3.336 14.16C3.32 14.208 3.272 14.24 3.192 14.256C3.176 14.256 3.168 14.24 3.168 14.208C3.168 14.16 3.144 14.152 3.096 14.184C3.128 14.2 3.152 14.224 3.168 14.256C3.2 14.272 3.216 14.288 3.216 14.304H3.24L3.408 14.28C3.488 14.28 3.536 14.352 3.552 14.496V14.544C3.552 14.64 3.528 14.752 3.48 14.88C3.448 15.008 3.408 15.08 3.36 15.096H3.336C3.304 15.096 3.264 15.08 3.216 15.048C3.168 15.016 3.136 15 3.12 15C3.072 14.984 3.032 14.952 3 14.904C2.984 14.84 2.96 14.8 2.928 14.784C2.896 14.768 2.768 14.76 2.544 14.76C2.304 14.76 2.176 14.768 2.16 14.784C2.128 14.688 2.12 14.616 2.136 14.568L1.992 14.424C1.896 14.264 1.84 14.152 1.824 14.088C1.776 13.944 1.744 13.776 1.728 13.584C1.696 13.392 1.672 13.256 1.656 13.176C1.608 12.952 1.584 12.776 1.584 12.648C1.584 12.52 1.608 12.376 1.656 12.216C1.672 12.152 1.688 12.088 1.704 12.024C1.704 11.944 1.712 11.872 1.728 11.808C1.76 11.744 1.784 11.688 1.8 11.64C1.8 11.592 1.816 11.568 1.848 11.568C1.88 11.552 1.936 11.536 2.016 11.52L1.848 11.4C1.976 11.336 2.04 11.296 2.04 11.28C2.024 11.28 1.992 11.28 1.944 11.28C1.88 11.28 1.848 11.256 1.848 11.208C1.848 11.176 1.888 11.128 1.968 11.064C2.032 10.984 2.072 10.928 2.088 10.896C2.104 10.88 2.128 10.872 2.16 10.872C2.176 10.872 2.192 10.864 2.208 10.848C2.224 10.768 2.216 10.712 2.184 10.68L2.208 10.512C2.24 10.432 2.28 10.376 2.328 10.344C2.376 10.312 2.424 10.264 2.472 10.2C2.504 10.168 2.52 10.128 2.52 10.08C2.52 10.016 2.528 9.968 2.544 9.936C2.576 9.888 2.616 9.848 2.664 9.816C2.712 9.768 2.744 9.736 2.76 9.72C2.824 9.64 2.92 9.504 3.048 9.312C3.176 9.104 3.312 8.944 3.456 8.832C3.488 8.8 3.624 8.728 3.864 8.616C4.12 8.504 4.232 8.424 4.2 8.376L4.128 8.472C4.032 8.36 4.032 8.264 4.128 8.184C4.224 8.088 4.336 8.008 4.464 7.944C4.608 7.88 4.704 7.832 4.752 7.8C5.136 7.576 5.48 7.352 5.784 7.128C5.864 7.08 5.944 7.024 6.024 6.96C6.12 6.896 6.208 6.84 6.288 6.792C6.368 6.744 6.464 6.712 6.576 6.696C6.688 6.664 6.776 6.632 6.84 6.6C7.432 6.36 7.784 6.144 7.896 5.952C7.944 6 7.992 6.024 8.04 6.024C8.104 6.024 8.176 6 8.256 5.952C8.352 5.888 8.424 5.84 8.472 5.808C8.536 5.776 8.632 5.736 8.76 5.688C8.888 5.64 8.992 5.584 9.072 5.52C9.152 5.456 9.216 5.376 9.264 5.28C9.28 5.216 9.304 5.104 9.336 4.944C9.384 4.784 9.44 4.656 9.504 4.56C9.568 4.464 9.664 4.416 9.792 4.416C9.888 4.416 9.992 4.472 10.104 4.584C10.232 4.68 10.336 4.752 10.416 4.8C10.592 4.896 10.744 4.944 10.872 4.944L11.208 4.92C11.272 5.032 11.336 5.032 11.4 4.92H11.544C11.768 4.888 11.936 4.856 12.048 4.824L12.552 4.728C12.632 4.696 12.696 4.728 12.744 4.824C12.792 4.76 12.848 4.736 12.912 4.752C13.008 4.768 13.128 4.776 13.272 4.776C13.416 4.776 13.592 4.792 13.8 4.824C13.832 4.92 13.888 4.952 13.968 4.92H14.256C14.304 4.936 14.368 4.976 14.448 5.04C14.544 5.088 14.608 5.12 14.64 5.136C14.72 5.168 14.84 5.224 15 5.304C15.176 5.384 15.328 5.488 15.456 5.616L15.888 6.024C16.32 6.44 16.576 6.704 16.656 6.816L17.016 7.248C17.352 7.584 17.6 7.912 17.76 8.232C17.776 8.264 17.824 8.36 17.904 8.52C17.984 8.68 18.032 8.848 18.048 9.024L18.072 9.24C18.072 9.352 18.024 9.416 17.928 9.432C17.896 9.432 17.872 9.416 17.856 9.384C17.856 9.352 17.832 9.352 17.784 9.384C17.896 9.496 17.952 9.664 17.952 9.888C17.952 10.048 17.92 10.224 17.856 10.416C17.776 10.336 17.712 10.32 17.664 10.368C17.616 10.4 17.624 10.456 17.688 10.536C17.608 10.552 17.512 10.616 17.4 10.728C17.288 10.824 17.192 10.88 17.112 10.896C17.112 10.912 17.152 10.944 17.232 10.992C17.312 11.04 17.368 11.08 17.4 11.112C17.368 11.144 17.28 11.192 17.136 11.256C17.008 11.32 16.936 11.368 16.92 11.4L17.136 11.52C17.12 11.568 17.088 11.64 17.04 11.736C16.992 11.832 16.944 11.904 16.896 11.952C16.864 11.984 16.816 11.976 16.752 11.928C16.704 12.04 16.696 12.16 16.728 12.288L16.56 12.432L16.44 12.72C16.424 12.784 16.376 12.84 16.296 12.888C16.152 12.968 16.104 13.08 16.152 13.224C16.056 13.32 15.96 13.368 15.864 13.368C15.784 13.368 15.712 13.336 15.648 13.272C15.632 13.304 15.624 13.352 15.624 13.416L15.648 13.656C15.648 13.752 15.608 13.84 15.528 13.92C15.48 13.984 15.384 14.064 15.24 14.16C15.112 14.256 14.992 14.36 14.88 14.472C14.768 14.584 14.704 14.696 14.688 14.808C14.624 14.792 14.584 14.752 14.568 14.688C14.568 14.608 14.552 14.552 14.52 14.52C14.488 14.472 14.424 14.456 14.328 14.472C14.2 14.504 14.104 14.616 14.04 14.808V15.144L13.848 15.312C13.752 15.472 13.632 15.608 13.488 15.72C13.36 15.816 13.256 15.896 13.176 15.96C13.128 16.024 13.04 16.16 12.912 16.368C12.8 16.56 12.728 16.648 12.696 16.632C12.696 16.616 12.68 16.592 12.648 16.56C12.616 16.576 12.584 16.608 12.552 16.656C12.52 16.688 12.512 16.712 12.528 16.728C12.576 16.664 12.616 16.632 12.648 16.632C12.664 16.632 12.672 16.64 12.672 16.656C12.672 16.72 12.64 16.784 12.576 16.848C12.4 17.024 12.248 17.072 12.12 16.992C12.12 16.976 12.16 16.944 12.24 16.896C12.32 16.832 12.368 16.792 12.384 16.776C12.368 16.744 12.336 16.728 12.288 16.728C12.24 16.728 12.2 16.728 12.168 16.728C12.12 16.76 12.08 16.8 12.048 16.848C12 16.832 11.96 16.816 11.928 16.8C11.912 16.784 11.896 16.768 11.88 16.752C11.784 16.784 11.712 16.824 11.664 16.872C11.632 16.904 11.6 16.952 11.568 17.016C11.552 17.08 11.528 17.144 11.496 17.208C11.432 17.272 11.344 17.328 11.232 17.376C11.12 17.424 11.032 17.464 10.968 17.496C10.792 17.592 10.632 17.696 10.488 17.808C10.488 17.792 10.48 17.768 10.464 17.736C10.448 17.704 10.424 17.704 10.392 17.736C10.824 18.088 11.048 18.352 11.064 18.528L11.232 18.456C11.264 18.472 11.288 18.504 11.304 18.552C11.32 18.584 11.336 18.608 11.352 18.624C11.512 18.72 11.664 18.824 11.808 18.936C11.888 19 12.208 19.264 12.768 19.728C12.912 19.856 13.056 19.952 13.2 20.016C13.456 20.16 13.648 20.312 13.776 20.472L13.92 20.496C13.936 20.544 13.944 20.608 13.944 20.688C14.056 20.8 14.112 20.856 14.112 20.856C14.16 20.888 14.232 20.928 14.328 20.976C14.44 21.008 14.504 21.064 14.52 21.144C14.44 21.144 14.416 21.176 14.448 21.24L14.52 21.144C14.632 21.256 14.688 21.376 14.688 21.504C14.608 21.52 14.528 21.472 14.448 21.36C14.368 21.248 14.328 21.192 14.328 21.192C14.248 21.144 14.16 21.096 14.064 21.048C13.984 21 13.904 20.952 13.824 20.904C13.792 20.872 13.72 20.8 13.608 20.688C13.496 20.576 13.384 20.488 13.272 20.424C13.16 20.36 13.064 20.352 12.984 20.4C13.032 20.496 13.104 20.584 13.2 20.664C13.312 20.744 13.4 20.816 13.464 20.88C13.528 20.944 13.56 21.04 13.56 21.168L13.704 21.096C13.768 21.096 13.8 21.128 13.8 21.192C13.816 21.256 13.8 21.32 13.752 21.384C13.816 21.416 13.88 21.472 13.944 21.552C14.024 21.616 14.104 21.672 14.184 21.72L14.208 21.624C14.208 21.56 14.152 21.528 14.04 21.528C14.04 21.416 14.104 21.384 14.232 21.432L14.304 21.408C14.416 21.408 14.456 21.472 14.424 21.6C14.376 21.728 14.392 21.792 14.472 21.792C14.488 21.792 14.512 21.776 14.544 21.744C14.56 21.728 14.6 21.72 14.664 21.72H14.712C14.792 21.72 14.832 21.776 14.832 21.888C14.944 21.888 15 21.952 15 22.08L15.192 22.248L14.976 22.344C15.008 22.36 15.04 22.376 15.072 22.392C15.12 22.408 15.152 22.432 15.168 22.464C15.184 22.496 15.192 22.536 15.192 22.584C15.144 22.568 15.056 22.536 14.928 22.488C14.816 22.44 14.744 22.424 14.712 22.44C14.744 22.44 14.768 22.448 14.784 22.464C14.816 22.496 14.848 22.536 14.88 22.584C14.928 22.616 14.968 22.648 15 22.68H15.12H15.192V22.584C15.256 22.584 15.312 22.6 15.36 22.632C15.408 22.664 15.4 22.712 15.336 22.776C15.288 22.776 15.248 22.76 15.216 22.728L15.192 22.824C15.24 22.872 15.296 22.912 15.36 22.944C15.424 22.976 15.488 23.016 15.552 23.064L15.768 23.256C15.816 23.272 15.88 23.296 15.96 23.328C16.056 23.344 16.12 23.368 16.152 23.4C16.136 23.416 16.12 23.432 16.104 23.448C16.104 23.464 16.104 23.472 16.104 23.472C16.104 23.488 16.128 23.496 16.176 23.496H16.368C16.496 23.496 16.576 23.52 16.608 23.568C16.656 23.632 16.688 23.72 16.704 23.832C16.736 23.928 16.776 23.976 16.824 23.976C16.872 23.976 16.952 23.952 17.064 23.904L17.136 24.048C17.136 24.048 17.144 24.04 17.16 24.024C17.192 24.024 17.256 24.056 17.352 24.12C17.384 24.152 17.408 24.192 17.424 24.24C17.456 24.304 17.488 24.352 17.52 24.384C17.536 24.416 17.608 24.496 17.736 24.624C17.864 24.752 17.904 24.864 17.856 24.96L17.664 24.888C17.6 24.888 17.568 24.832 17.568 24.72C17.504 24.688 17.44 24.656 17.376 24.624C17.312 24.608 17.248 24.584 17.184 24.552C17.088 24.488 16.992 24.416 16.896 24.336C16.8 24.272 16.704 24.216 16.608 24.168C16.448 24.088 16.328 24.008 16.248 23.928L16.032 23.76C15.984 23.728 15.96 23.696 15.96 23.664C15.96 23.616 15.952 23.592 15.936 23.592C15.92 23.576 15.864 23.568 15.768 23.568C15.816 23.664 15.896 23.752 16.008 23.832C16.12 23.896 16.208 23.952 16.272 24C16.288 24.032 16.304 24.072 16.32 24.12C16.336 24.168 16.36 24.2 16.392 24.216C16.424 24.248 16.48 24.272 16.56 24.288C16.64 24.304 16.696 24.32 16.728 24.336C16.792 24.384 16.872 24.488 16.968 24.648C17.08 24.808 17.16 24.912 17.208 24.96C17.272 24.992 17.336 25.008 17.4 25.008C17.464 25.024 17.528 25.048 17.592 25.08C17.688 25.128 17.76 25.176 17.808 25.224C17.872 25.288 17.936 25.368 18 25.464C18.048 25.416 18.128 25.392 18.24 25.392C18.336 25.392 18.408 25.424 18.456 25.488C18.472 25.504 18.48 25.528 18.48 25.56C18.48 25.608 18.464 25.664 18.432 25.728C18.4 25.808 18.384 25.856 18.384 25.872C18.4 25.952 18.472 26.056 18.6 26.184C18.728 26.312 18.848 26.368 18.96 26.352C18.928 26.384 18.912 26.424 18.912 26.472C18.912 26.536 18.936 26.592 18.984 26.64C19.032 26.688 19.072 26.696 19.104 26.664C19.056 26.632 19.032 26.608 19.032 26.592C19.032 26.576 19.04 26.56 19.056 26.544C19.088 26.544 19.12 26.536 19.152 26.52C19.248 26.488 19.32 26.52 19.368 26.616C19.368 26.616 19.432 26.552 19.56 26.424C19.624 26.488 19.656 26.552 19.656 26.616L19.632 26.712C19.632 26.744 19.712 26.752 19.872 26.736L19.92 27.048C19.936 27.016 19.952 26.976 19.968 26.928C19.984 26.896 20 26.856 20.016 26.808C20.08 26.84 20.12 26.88 20.136 26.928C20.168 26.992 20.192 27.032 20.208 27.048C20.224 27.08 20.264 27.064 20.328 27C20.36 27.064 20.416 27.12 20.496 27.168C20.592 27.232 20.672 27.288 20.736 27.336C20.816 27.384 20.896 27.416 20.976 27.432C21.056 27.464 21.136 27.504 21.216 27.552C21.264 27.584 21.296 27.632 21.312 27.696C21.344 27.776 21.376 27.832 21.408 27.864C21.504 27.96 21.632 28.056 21.792 28.152C21.84 28.168 21.888 28.184 21.936 28.2C21.984 28.216 22.032 28.232 22.08 28.248L22.344 28.44C22.376 28.44 22.432 28.432 22.512 28.416C22.592 28.416 22.64 28.424 22.656 28.44ZM8.424 6.336C8.456 6.336 8.464 6.328 8.448 6.312C8.448 6.296 8.432 6.288 8.4 6.288C8.336 6.32 8.344 6.336 8.424 6.336ZM11.52 7.008C11.504 6.928 11.448 6.912 11.352 6.96C11.368 7.008 11.392 7.032 11.424 7.032C11.472 7.032 11.504 7.024 11.52 7.008ZM14.712 6.984C14.632 6.904 14.568 6.904 14.52 6.984C14.568 7.064 14.632 7.064 14.712 6.984ZM6.696 7.176C6.776 7.144 6.816 7.12 6.816 7.104C6.832 7.088 6.832 7.048 6.816 6.984C6.736 7.032 6.68 7.064 6.648 7.08C6.632 7.08 6.64 7.112 6.672 7.176H6.696ZM13.032 7.032C12.984 7.048 12.984 7.08 13.032 7.128C13.048 7.112 13.048 7.08 13.032 7.032ZM6.264 7.2C6.312 7.248 6.336 7.232 6.336 7.152C6.32 7.104 6.296 7.12 6.264 7.2ZM6.504 7.152C6.424 7.152 6.416 7.168 6.48 7.2C6.512 7.2 6.528 7.192 6.528 7.176C6.544 7.16 6.536 7.152 6.504 7.152ZM12.72 7.248C12.656 7.28 12.664 7.296 12.744 7.296C12.776 7.296 12.784 7.288 12.768 7.272C12.768 7.256 12.752 7.248 12.72 7.248ZM10.2 14.712C10.248 14.68 10.304 14.616 10.368 14.52C10.432 14.424 10.496 14.352 10.56 14.304C10.608 14.272 10.664 14.248 10.728 14.232C10.808 14.2 10.864 14.168 10.896 14.136C10.928 14.104 10.92 14.056 10.872 13.992C11.032 13.912 11.192 13.8 11.352 13.656C11.512 13.496 11.64 13.376 11.736 13.296C12.024 13.088 12.184 12.968 12.216 12.936C12.232 12.904 12.256 12.856 12.288 12.792C12.32 12.728 12.368 12.664 12.432 12.6C12.528 12.52 12.664 12.424 12.84 12.312C13.032 12.184 13.176 12.08 13.272 12C13.336 11.936 13.424 11.808 13.536 11.616C13.664 11.424 13.768 11.288 13.848 11.208C13.96 11.096 14.064 10.952 14.16 10.776C14.272 10.6 14.368 10.448 14.448 10.32C14.704 9.968 14.872 9.704 14.952 9.528C14.984 9.448 15.104 9.208 15.312 8.808C15.536 8.392 15.648 8.024 15.648 7.704C15.648 7.56 15.608 7.432 15.528 7.32C15.432 7.4 15.264 7.44 15.024 7.44C14.912 7.44 14.776 7.432 14.616 7.416C14.472 7.4 14.36 7.4 14.28 7.416C14.184 7.432 14.008 7.456 13.752 7.488C13.496 7.504 13.288 7.544 13.128 7.608C13.032 7.64 12.872 7.664 12.648 7.68C12.44 7.696 12.28 7.728 12.168 7.776C12.136 7.792 12.096 7.824 12.048 7.872C12 7.92 11.96 7.944 11.928 7.944C11.864 7.976 11.816 7.992 11.784 7.992C11.72 7.992 11.664 7.96 11.616 7.896C11.568 7.944 11.528 7.968 11.496 7.968C11.432 7.968 11.368 7.936 11.304 7.872C11.288 7.936 11.208 8.04 11.064 8.184C10.936 8.328 10.84 8.448 10.776 8.544C10.728 8.64 10.736 8.744 10.8 8.856C10.816 8.84 10.872 8.808 10.968 8.76C10.952 8.84 10.92 8.944 10.872 9.072C10.872 9.056 10.864 9.032 10.848 9C10.832 8.968 10.808 8.968 10.776 9C10.904 9.08 10.92 9.16 10.824 9.24C10.776 9.192 10.728 9.168 10.68 9.168C10.632 9.168 10.608 9.208 10.608 9.288C10.608 9.352 10.632 9.424 10.68 9.504C10.728 9.584 10.792 9.624 10.872 9.624C10.872 9.688 10.872 9.752 10.872 9.816C10.888 9.864 10.88 9.936 10.848 10.032L10.68 10.464C10.648 10.512 10.56 10.608 10.416 10.752C10.288 10.88 10.224 10.984 10.224 11.064C10.224 11.128 10.28 11.16 10.392 11.16L10.368 11.184H10.392C10.328 11.28 10.216 11.392 10.056 11.52C9.896 11.632 9.792 11.736 9.744 11.832C9.728 11.896 9.704 12.008 9.672 12.168C9.656 12.312 9.624 12.424 9.576 12.504C9.528 12.584 9.456 12.584 9.36 12.504C9.28 12.584 9.24 12.688 9.24 12.816C9.24 12.912 9.264 13.016 9.312 13.128C9.376 13.224 9.448 13.288 9.528 13.32C9.496 13.4 9.456 13.448 9.408 13.464C9.36 13.464 9.32 13.432 9.288 13.368C9.208 13.416 9.16 13.496 9.144 13.608C9.144 13.704 9.128 13.776 9.096 13.824C9.064 13.856 8.992 13.84 8.88 13.776C8.848 13.824 8.824 13.888 8.808 13.968C8.792 14.032 8.784 14.088 8.784 14.136C8.832 14.104 8.856 14.072 8.856 14.04C8.856 14.008 8.856 13.984 8.856 13.968V13.944C8.984 13.976 9.048 14.048 9.048 14.16C9.048 14.192 9.016 14.272 8.952 14.4C9.064 14.448 9.12 14.488 9.12 14.52C9.12 14.552 9.112 14.584 9.096 14.616C9.08 14.648 9.064 14.696 9.048 14.76C9.048 14.792 9.024 14.896 8.976 15.072C8.928 15.232 8.936 15.336 9 15.384C9.048 15.336 9.136 15.288 9.264 15.24C9.392 15.192 9.496 15.144 9.576 15.096C9.672 15.032 9.784 14.968 9.912 14.904C10.04 14.824 10.136 14.76 10.2 14.712ZM6.264 7.584C6.312 7.632 6.336 7.616 6.336 7.536C6.32 7.488 6.296 7.504 6.264 7.584ZM11.64 7.656C11.56 7.576 11.496 7.576 11.448 7.656C11.496 7.736 11.56 7.736 11.64 7.656ZM6.456 7.92C6.488 8 6.512 8.016 6.528 7.968C6.528 7.888 6.504 7.872 6.456 7.92ZM6.6 8.16C6.632 8.16 6.64 8.152 6.624 8.136C6.624 8.12 6.608 8.112 6.576 8.112C6.512 8.144 6.52 8.16 6.6 8.16ZM6.456 8.304C6.488 8.384 6.512 8.4 6.528 8.352C6.528 8.272 6.504 8.256 6.456 8.304ZM6.096 8.544C6.176 8.512 6.192 8.464 6.144 8.4C6.112 8.4 6.088 8.416 6.072 8.448C6.072 8.464 6.072 8.488 6.072 8.52C6.072 8.536 6.08 8.544 6.096 8.544ZM7.224 8.952C7.224 9.08 7.2 9.144 7.152 9.144C7.104 9.144 7.064 9.08 7.032 8.952H7.224ZM7.944 9.144C7.96 9.128 7.96 9.096 7.944 9.048C7.896 9.064 7.896 9.096 7.944 9.144ZM6.072 9.216C6.12 9.264 6.144 9.248 6.144 9.168C6.128 9.12 6.104 9.136 6.072 9.216ZM3.216 9.696C3.248 9.6 3.304 9.528 3.384 9.48C3.352 9.464 3.312 9.456 3.264 9.456C3.184 9.456 3.136 9.48 3.12 9.528C3.12 9.576 3.152 9.632 3.216 9.696ZM6.96 9.456C7.04 9.472 7.048 9.528 6.984 9.624C6.92 9.56 6.912 9.504 6.96 9.456ZM11.016 9.696C10.984 9.696 10.952 9.672 10.92 9.624C10.904 9.576 10.88 9.552 10.848 9.552C10.912 9.52 10.96 9.504 10.992 9.504C11.072 9.504 11.096 9.568 11.064 9.696H11.016ZM5.592 9.576C5.64 9.656 5.704 9.656 5.784 9.576C5.704 9.496 5.64 9.496 5.592 9.576ZM7.8 9.696L7.632 9.792C7.616 9.744 7.616 9.704 7.632 9.672C7.664 9.624 7.704 9.616 7.752 9.648L7.8 9.696ZM6.744 10.008C6.792 9.848 6.856 9.768 6.936 9.768C6.984 9.768 7.04 9.8 7.104 9.864H7.128H7.104C7.056 9.88 7 9.912 6.936 9.96C6.872 9.992 6.808 10.008 6.744 10.008ZM7.44 9.984C7.424 9.984 7.416 9.976 7.416 9.96C7.416 9.928 7.416 9.904 7.416 9.888C7.432 9.856 7.456 9.84 7.488 9.84C7.536 9.904 7.52 9.952 7.44 9.984ZM3.912 10.224C3.832 10.224 3.824 10.24 3.888 10.272C3.92 10.272 3.936 10.264 3.936 10.248C3.952 10.232 3.944 10.224 3.912 10.224ZM6.672 10.368C6.608 10.336 6.616 10.32 6.696 10.32C6.728 10.32 6.736 10.328 6.72 10.344C6.72 10.36 6.704 10.368 6.672 10.368ZM3.096 10.416C3.128 10.496 3.152 10.512 3.168 10.464C3.168 10.384 3.144 10.368 3.096 10.416ZM5.496 10.584C5.544 10.568 5.568 10.536 5.568 10.488C5.568 10.44 5.56 10.416 5.544 10.416C5.464 10.448 5.448 10.504 5.496 10.584ZM5.112 10.56C5.16 10.608 5.184 10.592 5.184 10.512C5.168 10.464 5.144 10.48 5.112 10.56ZM4.344 10.848C4.392 10.896 4.416 10.88 4.416 10.8C4.4 10.752 4.376 10.768 4.344 10.848ZM4.944 10.992C5.024 10.992 5.04 10.92 4.992 10.776C4.8 10.904 4.72 11 4.752 11.064L4.824 10.968H4.848L4.944 10.992ZM4.344 10.992C4.376 11.072 4.4 11.088 4.416 11.04C4.416 10.96 4.392 10.944 4.344 10.992ZM7.704 10.992C7.736 11.072 7.76 11.088 7.776 11.04C7.776 10.96 7.752 10.944 7.704 10.992ZM9.96 10.968C9.944 10.984 9.92 11.032 9.888 11.112C9.856 11.176 9.84 11.224 9.84 11.256L9.912 11.16L9.96 11.136C10.024 11.104 10.024 11.048 9.96 10.968ZM10.44 11.064C10.472 11.112 10.472 11.144 10.44 11.16C10.424 11.176 10.408 11.184 10.392 11.184V11.16L10.44 11.064ZM2.04 11.112C2.056 11.16 2.088 11.16 2.136 11.112C2.12 11.096 2.104 11.088 2.088 11.088C2.072 11.088 2.056 11.096 2.04 11.112ZM5.208 11.352C5.256 11.368 5.28 11.392 5.28 11.424C5.28 11.456 5.272 11.496 5.256 11.544C5.208 11.528 5.184 11.496 5.184 11.448C5.2 11.4 5.208 11.368 5.208 11.352ZM3.96 11.688C3.928 11.656 3.896 11.64 3.864 11.64C3.8 11.64 3.768 11.704 3.768 11.832C3.784 11.832 3.792 11.832 3.792 11.832C3.808 11.816 3.816 11.808 3.816 11.808C3.848 11.792 3.896 11.752 3.96 11.688ZM3.912 12.48C4.008 12.384 4.096 12.24 4.176 12.048C4.272 11.84 4.28 11.704 4.2 11.64C4.168 11.672 4.128 11.72 4.08 11.784C4.032 11.832 3.992 11.88 3.96 11.928C3.944 11.976 3.936 12.04 3.936 12.12L3.864 12.144C3.784 12.144 3.744 12.088 3.744 11.976C3.616 12.056 3.552 12.112 3.552 12.144C3.552 12.176 3.616 12.208 3.744 12.24V12.288V12.336L3.72 12.648V12.696C3.736 12.696 3.8 12.624 3.912 12.48ZM3.768 11.832C3.768 11.816 3.784 11.808 3.816 11.808L3.768 11.832ZM13.416 12.048C13.336 12.08 13.32 12.136 13.368 12.216C13.416 12.2 13.44 12.168 13.44 12.12C13.44 12.072 13.432 12.048 13.416 12.048ZM2.136 12.384C2.184 12.432 2.208 12.416 2.208 12.336C2.192 12.288 2.168 12.304 2.136 12.384ZM15.912 12.432C15.832 12.432 15.824 12.448 15.888 12.48C15.92 12.48 15.936 12.472 15.936 12.456C15.952 12.44 15.944 12.432 15.912 12.432ZM2.64 12.864C2.72 12.832 2.736 12.784 2.688 12.72C2.656 12.72 2.64 12.736 2.64 12.768C2.624 12.784 2.616 12.808 2.616 12.84C2.616 12.856 2.624 12.864 2.64 12.864ZM15.648 13.272C15.744 13.272 15.768 13.24 15.72 13.176L15.648 13.272ZM3.384 13.344C3.432 13.392 3.456 13.376 3.456 13.296C3.44 13.248 3.416 13.264 3.384 13.344ZM14.976 13.584C14.992 13.584 15.016 13.576 15.048 13.56C15.08 13.544 15.08 13.512 15.048 13.464C15.032 13.48 15 13.512 14.952 13.56C14.904 13.592 14.896 13.624 14.928 13.656L14.976 13.584ZM14.616 13.944C14.712 13.912 14.768 13.864 14.784 13.8C14.768 13.784 14.744 13.776 14.712 13.776C14.664 13.776 14.624 13.816 14.592 13.896C14.56 13.96 14.544 14.008 14.544 14.04L14.616 13.944ZM15.072 13.968C15.088 13.968 15.112 13.96 15.144 13.944C15.176 13.928 15.176 13.896 15.144 13.848C15.128 13.88 15.072 13.928 14.976 13.992C14.896 14.056 14.84 14.112 14.808 14.16C14.776 14.192 14.784 14.24 14.832 14.304C15.008 14.128 15.088 14.016 15.072 13.968ZM2.952 14.136C3 14.072 3 14.008 2.952 13.944C2.872 14.024 2.872 14.088 2.952 14.136ZM14.568 14.232C14.584 14.216 14.584 14.184 14.568 14.136C14.52 14.152 14.52 14.184 14.568 14.232ZM13.416 14.4C13.48 14.368 13.48 14.312 13.416 14.232C13.4 14.248 13.376 14.296 13.344 14.376C13.312 14.44 13.296 14.488 13.296 14.52L13.368 14.424L13.416 14.4ZM2.904 14.52C2.952 14.504 2.976 14.472 2.976 14.424C2.976 14.376 2.968 14.352 2.952 14.352C2.872 14.384 2.856 14.44 2.904 14.52ZM13.656 14.544C13.688 14.624 13.712 14.64 13.728 14.592C13.728 14.512 13.704 14.496 13.656 14.544ZM2.568 14.616C2.584 14.6 2.584 14.568 2.568 14.52C2.52 14.536 2.52 14.568 2.568 14.616ZM8.736 14.832C8.752 14.832 8.776 14.824 8.808 14.808C8.84 14.792 8.84 14.76 8.808 14.712C8.792 14.728 8.76 14.76 8.712 14.808C8.664 14.84 8.656 14.872 8.688 14.904L8.736 14.832ZM13.704 14.784C13.736 14.784 13.744 14.776 13.728 14.76C13.728 14.744 13.712 14.736 13.68 14.736C13.616 14.768 13.624 14.784 13.704 14.784ZM13.368 15.072C13.416 15.12 13.44 15.104 13.44 15.024C13.424 14.976 13.4 14.992 13.368 15.072ZM13.248 15.408C13.264 15.408 13.288 15.4 13.32 15.384C13.352 15.368 13.352 15.336 13.32 15.288C13.304 15.304 13.272 15.336 13.224 15.384C13.176 15.416 13.168 15.448 13.2 15.48L13.248 15.408ZM11.76 16.92C11.808 16.936 11.832 16.968 11.832 17.016C11.832 17.064 11.832 17.096 11.832 17.112C11.784 17.096 11.752 17.072 11.736 17.04C11.736 17.008 11.744 16.968 11.76 16.92ZM11.832 17.112H12C12 17.224 11.976 17.28 11.928 17.28C11.896 17.264 11.864 17.216 11.832 17.136V17.112ZM3.048 18.048C3.08 18.048 3.088 18.04 3.072 18.024C3.072 18.008 3.056 18 3.024 18C2.96 18.032 2.968 18.048 3.048 18.048ZM5.496 19.008C5.544 19.056 5.568 19.04 5.568 18.96C5.552 18.912 5.528 18.928 5.496 19.008ZM6.744 19.872C6.792 19.92 6.816 19.904 6.816 19.824C6.8 19.776 6.776 19.792 6.744 19.872ZM7.224 21.576C7.24 21.624 7.272 21.624 7.32 21.576C7.304 21.56 7.288 21.552 7.272 21.552C7.256 21.552 7.24 21.56 7.224 21.576ZM7.848 21.816C7.88 21.848 7.896 21.912 7.896 22.008C7.896 22.12 7.88 22.24 7.848 22.368C7.816 22.496 7.784 22.6 7.752 22.68C7.704 22.632 7.68 22.568 7.68 22.488C7.68 22.408 7.696 22.312 7.728 22.2C7.76 22.072 7.752 21.984 7.704 21.936C7.72 21.936 7.728 21.928 7.728 21.912L7.848 21.816ZM15.696 22.248C15.584 22.248 15.472 22.2 15.36 22.104C15.248 21.992 15.192 21.896 15.192 21.816C15.32 21.816 15.44 21.88 15.552 22.008C15.664 22.136 15.736 22.216 15.768 22.248H15.696ZM13.968 21.984C14 21.984 14.016 21.976 14.016 21.96C14.032 21.944 14.024 21.936 13.992 21.936C13.912 21.936 13.904 21.952 13.968 21.984ZM14.544 21.936C14.48 21.968 14.488 21.984 14.568 21.984C14.6 21.984 14.608 21.976 14.592 21.96C14.592 21.944 14.576 21.936 14.544 21.936ZM14.688 22.416C14.72 22.384 14.736 22.352 14.736 22.32C14.736 22.272 14.688 22.232 14.592 22.2C14.512 22.152 14.456 22.12 14.424 22.104C14.424 22.216 14.432 22.288 14.448 22.32C14.48 22.352 14.52 22.376 14.568 22.392C14.616 22.392 14.656 22.4 14.688 22.416ZM6.984 22.464C7.032 22.384 7.024 22.288 6.96 22.176C6.944 22.272 6.936 22.336 6.936 22.368C6.952 22.4 6.968 22.432 6.984 22.464ZM15.696 22.68C15.696 22.6 15.624 22.552 15.48 22.536C15.528 22.488 15.568 22.464 15.6 22.464C15.68 22.464 15.768 22.568 15.864 22.776H15.672V22.752L15.696 22.68ZM14.568 22.872C14.584 22.824 14.592 22.768 14.592 22.704C14.592 22.624 14.536 22.584 14.424 22.584L14.4 22.536C14.352 22.472 14.296 22.472 14.232 22.536C14.248 22.568 14.272 22.584 14.304 22.584C14.352 22.568 14.376 22.568 14.376 22.584L14.568 22.872ZM15.84 22.968C15.712 22.968 15.616 22.952 15.552 22.92C15.488 22.872 15.472 22.784 15.504 22.656C15.536 22.736 15.608 22.808 15.72 22.872C15.832 22.92 15.904 22.952 15.936 22.968H15.84ZM16.248 22.728C16.296 22.648 16.36 22.648 16.44 22.728C16.36 22.808 16.296 22.808 16.248 22.728ZM16.248 23.088C16.344 23.04 16.4 23.056 16.416 23.136C16.4 23.152 16.368 23.16 16.32 23.16C16.288 23.16 16.264 23.136 16.248 23.088ZM16.008 23.256C15.944 23.192 15.944 23.128 16.008 23.064C16.072 23.128 16.072 23.192 16.008 23.256ZM6.912 23.64C6.976 23.656 7.008 23.68 7.008 23.712C7.008 23.744 7 23.784 6.984 23.832C6.952 23.816 6.936 23.792 6.936 23.76C6.936 23.712 6.928 23.672 6.912 23.64ZM6.504 23.88C6.536 23.832 6.552 23.784 6.552 23.736C6.552 23.688 6.528 23.664 6.48 23.664C6.416 23.664 6.368 23.704 6.336 23.784C6.304 23.848 6.352 23.888 6.48 23.904H6.504V23.88ZM5.112 23.808C5.16 23.856 5.184 23.84 5.184 23.76C5.168 23.712 5.144 23.728 5.112 23.808ZM6.48 23.904C6.464 23.888 6.464 23.88 6.48 23.88C6.512 23.864 6.52 23.864 6.504 23.88V23.904H6.48ZM13.632 24.096C13.6 24.016 13.552 23.952 13.488 23.904L13.44 24.096V24.12L13.632 24.096ZM4.728 24C4.776 24.048 4.8 24.032 4.8 23.952C4.784 23.904 4.76 23.92 4.728 24ZM6.12 24.216C6.184 24.12 6.176 24.064 6.096 24.048C6.048 24.096 6.056 24.152 6.12 24.216ZM13.44 24.096C13.456 24.064 13.472 24.056 13.488 24.072C13.504 24.104 13.488 24.12 13.44 24.12V24.096ZM16.728 25.008C16.744 25.056 16.768 25.08 16.8 25.08C16.848 25.08 16.88 25.072 16.896 25.056C16.88 24.976 16.824 24.96 16.728 25.008ZM17.064 26.616C17.128 26.552 17.128 26.488 17.064 26.424C17 26.488 17 26.552 17.064 26.616ZM19.224 27.072C19.272 27.12 19.296 27.104 19.296 27.024C19.28 26.976 19.256 26.992 19.224 27.072ZM18.648 27.36C18.696 27.408 18.72 27.392 18.72 27.312C18.704 27.264 18.68 27.28 18.648 27.36Z" fill="#1F517B"/>
<path d="M45.584 12.576C45.488 12.608 45.424 12.664 45.392 12.744C45.376 12.808 45.368 12.888 45.368 12.984C45.368 13.08 45.368 13.152 45.368 13.2C45.368 13.424 45.336 13.592 45.272 13.704C45.224 13.752 45.168 13.784 45.104 13.8C45.04 13.8 44.984 13.808 44.936 13.824C44.856 13.776 44.808 13.784 44.792 13.848C44.76 13.912 44.752 13.976 44.768 14.04C44.784 14.088 44.816 14.144 44.864 14.208C44.912 14.256 44.936 14.304 44.936 14.352C44.92 14.416 44.88 14.544 44.816 14.736C44.768 14.912 44.768 15.024 44.816 15.072C44.832 15.04 44.84 15.016 44.84 15C44.856 14.984 44.856 14.984 44.84 15C44.904 14.936 44.96 14.816 45.008 14.64C45.056 14.464 45.056 14.352 45.008 14.304L45.104 14.28C45.184 14.28 45.224 14.32 45.224 14.4C45.224 14.48 45.2 14.576 45.152 14.688C45.12 14.784 45.096 14.848 45.08 14.88C45.048 14.96 45.008 15.088 44.96 15.264C44.928 15.424 44.896 15.528 44.864 15.576C44.848 15.592 44.8 15.608 44.72 15.624C44.64 15.64 44.592 15.664 44.576 15.696V15.744C44.576 15.776 44.592 15.84 44.624 15.936C44.672 16.016 44.704 16.08 44.72 16.128V16.176C44.72 16.256 44.696 16.352 44.648 16.464C44.616 16.576 44.576 16.648 44.528 16.68C44.464 16.712 44.424 16.704 44.408 16.656C44.408 16.608 44.392 16.584 44.36 16.584C44.328 16.584 44.248 16.704 44.12 16.944C44.088 16.992 44.056 17.112 44.024 17.304C44.008 17.336 43.96 17.408 43.88 17.52C43.8 17.632 43.768 17.72 43.784 17.784C43.8 17.816 43.824 17.848 43.856 17.88C43.904 17.896 43.936 17.904 43.952 17.904C43.952 17.92 43.912 17.968 43.832 18.048C43.8 17.968 43.76 17.928 43.712 17.928C43.696 17.928 43.664 17.968 43.616 18.048C43.584 18.112 43.528 18.12 43.448 18.072C43.432 18.088 43.424 18.12 43.424 18.168C43.424 18.216 43.432 18.264 43.448 18.312C43.48 18.344 43.496 18.384 43.496 18.432C43.496 18.512 43.472 18.584 43.424 18.648C43.376 18.696 43.344 18.728 43.328 18.744L42.992 19.416C43.04 19.448 43.08 19.464 43.112 19.464C43.064 19.496 43.032 19.504 43.016 19.488C43.016 19.456 43.008 19.432 42.992 19.416L42.872 19.632C42.856 19.68 42.808 19.744 42.728 19.824C42.648 19.904 42.6 19.968 42.584 20.016C42.568 20.032 42.56 20.08 42.56 20.16C42.56 20.24 42.544 20.296 42.512 20.328L42.416 20.352C42.384 20.352 42.336 20.328 42.272 20.28C42.224 20.232 42.176 20.216 42.128 20.232C42.128 20.36 42.2 20.416 42.344 20.4V20.448C42.344 20.608 42.304 20.688 42.224 20.688C42.144 20.688 42.096 20.608 42.08 20.448C42.016 20.496 41.984 20.56 41.984 20.64C41.984 20.704 41.984 20.752 41.984 20.784C41.984 20.864 41.976 20.92 41.96 20.952C41.96 21 41.928 21.016 41.864 21C41.832 21.064 41.808 21.128 41.792 21.192C41.776 21.256 41.752 21.32 41.72 21.384C41.64 21.512 41.568 21.608 41.504 21.672C41.472 21.672 41.424 21.688 41.36 21.72C41.312 21.752 41.296 21.76 41.312 21.744C41.264 21.792 41.216 21.872 41.168 21.984C41.12 22.096 41.08 22.176 41.048 22.224C41.016 22.256 40.912 22.408 40.736 22.68C40.608 22.904 40.496 23.064 40.4 23.16L40.256 23.328L40.328 23.352C40.296 23.384 40.272 23.392 40.256 23.376C40.256 23.36 40.256 23.344 40.256 23.328C40.112 23.504 39.984 23.624 39.872 23.688C39.824 23.72 39.728 23.752 39.584 23.784C39.44 23.816 39.344 23.856 39.296 23.904C39.312 23.92 39.328 23.952 39.344 24C39.376 24.032 39.376 24.056 39.344 24.072C39.328 24.104 39.296 24.12 39.248 24.12C39.232 24.12 39.216 24.104 39.2 24.072C39.2 24.04 39.2 24.016 39.2 24C39.056 24 38.936 24.04 38.84 24.12C38.76 24.2 38.704 24.256 38.672 24.288C38.656 24.304 38.64 24.328 38.624 24.36C38.624 24.392 38.616 24.416 38.6 24.432C38.584 24.432 38.56 24.424 38.528 24.408C38.496 24.408 38.472 24.416 38.456 24.432C38.424 24.448 38.384 24.472 38.336 24.504C38.304 24.536 38.256 24.56 38.192 24.576C38.16 24.576 38.112 24.56 38.048 24.528C37.984 24.496 37.928 24.52 37.88 24.6H37.856L37.568 24.408C37.44 24.36 37.304 24.32 37.16 24.288C36.84 24.192 36.624 24.112 36.512 24.048C36.416 24 36.248 23.92 36.008 23.808C35.784 23.696 35.592 23.576 35.432 23.448C35.272 23.304 35.144 23.128 35.048 22.92C34.936 22.696 34.856 22.464 34.808 22.224C34.776 21.968 34.744 21.72 34.712 21.48C34.696 21.224 34.68 21.04 34.664 20.928V20.832V20.616C34.664 20.504 34.616 20.408 34.52 20.328C34.44 20.264 34.304 20.216 34.112 20.184C33.92 20.136 33.776 20.096 33.68 20.064C33.232 19.888 32.896 19.744 32.672 19.632C32.448 19.504 32.272 19.312 32.144 19.056C32.032 18.832 31.976 18.576 31.976 18.288C31.976 18.08 32.008 17.8 32.072 17.448C32.104 17.288 32.144 17.032 32.192 16.68C32.24 16.312 32.312 15.992 32.408 15.72C32.456 15.576 32.496 15.48 32.528 15.432C32.528 15.384 32.544 15.344 32.576 15.312L32.72 15.168L32.696 14.952C32.712 14.872 32.744 14.792 32.792 14.712C32.84 14.632 32.88 14.56 32.912 14.496C32.944 14.416 32.968 14.312 32.984 14.184C33 14.056 33.024 13.968 33.056 13.92C33.104 13.92 33.136 13.912 33.152 13.896L33.272 13.68L33.56 12.96C33.656 12.672 33.736 12.456 33.8 12.312C33.832 12.232 33.88 12.152 33.944 12.072C34.008 11.992 34.064 11.92 34.112 11.856C34.112 11.824 34.112 11.784 34.112 11.736C34.128 11.688 34.152 11.632 34.184 11.568C34.216 11.52 34.248 11.488 34.28 11.472C34.328 11.44 34.368 11.408 34.4 11.376H34.376C34.344 11.376 34.384 11.264 34.496 11.04C34.512 10.992 34.528 10.92 34.544 10.824C34.576 10.712 34.608 10.656 34.64 10.656C34.672 10.656 34.72 10.704 34.784 10.8C34.816 10.736 34.856 10.648 34.904 10.536C34.968 10.408 35.024 10.304 35.072 10.224C35.12 10.176 35.184 10.128 35.264 10.08C35.344 10.016 35.4 9.96 35.432 9.912C35.496 9.832 35.552 9.752 35.6 9.672C35.648 9.576 35.696 9.488 35.744 9.408C35.776 9.376 35.816 9.336 35.864 9.288C35.928 9.224 35.976 9.144 36.008 9.048C36.072 9.096 36.176 9.032 36.32 8.856C36.48 8.664 36.576 8.544 36.608 8.496C36.944 8.128 37.248 7.848 37.52 7.656C37.632 7.576 37.776 7.488 37.952 7.392C38.128 7.28 38.272 7.184 38.384 7.104C38.528 7.008 38.624 6.936 38.672 6.888C38.688 6.856 38.688 6.824 38.672 6.792C38.656 6.76 38.672 6.72 38.72 6.672C38.768 6.752 38.832 6.792 38.912 6.792C38.992 6.792 39.096 6.76 39.224 6.696C39.368 6.632 39.464 6.592 39.512 6.576C39.624 6.544 39.736 6.52 39.848 6.504C39.976 6.488 40.096 6.464 40.208 6.432C40.272 6.416 40.336 6.392 40.4 6.36C40.464 6.312 40.528 6.28 40.592 6.264C40.688 6.248 40.832 6.272 41.024 6.336C41.232 6.4 41.384 6.44 41.48 6.456C41.64 6.488 41.848 6.584 42.104 6.744C42.504 6.984 42.904 7.28 43.304 7.632C43.72 7.984 43.976 8.2 44.072 8.28C44.472 8.616 44.776 8.92 44.984 9.192C45.192 9.448 45.32 9.76 45.368 10.128C45.352 10.128 45.312 10.088 45.248 10.008C45.2 9.928 45.16 9.888 45.128 9.888C45.096 9.904 45.096 10.024 45.128 10.248C45.16 10.456 45.184 10.608 45.2 10.704C45.248 11.008 45.272 11.24 45.272 11.4C45.272 11.464 45.264 11.544 45.248 11.64C45.232 11.736 45.224 11.832 45.224 11.928C45.224 12.28 45.344 12.496 45.584 12.576ZM39.416 7.92C39.4 7.84 39.352 7.824 39.272 7.872C39.272 7.904 39.288 7.92 39.32 7.92C39.368 7.92 39.4 7.92 39.416 7.92ZM43.28 12.48C43.28 12.272 43.328 12.184 43.424 12.216C43.408 12.104 43.4 11.944 43.4 11.736V11.184C43.4 10.4 43.368 9.816 43.304 9.432C43.304 9.384 43.296 9.288 43.28 9.144C43.264 8.984 43.232 8.848 43.184 8.736C43.12 8.512 43.056 8.376 42.992 8.328C42.96 8.312 42.888 8.304 42.776 8.304C42.68 8.288 42.6 8.264 42.536 8.232C42.488 8.2 42.496 8.152 42.56 8.088C42.416 8.088 42.296 8.112 42.2 8.16C42.12 8.208 42.024 8.296 41.912 8.424C41.816 8.264 41.464 8.36 40.856 8.712C40.248 9.048 39.832 9.32 39.608 9.528C39.288 9.768 38.92 10.128 38.504 10.608L37.976 11.16C37.928 11.192 37.856 11.256 37.76 11.352C37.664 11.432 37.616 11.512 37.616 11.592C37.616 11.672 37.648 11.744 37.712 11.808C37.744 11.856 37.784 11.896 37.832 11.928C37.896 11.944 37.936 11.96 37.952 11.976C37.984 11.992 38.008 12.032 38.024 12.096C38.04 12.144 38.064 12.184 38.096 12.216C38.112 12.216 38.128 12.216 38.144 12.216C38.176 12.2 38.2 12.2 38.216 12.216C38.248 12.232 38.28 12.256 38.312 12.288C38.344 12.32 38.384 12.352 38.432 12.384C38.448 12.384 38.464 12.384 38.48 12.384C38.512 12.368 38.536 12.368 38.552 12.384C38.584 12.416 38.6 12.448 38.6 12.48C38.6 12.496 38.608 12.512 38.624 12.528C38.672 12.56 38.76 12.616 38.888 12.696C39.016 12.776 39.112 12.872 39.176 12.984C39.016 13.016 38.904 13.104 38.84 13.248C38.792 13.376 38.752 13.52 38.72 13.68C38.704 13.824 38.688 13.928 38.672 13.992L38.432 14.712C38.432 14.744 38.424 14.824 38.408 14.952C38.392 15.064 38.344 15.16 38.264 15.24C38.216 15.272 38.176 15.304 38.144 15.336C38.112 15.352 38.088 15.408 38.072 15.504C38.056 15.568 38.048 15.64 38.048 15.72C38.048 15.8 38.04 15.864 38.024 15.912C37.96 16.072 37.856 16.152 37.712 16.152C37.648 16.152 37.6 16.128 37.568 16.08C37.552 16.016 37.576 15.944 37.64 15.864L37.496 15.84C37.608 15.76 37.696 15.656 37.76 15.528C37.824 15.384 37.856 15.24 37.856 15.096C37.856 15.016 37.84 14.928 37.808 14.832C37.776 14.848 37.768 14.872 37.784 14.904C37.8 14.92 37.8 14.936 37.784 14.952C37.688 15.048 37.632 15.112 37.616 15.144C37.584 15.208 37.56 15.288 37.544 15.384C37.544 15.48 37.536 15.56 37.52 15.624C37.504 15.608 37.48 15.6 37.448 15.6C37.4 15.6 37.368 15.656 37.352 15.768C37.352 15.88 37.352 15.952 37.352 15.984C37.352 16.016 37.328 16.08 37.28 16.176C37.232 16.256 37.216 16.304 37.232 16.32C37.248 16.32 37.288 16.304 37.352 16.272C37.384 16.304 37.4 16.344 37.4 16.392C37.4 16.456 37.368 16.552 37.304 16.68C37.256 16.808 37.224 16.904 37.208 16.968C37.112 17.352 37.056 17.648 37.04 17.856C37.024 17.824 36.984 17.768 36.92 17.688C36.872 17.608 36.832 17.56 36.8 17.544V17.616L36.776 18C36.776 18.144 36.808 18.248 36.872 18.312L36.848 18.24C36.848 18.192 36.888 18.128 36.968 18.048C36.984 18.064 36.992 18.096 36.992 18.144C36.992 18.288 36.904 18.408 36.728 18.504C36.776 18.552 36.8 18.616 36.8 18.696C36.8 18.808 36.752 18.992 36.656 19.248C36.56 19.504 36.512 19.664 36.512 19.728C36.512 19.824 36.52 19.92 36.536 20.016C36.568 20.112 36.584 20.2 36.584 20.28C36.568 20.312 36.544 20.36 36.512 20.424C36.496 20.472 36.488 20.512 36.488 20.544C36.488 20.576 36.496 20.6 36.512 20.616C36.528 20.616 36.544 20.632 36.56 20.664V20.88C36.56 21.104 36.552 21.272 36.536 21.384V21.432C36.536 21.464 36.544 21.512 36.56 21.576C36.576 21.624 36.576 21.672 36.56 21.72L36.44 21.888C36.456 21.936 36.488 22.016 36.536 22.128C36.584 22.24 36.624 22.344 36.656 22.44C36.672 22.488 36.704 22.56 36.752 22.656C36.8 22.752 36.824 22.816 36.824 22.848C36.872 22.8 36.904 22.776 36.92 22.776C36.952 22.776 36.976 22.848 36.992 22.992C37.024 23.136 37.088 23.208 37.184 23.208C37.312 23.208 37.44 23.12 37.568 22.944C37.712 22.768 37.808 22.664 37.856 22.632C37.872 22.616 37.904 22.608 37.952 22.608C38.016 22.592 38.064 22.576 38.096 22.56C38.128 22.544 38.216 22.464 38.36 22.32L38.768 21.816C39.552 20.888 40.208 19.976 40.736 19.08C40.96 18.728 41.184 18.36 41.408 17.976C41.632 17.576 41.808 17.216 41.936 16.896C42 16.72 42.112 16.472 42.272 16.152L42.584 15.408C42.616 15.28 42.648 15.12 42.68 14.928C42.696 14.864 42.712 14.784 42.728 14.688C42.744 14.592 42.776 14.48 42.824 14.352C42.888 14.4 42.936 14.336 42.968 14.16C43.016 13.968 43.048 13.8 43.064 13.656C43.08 13.496 43.096 13.384 43.112 13.32C43.128 13.224 43.16 13.096 43.208 12.936C43.256 12.776 43.28 12.656 43.28 12.576V12.48ZM37.592 8.232C37.56 8.328 37.568 8.392 37.616 8.424C37.664 8.36 37.656 8.296 37.592 8.232ZM37.904 8.664C37.856 8.632 37.84 8.64 37.856 8.688C37.888 8.72 37.904 8.712 37.904 8.664ZM38.24 8.664C38.192 8.632 38.176 8.64 38.192 8.688C38.192 8.688 38.2 8.696 38.216 8.712C38.232 8.712 38.24 8.696 38.24 8.664ZM36.968 8.712C36.936 8.744 36.88 8.792 36.8 8.856C36.72 8.92 36.688 8.984 36.704 9.048V9.072L36.728 9.12C36.744 9.12 36.752 9.12 36.752 9.12C36.752 9.104 36.752 9.096 36.752 9.096C36.784 9.032 36.792 8.992 36.776 8.976C36.824 8.976 36.864 8.952 36.896 8.904C36.944 8.856 36.968 8.792 36.968 8.712ZM36.776 8.952C36.792 8.952 36.792 8.96 36.776 8.976V8.952ZM36.704 9.048C36.704 9.032 36.712 9.032 36.728 9.048C36.744 9.064 36.752 9.08 36.752 9.096L36.728 9.12L36.704 9.072V9.048ZM45.104 9.816C45.104 9.768 45.088 9.72 45.056 9.672C45.04 9.624 45.032 9.6 45.032 9.6C45.032 9.6 45.016 9.592 44.984 9.576C44.952 9.544 44.928 9.536 44.912 9.552C44.928 9.584 44.944 9.624 44.96 9.672C44.992 9.704 45.024 9.744 45.056 9.792C45.056 9.792 45.056 9.8 45.056 9.816C45.072 9.816 45.088 9.824 45.104 9.84V9.816ZM35.816 10.08C35.848 10.032 35.92 9.952 36.032 9.84C36.144 9.728 36.192 9.648 36.176 9.6C36.16 9.632 36.136 9.656 36.104 9.672C36.088 9.672 36.08 9.672 36.08 9.672L35.96 9.912C35.896 9.896 35.856 9.912 35.84 9.96C35.84 9.992 35.824 10.024 35.792 10.056C35.776 10.072 35.744 10.096 35.696 10.128C35.664 10.144 35.624 10.128 35.576 10.08C35.56 10.16 35.544 10.264 35.528 10.392C35.512 10.52 35.52 10.6 35.552 10.632H35.576H35.6C35.664 10.6 35.704 10.52 35.72 10.392C35.752 10.248 35.784 10.144 35.816 10.08ZM45.056 9.792C45.056 9.776 45.064 9.776 45.08 9.792C45.096 9.792 45.104 9.8 45.104 9.816V9.84L45.056 9.792ZM35.552 10.632H35.6H35.576H35.552ZM35.96 10.848L36.008 10.824C35.96 10.776 35.936 10.784 35.936 10.848H35.96ZM35.936 10.848C35.952 10.832 35.96 10.832 35.96 10.848H35.936ZM34.856 11.568C34.824 11.568 34.816 11.576 34.832 11.592C34.848 11.592 34.856 11.608 34.856 11.64C34.872 11.672 34.88 11.672 34.88 11.64C34.864 11.624 34.856 11.6 34.856 11.568ZM45.032 11.88C45.064 11.848 45.072 11.808 45.056 11.76C45.008 11.76 44.992 11.776 45.008 11.808C45.024 11.84 45.032 11.864 45.032 11.88ZM45.008 12.192C45.008 12.208 45.016 12.208 45.032 12.192C45.032 12.176 45.016 12.16 44.984 12.144C44.968 12.128 44.96 12.136 44.96 12.168C44.96 12.216 44.976 12.224 45.008 12.192ZM45.008 12.192C45.008 12.176 45.016 12.176 45.032 12.192H45.008ZM45.512 12.432C45.48 12.416 45.456 12.392 45.44 12.36C45.44 12.328 45.448 12.272 45.464 12.192C45.544 12.304 45.56 12.384 45.512 12.432ZM44.84 12.432C44.84 12.48 44.848 12.48 44.864 12.432C44.88 12.368 44.88 12.32 44.864 12.288C44.8 12.304 44.768 12.384 44.768 12.528C44.768 12.464 44.792 12.432 44.84 12.432ZM33.992 12.744C34.008 12.776 34.032 12.768 34.064 12.72C34.016 12.672 33.992 12.68 33.992 12.744ZM44.768 14.52C44.784 14.488 44.792 14.464 44.792 14.448C44.792 14.416 44.776 14.384 44.744 14.352C44.728 14.384 44.72 14.416 44.72 14.448C44.72 14.464 44.736 14.488 44.768 14.52ZM37.928 14.592C37.976 14.56 37.976 14.536 37.928 14.52C37.88 14.52 37.88 14.544 37.928 14.592ZM35.288 14.904C35.304 14.872 35.328 14.824 35.36 14.76C35.408 14.68 35.424 14.624 35.408 14.592C35.408 14.608 35.4 14.624 35.384 14.64C35.384 14.656 35.368 14.664 35.336 14.664H35.384C35.336 14.664 35.296 14.688 35.264 14.736C35.248 14.768 35.248 14.808 35.264 14.856L35.288 14.904ZM35.264 14.856C35.264 14.84 35.264 14.84 35.264 14.856C35.28 14.872 35.288 14.888 35.288 14.904L35.264 14.856ZM44.552 14.856C44.52 14.92 44.536 15 44.6 15.096C44.616 15.016 44.616 14.96 44.6 14.928C44.584 14.896 44.568 14.872 44.552 14.856ZM35.192 15.168C35.208 15.152 35.216 15.128 35.216 15.096C35.232 15.064 35.232 15.032 35.216 15C35.184 15 35.16 15.04 35.144 15.12C35.128 15.2 35.128 15.264 35.144 15.312C35.176 15.296 35.184 15.288 35.168 15.288C35.184 15.272 35.192 15.248 35.192 15.216C35.192 15.184 35.192 15.168 35.192 15.168ZM44.528 15.24C44.592 15.24 44.624 15.208 44.624 15.144L44.528 15.216H44.552C44.552 15.232 44.544 15.24 44.528 15.24ZM44.504 15.288C44.488 15.272 44.488 15.28 44.504 15.312V15.288V15.264V15.288ZM35.144 15.312C35.144 15.296 35.144 15.288 35.144 15.288C35.16 15.272 35.168 15.272 35.168 15.288C35.168 15.288 35.168 15.296 35.168 15.312C35.168 15.312 35.16 15.312 35.144 15.312ZM44.504 15.312V15.288V15.312ZM35 15.72C35.08 15.608 35.096 15.52 35.048 15.456C35 15.488 34.976 15.6 34.976 15.792L35 15.696V15.72ZM34.664 15.6C34.616 15.52 34.568 15.52 34.52 15.6C34.6 15.648 34.648 15.648 34.664 15.6ZM44.432 15.792C44.464 15.712 44.456 15.656 44.408 15.624C44.344 15.672 44.352 15.728 44.432 15.792ZM34.688 17.76C34.704 17.648 34.72 17.536 34.736 17.424C34.752 17.296 34.784 17.176 34.832 17.064C34.88 16.952 34.896 16.848 34.88 16.752C34.88 16.656 34.88 16.576 34.88 16.512C34.88 16.448 34.896 16.352 34.928 16.224C34.96 16.096 34.952 15.992 34.904 15.912C34.664 16.376 34.528 16.88 34.496 17.424C34.464 17.744 34.432 17.984 34.4 18.144C34.384 18.192 34.352 18.28 34.304 18.408C34.272 18.52 34.264 18.6 34.28 18.648C34.28 18.728 34.272 18.832 34.256 18.96C34.24 19.088 34.24 19.2 34.256 19.296C34.272 19.36 34.304 19.464 34.352 19.608C34.4 19.752 34.4 19.872 34.352 19.968C34.448 19.984 34.504 19.984 34.52 19.968C34.552 19.952 34.552 19.936 34.52 19.92C34.536 19.888 34.528 19.808 34.496 19.68C34.464 19.536 34.472 19.44 34.52 19.392C34.456 19.376 34.424 19.288 34.424 19.128C34.424 18.92 34.464 18.664 34.544 18.36C34.624 18.04 34.672 17.84 34.688 17.76ZM37.424 16.128C37.376 16.176 37.352 16.168 37.352 16.104C37.384 16.104 37.408 16.112 37.424 16.128ZM44.36 16.8C44.36 16.784 44.352 16.768 44.336 16.752C44.336 16.736 44.352 16.736 44.384 16.752L44.36 16.8ZM33.848 17.136C33.88 17.104 33.88 17.08 33.848 17.064C33.832 17.064 33.832 17.088 33.848 17.136ZM33.944 17.448C33.976 17.416 33.992 17.392 33.992 17.376C33.992 17.344 33.968 17.32 33.92 17.304C33.904 17.336 33.912 17.384 33.944 17.448ZM35 18C34.984 17.984 34.984 17.976 35 17.976C35.016 17.976 35 17.96 34.952 17.928C34.936 17.912 34.92 17.928 34.904 17.976C34.904 18.008 34.928 18.016 34.976 18H35ZM36.896 17.976C36.928 17.944 36.96 17.928 36.992 17.928C37.024 17.928 37.048 17.944 37.064 17.976C37.032 18.024 36.976 18.024 36.896 17.976ZM34.976 18C34.992 18 35 18 35 18H34.976ZM36.464 18.024C36.4 18.04 36.408 18.088 36.488 18.168C36.552 18.104 36.544 18.056 36.464 18.024ZM34.928 18.504C35.008 18.392 35 18.312 34.904 18.264C34.872 18.328 34.88 18.408 34.928 18.504ZM43.712 18.264C43.792 18.296 43.808 18.344 43.76 18.408C43.712 18.392 43.68 18.368 43.664 18.336C43.664 18.304 43.68 18.28 43.712 18.264ZM36.248 18.648C36.264 18.584 36.248 18.536 36.2 18.504C36.184 18.52 36.176 18.544 36.176 18.576C36.192 18.608 36.216 18.632 36.248 18.648ZM34.28 18.648V18.6V18.648ZM37.328 19.368C37.408 19.416 37.416 19.464 37.352 19.512C37.272 19.464 37.264 19.416 37.328 19.368ZM34.352 19.968C34.4 19.904 34.456 19.888 34.52 19.92C34.488 19.968 34.432 19.984 34.352 19.968ZM36.44 21.408C36.376 21.488 36.384 21.568 36.464 21.648C36.528 21.584 36.52 21.504 36.44 21.408ZM41.168 21.552C41.184 21.568 41.216 21.568 41.264 21.552C41.216 21.504 41.184 21.504 41.168 21.552ZM41.144 21.72C41.16 21.704 41.168 21.696 41.168 21.696C41.168 21.68 41.16 21.672 41.144 21.672C41.128 21.688 41.12 21.704 41.12 21.72C41.12 21.72 41.128 21.72 41.144 21.72ZM36.584 22.68C36.616 22.616 36.608 22.576 36.56 22.56C36.496 22.592 36.504 22.632 36.584 22.68ZM39.608 23.736C39.656 23.672 39.648 23.608 39.584 23.544C39.568 23.608 39.576 23.672 39.608 23.736ZM38.984 23.88C39.016 23.848 39.048 23.8 39.08 23.736L38.984 23.784H39.032C38.936 23.784 38.92 23.816 38.984 23.88ZM39.536 24.024C39.536 23.944 39.56 23.928 39.608 23.976C39.576 24.008 39.56 24.024 39.56 24.024H39.536Z" fill="#1F517B"/>
<path d="M18.792 47.576C18.776 47.624 18.768 47.688 18.768 47.768C18.768 47.832 18.76 47.888 18.744 47.936C18.728 47.952 18.704 47.984 18.672 48.032C18.656 48.064 18.656 48.104 18.672 48.152C18.672 48.168 18.688 48.2 18.72 48.248C18.752 48.28 18.768 48.312 18.768 48.344C18.752 48.392 18.72 48.424 18.672 48.44C18.64 48.456 18.624 48.472 18.624 48.488C18.608 48.536 18.6 48.6 18.6 48.68C18.616 48.744 18.616 48.8 18.6 48.848L18.504 49.472C18.472 49.728 18.4 49.992 18.288 50.264C18.192 50.536 18.12 50.736 18.072 50.864C18.024 50.992 17.96 51.184 17.88 51.44C17.8 51.696 17.72 51.912 17.64 52.088L17.352 52.64C17.32 52.672 17.28 52.712 17.232 52.76C17.2 52.792 17.168 52.84 17.136 52.904C17.12 52.936 17.104 52.984 17.088 53.048C17.088 53.112 17.064 53.16 17.016 53.192C16.952 53.128 16.904 53.096 16.872 53.096C16.824 53.096 16.8 53.184 16.8 53.36C16.784 53.488 16.728 53.6 16.632 53.696C16.552 53.792 16.504 53.856 16.488 53.888L16.344 54.056C16.344 54.12 16.368 54.16 16.416 54.176C16.352 54.24 16.32 54.272 16.32 54.272C16.288 54.352 16.24 54.416 16.176 54.464C16.112 54.528 16.064 54.6 16.032 54.68C15.808 55.096 15.504 55.48 15.12 55.832L14.448 56.384C14.416 56.416 14.352 56.48 14.256 56.576C14.16 56.688 14.056 56.768 13.944 56.816C13.928 56.8 13.92 56.768 13.92 56.72C13.92 56.656 14.008 56.592 14.184 56.528C14.136 56.48 14.112 56.432 14.112 56.384C14.112 56.336 14.136 56.288 14.184 56.24C14.248 56.192 14.296 56.152 14.328 56.12C14.28 56.072 14.224 56.056 14.16 56.072V56.096C14.16 56.112 14.152 56.12 14.136 56.12C14.12 56.152 14.096 56.176 14.064 56.192C14.032 56.224 14.008 56.248 13.992 56.264H13.968L13.944 56.168L13.992 56.072C14.008 56.056 14.032 56.048 14.064 56.048C14.096 56.064 14.12 56.08 14.136 56.096L14.16 56.072C14.16 56.024 14.168 56.016 14.184 56.048C14.168 56 14.144 55.96 14.112 55.928C14.08 55.912 14.056 55.88 14.04 55.832C14.04 55.8 14.064 55.752 14.112 55.688C14.128 55.672 14.16 55.648 14.208 55.616C14.256 55.6 14.28 55.584 14.28 55.568C14.296 55.552 14.264 55.528 14.184 55.496H14.16C14.064 55.496 13.976 55.536 13.896 55.616C13.832 55.712 13.792 55.768 13.776 55.784C13.68 55.88 13.576 55.96 13.464 56.024C13.352 56.104 13.256 56.176 13.176 56.24C13.128 56.272 13.072 56.32 13.008 56.384C12.944 56.464 12.872 56.504 12.792 56.504C12.776 56.504 12.744 56.48 12.696 56.432C12.664 56.4 12.632 56.384 12.6 56.384C12.536 56.384 12.472 56.4 12.408 56.432C12.36 56.48 12.312 56.512 12.264 56.528L12.024 56.72C11.96 56.784 11.92 56.832 11.904 56.864C11.904 56.912 11.888 56.96 11.856 57.008C11.792 57.152 11.696 57.224 11.568 57.224L11.352 57.176C11.4 57.128 11.424 57.096 11.424 57.08H11.4C11.336 57.08 11.256 57.088 11.16 57.104C11.08 57.136 11.016 57.168 10.968 57.2C10.888 57.264 10.84 57.312 10.824 57.344C10.824 57.376 10.864 57.384 10.944 57.368C10.992 57.368 11 57.392 10.968 57.44C11 57.504 11.008 57.544 10.992 57.56C10.992 57.592 10.968 57.592 10.92 57.56C10.888 57.592 10.824 57.616 10.728 57.632C10.648 57.648 10.584 57.664 10.536 57.68C10.44 57.712 10.296 57.76 10.104 57.824C9.928 57.888 9.76 57.928 9.6 57.944C9.232 58.008 8.792 58.12 8.28 58.28H8.256C8.112 58.312 7.928 58.28 7.704 58.184C7.496 58.104 7.36 58.056 7.296 58.04C7.232 58.024 7.152 58 7.056 57.968C6.96 57.952 6.864 57.936 6.768 57.92C6.72 57.92 6.672 57.928 6.624 57.944C6.592 57.976 6.552 57.992 6.504 57.992H6.48C6.368 57.992 6.256 57.944 6.144 57.848C6.032 57.752 5.944 57.68 5.88 57.632C5.736 57.552 5.56 57.464 5.352 57.368C5.16 57.272 5 57.184 4.872 57.104C4.616 56.928 4.248 56.632 3.768 56.216C3.4 55.896 3.224 55.744 3.24 55.76C3.144 55.664 2.936 55.472 2.616 55.184C2.28 54.896 2 54.6 1.776 54.296C1.616 54.04 1.536 53.704 1.536 53.288C1.52 53.176 1.504 53.032 1.488 52.856C1.456 52.664 1.44 52.512 1.44 52.4C1.44 52.112 1.568 51.672 1.824 51.08C1.92 50.872 2.024 50.768 2.136 50.768C2.216 50.768 2.304 50.816 2.4 50.912C2.48 51.008 2.56 51.112 2.64 51.224C2.736 51.352 2.784 51.456 2.784 51.536C2.784 51.616 2.792 51.696 2.808 51.776C2.824 51.84 2.84 51.896 2.856 51.944C2.872 51.992 2.888 52.04 2.904 52.088C2.904 52.12 2.888 52.152 2.856 52.184C2.808 52.2 2.784 52.224 2.784 52.256C2.8 52.304 2.84 52.368 2.904 52.448C2.968 52.512 3.008 52.576 3.024 52.64L3.048 52.736C3.048 52.784 3.032 52.84 3 52.904C2.984 52.968 2.984 53.024 3 53.072C3.016 53.152 3.064 53.272 3.144 53.432C3.24 53.592 3.288 53.744 3.288 53.888C3.32 54.24 3.416 54.552 3.576 54.824C3.656 54.952 3.76 55.064 3.888 55.16C4.032 55.272 4.144 55.36 4.224 55.424C4.304 55.504 4.408 55.608 4.536 55.736C4.664 55.864 4.792 55.952 4.92 56C5.112 56.064 5.456 56.136 5.952 56.216L6.36 56.192C6.504 56.176 6.648 56.16 6.792 56.144C6.952 56.128 7.104 56.112 7.248 56.096C8.528 55.92 9.68 55.496 10.704 54.824C11.664 54.2 12.496 53.44 13.2 52.544C14.016 51.536 14.688 50.44 15.216 49.256C15.744 48.072 16.04 46.904 16.104 45.752C16.12 45.496 16.128 45.216 16.128 44.912C16.128 44.608 16.128 44.392 16.128 44.264C16.128 44.008 16.088 43.824 16.008 43.712C15.944 43.6 15.776 43.544 15.504 43.544C15.104 43.544 14.504 43.688 13.704 43.976C13.08 44.184 12.536 44.504 12.072 44.936L10.968 45.992C10.92 46.04 10.808 46.152 10.632 46.328C10.456 46.488 10.28 46.632 10.104 46.76C9.928 46.872 9.768 46.928 9.624 46.928C9.48 46.944 9.328 46.896 9.168 46.784C9.008 46.672 8.888 46.592 8.808 46.544C8.776 46.528 8.712 46.496 8.616 46.448C8.52 46.4 8.448 46.344 8.4 46.28C8.384 46.248 8.368 46.216 8.352 46.184C8.352 46.136 8.336 46.096 8.304 46.064L7.968 45.968C7.872 45.984 7.808 46.056 7.776 46.184C7.76 46.296 7.736 46.368 7.704 46.4C7.8 46.432 7.88 46.504 7.944 46.616C8.008 46.712 8.008 46.792 7.944 46.856C7.896 46.92 7.864 46.952 7.848 46.952C7.816 46.952 7.8 46.928 7.8 46.88C7.8 46.8 7.816 46.728 7.848 46.664C7.608 46.968 7.568 47.16 7.728 47.24C7.776 47.256 7.832 47.256 7.896 47.24C7.96 47.208 8.016 47.216 8.064 47.264C7.968 47.344 7.904 47.496 7.872 47.72C7.84 47.944 7.8 48.096 7.752 48.176C7.752 48.144 7.736 48.104 7.704 48.056C7.688 48.008 7.672 47.984 7.656 47.984C7.624 47.968 7.616 48.08 7.632 48.32C7.648 48.56 7.648 48.688 7.632 48.704L7.512 48.656C7.48 48.656 7.48 48.736 7.512 48.896C7.528 48.928 7.552 48.96 7.584 48.992C7.632 49.008 7.656 49.032 7.656 49.064C7.656 49.08 7.624 49.112 7.56 49.16C7.528 49.192 7.504 49.208 7.488 49.208C7.456 49.208 7.432 49.176 7.416 49.112C7.4 49.048 7.392 49.008 7.392 48.992C7.376 49.024 7.36 49.088 7.344 49.184C7.328 49.28 7.304 49.368 7.272 49.448C7.256 49.528 7.216 49.568 7.152 49.568C7.072 49.568 7.032 49.528 7.032 49.448C7.032 49.432 7.032 49.392 7.032 49.328C7.048 49.264 7.04 49.216 7.008 49.184C6.912 49.216 6.856 49.32 6.84 49.496C6.84 49.656 6.832 49.8 6.816 49.928C6.8 50.04 6.728 50.112 6.6 50.144C6.568 50.16 6.52 50.168 6.456 50.168C6.344 50.168 6.224 50.136 6.096 50.072C5.968 49.992 5.872 49.936 5.808 49.904C5.728 49.856 5.616 49.808 5.472 49.76C5.344 49.712 5.248 49.656 5.184 49.592C5.04 49.432 4.968 49.208 4.968 48.92C4.968 48.76 4.992 48.576 5.04 48.368C5.088 48.144 5.12 47.984 5.136 47.888C5.152 47.776 5.168 47.64 5.184 47.48C5.2 47.304 5.232 47.104 5.28 46.88C5.376 46.656 5.44 46.488 5.472 46.376C5.536 46.104 5.672 45.6 5.88 44.864L6.288 43.832L6.552 42.776L6.84 41.912C6.984 41.544 7.128 41.128 7.272 40.664C7.432 40.216 7.56 39.88 7.656 39.656C7.672 39.592 7.696 39.504 7.728 39.392C7.776 39.28 7.808 39.192 7.824 39.128C7.632 39.336 7.344 39.544 6.96 39.752C6.64 39.944 6.408 40.096 6.264 40.208C6.28 40.192 5.96 40.488 5.304 41.096L4.656 41.696C4.384 41.936 4.16 42.192 3.984 42.464C3.904 42.544 3.816 42.664 3.72 42.824C3.624 42.968 3.536 43.064 3.456 43.112C3.312 43.192 3.248 43.184 3.264 43.088C3.28 42.992 3.328 42.848 3.408 42.656C3.504 42.464 3.552 42.36 3.552 42.344C3.504 42.376 3.44 42.464 3.36 42.608C3.296 42.736 3.232 42.832 3.168 42.896C3.104 42.944 3.016 42.944 2.904 42.896C2.856 42.88 2.8 42.816 2.736 42.704C2.672 42.576 2.592 42.52 2.496 42.536L2.592 42.68C2.56 42.664 2.52 42.656 2.472 42.656C2.408 42.64 2.36 42.624 2.328 42.608C2.312 42.624 2.288 42.656 2.256 42.704C2.224 42.752 2.192 42.776 2.16 42.776C2.112 42.76 2.064 42.736 2.016 42.704C2.016 42.688 2 42.656 1.968 42.608C1.936 42.56 1.92 42.528 1.92 42.512C1.888 42.496 1.856 42.512 1.824 42.56C1.776 42.592 1.744 42.608 1.728 42.608C1.568 42.544 1.48 42.464 1.464 42.368C1.48 42.368 1.504 42.36 1.536 42.344C1.568 42.328 1.568 42.304 1.536 42.272C1.488 42.32 1.456 42.344 1.44 42.344C1.408 42.344 1.392 42.32 1.392 42.272L1.44 42.08C1.344 42.176 1.248 42.224 1.152 42.224C1.088 42.224 1.008 42.2 0.912 42.152C0.88 42.136 0.792 42.112 0.648 42.08C0.504 42.032 0.408 41.984 0.36 41.936C0.296 41.872 0.264 41.8 0.264 41.72C0.264 41.624 0.304 41.528 0.384 41.432C0.448 41.336 0.496 41.272 0.528 41.24C0.592 41.144 0.672 41.016 0.768 40.856C0.864 40.696 0.96 40.576 1.056 40.496C1.504 40 1.736 39.744 1.752 39.728C2.104 39.312 2.376 39.008 2.568 38.816C3.304 38.144 3.864 37.648 4.248 37.328C4.376 37.248 4.48 37.176 4.56 37.112C4.64 37.048 4.712 36.992 4.776 36.944L5.184 36.632C5.312 36.552 5.456 36.472 5.616 36.392C5.792 36.296 5.928 36.216 6.024 36.152C6.264 35.96 6.536 35.792 6.84 35.648C6.92 35.6 7 35.536 7.08 35.456C7.176 35.376 7.256 35.32 7.32 35.288C7.352 35.272 7.376 35.272 7.392 35.288C7.424 35.304 7.456 35.304 7.488 35.288L7.56 35.192L7.944 35C8.088 34.936 8.224 34.872 8.352 34.808C8.496 34.728 8.64 34.656 8.784 34.592C8.848 34.56 8.976 34.496 9.168 34.4C9.376 34.304 9.52 34.184 9.6 34.04C9.664 33.928 9.72 33.768 9.768 33.56C9.832 33.352 9.88 33.2 9.912 33.104C9.944 33.008 9.976 32.856 10.008 32.648C10.04 32.424 10.088 32.248 10.152 32.12C10.232 31.976 10.344 31.912 10.488 31.928C10.584 31.928 10.68 31.976 10.776 32.072C10.888 32.152 10.968 32.208 11.016 32.24C11.112 32.288 11.192 32.352 11.256 32.432C11.32 32.48 11.512 32.608 11.832 32.816C11.896 32.864 11.976 32.944 12.072 33.056C12.184 33.152 12.264 33.216 12.312 33.248C12.456 33.344 12.632 33.392 12.84 33.392C13.064 33.392 13.216 33.392 13.296 33.392C13.648 33.44 13.952 33.56 14.208 33.752C14.432 33.912 14.632 34.104 14.808 34.328C15 34.536 15.112 34.656 15.144 34.688L15.504 35.12L15.936 35.576C16.384 36.024 16.68 36.4 16.824 36.704C16.92 36.912 16.968 37.16 16.968 37.448C16.968 37.752 16.896 38.16 16.752 38.672C16.64 39.024 16.464 39.376 16.224 39.728C15.984 40.064 15.832 40.288 15.768 40.4C15.736 40.464 15.68 40.568 15.6 40.712C15.52 40.856 15.448 40.976 15.384 41.072C15.352 41.104 15.312 41.136 15.264 41.168C15.216 41.184 15.2 41.224 15.216 41.288C15.232 41.32 15.28 41.36 15.36 41.408C15.52 41.584 15.664 41.744 15.792 41.888C15.936 42.032 16.064 42.16 16.176 42.272L17.424 43.568C17.6 43.728 17.768 43.936 17.928 44.192C18.104 44.432 18.136 44.608 18.024 44.72C18.152 44.768 18.24 44.856 18.288 44.984C18.352 45.112 18.392 45.24 18.408 45.368C18.424 45.48 18.432 45.56 18.432 45.608L18.576 46.112C18.608 46.192 18.664 46.368 18.744 46.64C18.76 46.704 18.76 46.76 18.744 46.808C18.728 46.856 18.728 46.904 18.744 46.952V47.024C18.744 47.056 18.76 47.136 18.792 47.264C18.808 47.312 18.808 47.368 18.792 47.432C18.792 47.496 18.792 47.544 18.792 47.576ZM13.944 35.336C13.896 35.336 13.824 35.344 13.728 35.36C13.648 35.376 13.6 35.408 13.584 35.456C13.68 35.504 13.752 35.488 13.8 35.408C13.88 35.408 13.928 35.384 13.944 35.336ZM13.752 35.456C13.752 35.456 13.768 35.44 13.8 35.408L13.752 35.456ZM13.656 37.304C13.688 37.24 13.768 37.112 13.896 36.92C14.04 36.712 14.112 36.536 14.112 36.392C14.112 36.248 14.064 36.176 13.968 36.176C13.904 36.176 13.808 36.208 13.68 36.272C13.568 36.304 13.392 36.344 13.152 36.392C12.912 36.44 12.72 36.504 12.576 36.584C12.496 36.632 12.44 36.688 12.408 36.752C12.376 36.816 12.352 36.88 12.336 36.944C12.336 36.992 12.328 37.04 12.312 37.088C12.136 37.616 11.944 38.048 11.736 38.384C11.608 38.592 11.504 38.664 11.424 38.6C11.392 38.584 11.424 38.456 11.52 38.216C11.632 37.976 11.696 37.832 11.712 37.784C11.712 37.752 11.76 37.6 11.856 37.328C11.952 37.056 11.944 36.92 11.832 36.92C11.784 36.92 11.728 37.04 11.664 37.28C11.616 37.504 11.544 37.616 11.448 37.616C11.448 37.6 11.44 37.544 11.424 37.448C11.424 37.352 11.4 37.28 11.352 37.232C11.304 37.184 11.24 37.16 11.16 37.16C11.192 37.224 11.208 37.28 11.208 37.328C11.208 37.424 11.184 37.512 11.136 37.592C11.088 37.672 11.024 37.72 10.944 37.736C10.976 37.8 11.048 37.896 11.16 38.024C11.272 38.152 11.304 38.24 11.256 38.288C11.224 38.336 11.168 38.36 11.088 38.36C11.008 38.36 10.928 38.336 10.848 38.288C10.72 38.448 10.656 38.576 10.656 38.672C10.656 38.768 10.704 38.864 10.8 38.96C10.832 38.896 10.872 38.864 10.92 38.864C10.984 38.864 11.016 38.872 11.016 38.888C11.016 38.984 11.032 39.056 11.064 39.104C11.112 39.136 11.184 39.112 11.28 39.032C11.296 39.016 11.312 38.992 11.328 38.96C11.344 38.912 11.368 38.872 11.4 38.84C11.464 38.776 11.528 38.736 11.592 38.72C11.56 38.864 11.512 39.032 11.448 39.224C11.384 39.416 11.344 39.576 11.328 39.704C11.296 39.8 11.24 39.944 11.16 40.136C11.096 40.328 11.056 40.496 11.04 40.64V40.832V40.808C11.168 40.472 11.472 40.088 11.952 39.656L12.336 39.248C12.832 38.64 13.272 37.992 13.656 37.304ZM7.56 38.288C7.608 38.288 7.704 38.232 7.848 38.12C7.992 38.008 8.104 37.896 8.184 37.784C8.28 37.672 8.288 37.584 8.208 37.52C8.144 37.616 8 37.704 7.776 37.784C7.552 37.88 7.384 37.976 7.272 38.072C7.176 38.168 7.152 38.296 7.2 38.456C7.216 38.456 7.224 38.464 7.224 38.48C7.224 38.496 7.232 38.512 7.248 38.528C7.312 38.496 7.384 38.448 7.464 38.384C7.56 38.32 7.592 38.288 7.56 38.288ZM7.632 37.952C7.648 37.872 7.672 37.856 7.704 37.904C7.704 37.984 7.68 38 7.632 37.952ZM7.416 38.12C7.448 38.072 7.512 38.056 7.608 38.072C7.56 38.168 7.528 38.224 7.512 38.24C7.528 38.256 7.528 38.272 7.512 38.288C7.512 38.288 7.504 38.28 7.488 38.264L7.464 38.288V38.24C7.432 38.224 7.408 38.208 7.392 38.192C7.392 38.16 7.4 38.136 7.416 38.12ZM10.944 38.192C10.88 38.256 10.848 38.288 10.848 38.288C10.96 38.288 10.992 38.256 10.944 38.192ZM7.2 38.456C7.184 38.392 7.192 38.368 7.224 38.384C7.256 38.384 7.28 38.408 7.296 38.456C7.312 38.488 7.296 38.512 7.248 38.528L7.2 38.456ZM10.56 38.552C10.528 38.536 10.504 38.544 10.488 38.576C10.488 38.592 10.488 38.608 10.488 38.624C10.504 38.64 10.52 38.632 10.536 38.6C10.536 38.6 10.528 38.592 10.512 38.576C10.512 38.544 10.528 38.536 10.56 38.552ZM15.432 38.528C15.384 38.592 15.384 38.656 15.432 38.72C15.528 38.656 15.528 38.592 15.432 38.528ZM11.04 38.864C11.04 38.816 11.056 38.768 11.088 38.72C11.12 38.656 11.16 38.648 11.208 38.696C11.192 38.792 11.136 38.848 11.04 38.864ZM7.632 38.744C7.744 38.744 7.776 38.712 7.728 38.648C7.648 38.728 7.608 38.776 7.608 38.792C7.592 38.792 7.592 38.8 7.608 38.816C7.656 38.784 7.672 38.768 7.656 38.768C7.656 38.752 7.648 38.744 7.632 38.744ZM7.608 38.792C7.624 38.792 7.624 38.8 7.608 38.816V38.792ZM7.344 38.936C7.456 38.936 7.488 38.904 7.44 38.84C7.36 38.92 7.32 38.968 7.32 38.984C7.304 38.984 7.304 38.992 7.32 39.008C7.368 38.976 7.384 38.96 7.368 38.96C7.368 38.944 7.36 38.936 7.344 38.936ZM10.416 38.84C10.368 38.888 10.312 38.952 10.248 39.032C10.2 39.112 10.184 39.168 10.2 39.2C10.376 39.024 10.448 38.904 10.416 38.84ZM7.32 38.984C7.336 38.984 7.336 38.992 7.32 39.008V38.984ZM7.104 39.104C7.104 39.104 7.12 39.104 7.152 39.104C7.184 39.088 7.184 39.056 7.152 39.008C7.136 39.024 7.08 39.072 6.984 39.152C6.888 39.232 6.824 39.296 6.792 39.344C6.792 39.36 6.792 39.368 6.792 39.368L7.08 39.128C7.096 39.128 7.104 39.12 7.104 39.104ZM7.104 39.104L7.08 39.128L7.104 39.104ZM9.768 41.312C9.8 41.264 9.856 41.216 9.936 41.168C10.016 41.104 10.072 41.048 10.104 41C10.136 40.936 10.16 40.848 10.176 40.736C10.208 40.624 10.232 40.536 10.248 40.472C10.264 40.408 10.28 40.312 10.296 40.184C10.328 40.056 10.368 39.952 10.416 39.872C10.464 39.792 10.528 39.752 10.608 39.752C10.608 39.704 10.576 39.656 10.512 39.608C10.448 39.56 10.416 39.512 10.416 39.464C10.432 39.416 10.472 39.36 10.536 39.296C10.6 39.216 10.624 39.16 10.608 39.128C10.608 39.144 10.592 39.168 10.56 39.2C10.544 39.232 10.536 39.24 10.536 39.224C10.536 39.208 10.496 39.264 10.416 39.392C10.352 39.52 10.304 39.608 10.272 39.656C10.24 39.72 10.176 39.792 10.08 39.872C9.984 39.952 9.928 40.048 9.912 40.16C9.88 40.448 9.848 40.688 9.816 40.88C9.816 40.928 9.808 40.976 9.792 41.024C9.776 41.072 9.76 41.12 9.744 41.168C9.728 41.168 9.72 41.184 9.72 41.216C9.72 41.248 9.736 41.28 9.768 41.312ZM5.664 39.728C5.696 39.84 5.76 39.864 5.856 39.8C5.952 39.72 6.048 39.616 6.144 39.488C6.24 39.344 6.28 39.24 6.264 39.176C6.232 39.192 6.128 39.248 5.952 39.344C5.792 39.44 5.696 39.44 5.664 39.344C5.616 39.392 5.536 39.432 5.424 39.464C5.328 39.496 5.264 39.528 5.232 39.56C5.152 39.64 5.112 39.72 5.112 39.8C5.112 39.896 5.16 39.96 5.256 39.992C5.24 40.008 5.264 40.016 5.328 40.016L5.376 39.944C5.408 39.912 5.504 39.84 5.664 39.728ZM15.504 39.368C15.488 39.304 15.448 39.272 15.384 39.272C15.368 39.272 15.312 39.296 15.216 39.344C15.248 39.376 15.28 39.424 15.312 39.488C15.344 39.552 15.392 39.616 15.456 39.68L15.432 39.632C15.432 39.568 15.44 39.52 15.456 39.488C15.488 39.44 15.504 39.4 15.504 39.368ZM6.792 39.344C6.808 39.344 6.808 39.352 6.792 39.368V39.344ZM10.944 39.536C10.992 39.472 10.992 39.408 10.944 39.344C10.88 39.408 10.88 39.472 10.944 39.536ZM15.072 39.536C15.104 39.504 15.088 39.488 15.024 39.488C15.024 39.664 15.048 39.792 15.096 39.872C15.096 39.888 15.12 39.92 15.168 39.968V39.944L15.192 39.872C15.192 39.76 15.152 39.648 15.072 39.536ZM15.072 39.56C15.04 39.56 15.024 39.536 15.024 39.488C15.056 39.488 15.072 39.504 15.072 39.536V39.56ZM10.944 39.824C10.944 39.76 10.912 39.696 10.848 39.632C10.768 39.696 10.72 39.8 10.704 39.944C10.688 40.088 10.672 40.2 10.656 40.28C10.64 40.328 10.576 40.416 10.464 40.544C10.368 40.672 10.328 40.776 10.344 40.856C10.392 40.776 10.432 40.744 10.464 40.76C10.496 40.776 10.52 40.816 10.536 40.88V40.928V40.952H10.56C10.64 40.952 10.688 40.92 10.704 40.856C10.736 40.792 10.744 40.712 10.728 40.616C10.728 40.52 10.736 40.44 10.752 40.376C10.752 40.328 10.776 40.272 10.824 40.208C10.872 40.144 10.904 40.08 10.92 40.016L10.944 39.824ZM15.432 39.68L15.408 39.656L15.432 39.68ZM6.24 39.8C6.32 39.72 6.36 39.68 6.36 39.68H6.288C6.176 39.68 6.104 39.728 6.072 39.824L6.216 39.848C6.216 39.832 6.216 39.824 6.216 39.824C6.232 39.824 6.24 39.824 6.24 39.824V39.8ZM6.24 39.8C6.24 39.8 6.24 39.808 6.24 39.824C6.24 39.824 6.232 39.824 6.216 39.824H6.24C6.224 39.824 6.216 39.832 6.216 39.848C6.2 39.848 6.192 39.848 6.192 39.848C6.208 39.832 6.216 39.824 6.216 39.824L6.24 39.8ZM5.304 39.848C5.352 39.816 5.376 39.848 5.376 39.944L5.304 39.848ZM15.096 39.872C15.112 39.856 15.128 39.864 15.144 39.896C15.176 39.912 15.184 39.928 15.168 39.944V39.968L15.096 39.872ZM15.12 40.928C15.136 40.88 15.144 40.84 15.144 40.808C15.16 40.776 15.176 40.744 15.192 40.712C15.208 40.664 15.232 40.584 15.264 40.472C15.312 40.344 15.328 40.272 15.312 40.256L15.264 40.352C15.232 40.352 15.208 40.344 15.192 40.328H15.24L14.952 39.968C14.824 40.192 14.72 40.344 14.64 40.424C14.608 40.456 14.56 40.504 14.496 40.568C14.448 40.616 14.416 40.672 14.4 40.736C14.416 40.832 14.488 40.904 14.616 40.952C14.76 41 14.848 41.056 14.88 41.12C14.896 41.088 14.936 41.056 15 41.024C15.064 40.992 15.104 40.96 15.12 40.928ZM15.552 39.992C15.536 40.008 15.504 40.032 15.456 40.064C15.424 40.08 15.4 40.096 15.384 40.112C15.384 40.112 15.376 40.112 15.36 40.112C15.36 40.112 15.368 40.12 15.384 40.136C15.416 40.104 15.44 40.088 15.456 40.088H15.432H15.456C15.568 40.088 15.6 40.056 15.552 39.992ZM5.304 39.992C5.32 39.992 5.328 40 5.328 40.016H5.304C5.272 40.016 5.256 40.008 5.256 39.992H5.304ZM4.536 40.136C4.536 40.152 4.576 40.176 4.656 40.208C4.736 40.224 4.784 40.248 4.8 40.28L4.968 40.016L4.824 39.992C4.648 39.992 4.552 40.024 4.536 40.088V40.136ZM5.592 40.376C5.656 40.36 5.704 40.312 5.736 40.232C5.784 40.152 5.816 40.096 5.832 40.064L5.76 40.04C5.696 40.04 5.64 40.072 5.592 40.136C5.56 40.2 5.552 40.264 5.568 40.328L5.592 40.376ZM15.384 40.136V40.112V40.136ZM3.84 41.576C4.016 41.288 4.216 41.008 4.44 40.736L4.8 40.28C4.768 40.28 4.72 40.296 4.656 40.328C4.608 40.344 4.568 40.36 4.536 40.376C4.504 40.376 4.456 40.384 4.392 40.4C4.328 40.4 4.28 40.416 4.248 40.448C4.216 40.48 4.224 40.528 4.272 40.592C4.224 40.64 4.128 40.664 3.984 40.664C3.856 40.664 3.76 40.696 3.696 40.76C3.632 40.824 3.6 40.896 3.6 40.976C3.6 41.088 3.68 41.184 3.84 41.264C3.824 41.296 3.752 41.384 3.624 41.528C3.496 41.656 3.392 41.72 3.312 41.72C3.248 41.72 3.224 41.64 3.24 41.48C3.176 41.496 3.12 41.552 3.072 41.648C3.024 41.728 2.984 41.776 2.952 41.792C3.048 41.84 3.096 41.88 3.096 41.912C3.096 41.928 3.072 41.96 3.024 42.008C2.976 42.04 2.944 42.08 2.928 42.128V42.2C2.928 42.296 2.96 42.368 3.024 42.416C3.088 42.448 3.16 42.432 3.24 42.368C3.288 42.336 3.32 42.28 3.336 42.2C3.352 42.104 3.368 42.04 3.384 42.008C3.544 41.816 3.648 41.704 3.696 41.672C3.712 41.688 3.72 41.72 3.72 41.768C3.72 41.848 3.704 41.928 3.672 42.008C3.64 42.088 3.632 42.144 3.648 42.176C3.664 42.208 3.712 42.208 3.792 42.176C3.744 42.16 3.712 42.136 3.696 42.104C3.68 42.056 3.68 42.016 3.696 41.984C3.792 42 3.824 42.064 3.792 42.176L3.84 42.152C3.904 42.12 3.992 42.024 4.104 41.864C4.216 41.704 4.288 41.624 4.32 41.624C4.384 41.608 4.4 41.568 4.368 41.504C4.304 41.584 4.248 41.632 4.2 41.648C4.152 41.648 4.08 41.632 3.984 41.6C4.096 41.6 4.128 41.568 4.08 41.504C4 41.632 3.92 41.656 3.84 41.576ZM4.176 40.328C4.224 40.312 4.224 40.304 4.176 40.304C4.128 40.288 4.112 40.288 4.128 40.304L4.176 40.328ZM5.568 40.328C5.568 40.28 5.584 40.272 5.616 40.304C5.648 40.336 5.64 40.36 5.592 40.376L5.568 40.328ZM5.136 40.52C5.104 40.456 5.08 40.464 5.064 40.544C5.096 40.592 5.12 40.584 5.136 40.52ZM14.712 40.52C14.792 40.584 14.8 40.648 14.736 40.712C14.672 40.648 14.664 40.584 14.712 40.52ZM11.04 40.64C11.04 40.624 11.04 40.608 11.04 40.592C11.056 40.576 11.064 40.568 11.064 40.568C11.08 40.568 11.088 40.592 11.088 40.64C11.088 40.688 11.072 40.744 11.04 40.808V40.832V40.64ZM5.232 40.712C5.232 40.712 5.248 40.704 5.28 40.688C5.312 40.656 5.312 40.624 5.28 40.592C5.248 40.624 5.152 40.688 4.992 40.784C4.848 40.88 4.808 40.96 4.872 41.024L5.136 40.808C5.152 40.776 5.168 40.752 5.184 40.736C5.2 40.72 5.216 40.712 5.232 40.712ZM14.784 40.928C14.736 40.88 14.736 40.848 14.784 40.832C14.784 40.832 14.784 40.848 14.784 40.88C14.8 40.896 14.8 40.912 14.784 40.928ZM10.56 40.928C10.56 40.944 10.552 40.952 10.536 40.952V40.928V40.88C10.536 40.848 10.536 40.848 10.536 40.88C10.552 40.896 10.56 40.912 10.56 40.928ZM10.176 41.624C10.352 41.512 10.44 41.376 10.44 41.216C10.44 41.152 10.416 41.088 10.368 41.024C10.304 41.12 10.24 41.24 10.176 41.384C10.128 41.512 10.104 41.616 10.104 41.696L10.248 41.576L10.176 41.624ZM9.744 41.168C9.776 41.152 9.792 41.16 9.792 41.192C9.808 41.224 9.8 41.264 9.768 41.312C9.752 41.296 9.744 41.248 9.744 41.168ZM9.624 41.48C9.688 41.48 9.696 41.456 9.648 41.408C9.584 41.424 9.576 41.448 9.624 41.48ZM9.264 41.768C9.2 41.784 9.152 41.832 9.12 41.912C9.104 41.992 9.104 42.064 9.12 42.128C9.152 42.176 9.192 42.184 9.24 42.152C9.256 42.088 9.28 42.008 9.312 41.912C9.344 41.816 9.36 41.744 9.36 41.696C9.312 41.744 9.28 41.768 9.264 41.768ZM9.264 41.768H9.288H9.264ZM9.408 42.224C9.504 42.192 9.552 42.112 9.552 41.984C9.408 42.032 9.344 42.112 9.36 42.224V42.248C9.392 42.248 9.408 42.24 9.408 42.224ZM1.704 42.176C1.816 42.112 1.856 42.056 1.824 42.008C1.824 42.056 1.808 42.08 1.776 42.08H1.8C1.784 42.096 1.768 42.104 1.752 42.104C1.72 42.104 1.696 42.112 1.68 42.128L1.704 42.176ZM1.68 42.128C1.696 42.128 1.712 42.136 1.728 42.152C1.728 42.152 1.72 42.16 1.704 42.176L1.68 42.128ZM9.408 42.224C9.408 42.24 9.4 42.248 9.384 42.248H9.36V42.224C9.36 42.208 9.368 42.2 9.384 42.2C9.4 42.2 9.408 42.208 9.408 42.224ZM9.024 42.344C9.072 42.296 9.072 42.264 9.024 42.248C9.008 42.248 9 42.256 9 42.272C9 42.272 8.992 42.272 8.976 42.272C8.976 42.272 8.976 42.28 8.976 42.296L9.024 42.344ZM9 42.272C9 42.272 9 42.28 9 42.296C9 42.312 8.992 42.312 8.976 42.296L9 42.272ZM9.192 42.32C9.224 42.336 9.248 42.336 9.264 42.32C9.248 42.304 9.216 42.296 9.168 42.296C9.136 42.296 9.144 42.304 9.192 42.32ZM9.864 46.496C9.912 46.448 10.104 46.288 10.44 46.016C10.792 45.728 10.944 45.552 10.896 45.488L10.848 45.56C10.72 45.56 10.528 45.704 10.272 45.992C10.032 46.28 9.896 46.448 9.864 46.496ZM17.568 49.664C17.488 49.728 17.472 49.792 17.52 49.856C17.584 49.792 17.6 49.728 17.568 49.664ZM17.952 50.288C18.016 50.256 18.04 50.208 18.024 50.144C18.008 50.064 17.96 50.04 17.88 50.072L17.856 50.048V50.096C17.856 50.192 17.864 50.256 17.88 50.288V50.312C17.912 50.312 17.928 50.312 17.928 50.312C17.944 50.296 17.952 50.288 17.952 50.288ZM17.856 50.096C17.84 50.096 17.832 50.096 17.832 50.096C17.848 50.08 17.864 50.072 17.88 50.072C17.896 50.088 17.888 50.096 17.856 50.096ZM17.88 50.288C17.88 50.272 17.888 50.264 17.904 50.264C17.936 50.264 17.952 50.272 17.952 50.288L17.88 50.312V50.288ZM17.568 51.104C17.584 51.088 17.584 51.072 17.568 51.056C17.568 51.024 17.568 51.008 17.568 51.008C17.536 51.024 17.528 51.056 17.544 51.104H17.568ZM16.344 51.104V51.128C16.376 51.144 16.408 51.136 16.44 51.104C16.44 51.056 16.416 51.048 16.368 51.08L16.344 51.104ZM17.544 51.104C17.528 51.088 17.528 51.08 17.544 51.08C17.56 51.08 17.568 51.088 17.568 51.104H17.544ZM16.344 51.128V51.104C16.36 51.104 16.368 51.096 16.368 51.08L16.344 51.128ZM17.4 51.704C17.416 51.688 17.424 51.664 17.424 51.632C17.44 51.584 17.44 51.536 17.424 51.488C17.344 51.52 17.264 51.616 17.184 51.776C17.12 51.92 17.08 52 17.064 52.016L17.424 51.656L17.4 51.704ZM16.68 53C16.712 52.92 16.784 52.8 16.896 52.64C17.024 52.48 17.072 52.344 17.04 52.232C17.024 52.2 16.992 52.176 16.944 52.16C16.896 52.128 16.864 52.104 16.848 52.088V52.064C16.848 52.016 16.856 51.976 16.872 51.944C16.904 51.912 16.92 51.872 16.92 51.824C16.92 51.792 16.912 51.768 16.896 51.752C16.88 51.72 16.864 51.704 16.848 51.704C16.784 51.704 16.68 51.84 16.536 52.112C16.376 52.384 16.288 52.552 16.272 52.616C16.24 52.712 16.224 52.792 16.224 52.856C16.192 52.856 16.184 52.848 16.2 52.832C16.152 52.848 16.112 52.904 16.08 53C16.064 53.096 16.04 53.16 16.008 53.192C15.976 53.24 15.912 53.288 15.816 53.336C15.736 53.384 15.68 53.448 15.648 53.528C15.632 53.576 15.608 53.632 15.576 53.696C15.56 53.776 15.512 53.848 15.432 53.912C15.4 53.928 15.352 53.936 15.288 53.936C15.24 53.952 15.216 54.008 15.216 54.104L15.168 54.08C15.12 54.08 15.08 54.128 15.048 54.224C15.016 54.32 14.984 54.392 14.952 54.44C14.904 54.52 14.848 54.624 14.784 54.752C14.72 54.88 14.64 54.992 14.544 55.088C14.592 55.136 14.64 55.16 14.688 55.16C14.752 55.16 14.808 55.12 14.856 55.04C14.904 54.96 14.936 54.904 14.952 54.872C15.016 54.776 15.072 54.712 15.12 54.68C15.184 54.664 15.192 54.72 15.144 54.848C15.128 54.88 15.104 54.904 15.072 54.92C15.056 54.936 15.04 54.96 15.024 54.992C15.008 55.024 15 55.056 15 55.088C15.016 55.12 15.016 55.152 15 55.184C14.968 55.328 14.912 55.44 14.832 55.52C14.816 55.536 14.736 55.608 14.592 55.736C14.464 55.864 14.48 55.92 14.64 55.904H14.664L14.712 55.88C14.808 55.816 14.896 55.712 14.976 55.568C15.072 55.424 15.144 55.32 15.192 55.256C15.288 55.16 15.408 55.04 15.552 54.896C15.696 54.752 15.808 54.624 15.888 54.512C15.968 54.384 16.048 54.248 16.128 54.104C16.208 53.96 16.304 53.816 16.416 53.672C16.48 53.592 16.528 53.472 16.56 53.312C16.592 53.168 16.632 53.064 16.68 53ZM17.376 52.04C17.424 51.992 17.432 51.936 17.4 51.872C17.288 51.952 17.28 52.008 17.376 52.04ZM16.512 52.856C16.528 52.76 16.552 52.752 16.584 52.832C16.584 52.896 16.56 52.904 16.512 52.856ZM16.248 52.904C16.376 52.984 16.44 53.08 16.44 53.192C16.44 53.32 16.384 53.464 16.272 53.624C16.224 53.704 16.12 53.856 15.96 54.08C15.816 54.304 15.688 54.44 15.576 54.488C15.48 54.392 15.464 54.36 15.528 54.392V54.368C15.528 54.32 15.56 54.24 15.624 54.128C15.704 54.016 15.712 53.92 15.648 53.84C15.76 53.824 15.84 53.784 15.888 53.72C15.936 53.656 15.992 53.552 16.056 53.408C16.136 53.28 16.216 53.192 16.296 53.144C16.264 53.112 16.24 53.064 16.224 53C16.208 52.92 16.216 52.888 16.248 52.904ZM15.816 53.024C15.816 52.944 15.792 52.928 15.744 52.976C15.776 53.056 15.8 53.072 15.816 53.024ZM15.312 54.728C15.296 54.712 15.312 54.704 15.36 54.704C15.408 54.72 15.408 54.736 15.36 54.752L15.312 54.728ZM13.296 55.808C13.312 55.792 13.344 55.76 13.392 55.712C13.44 55.68 13.488 55.64 13.536 55.592L13.464 55.568C13.4 55.568 13.344 55.592 13.296 55.64C13.264 55.688 13.248 55.744 13.248 55.808V55.856C13.28 55.84 13.296 55.824 13.296 55.808C13.312 55.792 13.312 55.792 13.296 55.808ZM13.248 55.808C13.248 55.76 13.256 55.736 13.272 55.736C13.304 55.752 13.312 55.776 13.296 55.808L13.248 55.856V55.808ZM14.712 55.88L14.664 55.904H14.64L14.712 55.88ZM13.8 55.904C13.848 55.904 13.872 55.936 13.872 56C13.872 56.112 13.856 56.2 13.824 56.264C13.824 56.296 13.816 56.336 13.8 56.384C13.8 56.432 13.76 56.488 13.68 56.552C13.616 56.6 13.544 56.64 13.464 56.672C13.4 56.72 13.336 56.768 13.272 56.816L13.248 56.72C13.248 56.672 13.264 56.648 13.296 56.648C13.312 56.616 13.368 56.568 13.464 56.504C13.576 56.456 13.648 56.408 13.68 56.36C13.696 56.344 13.704 56.32 13.704 56.288C13.704 56.256 13.696 56.216 13.68 56.168C13.664 56.12 13.664 56.08 13.68 56.048C13.696 56 13.72 55.968 13.752 55.952C13.784 55.936 13.8 55.912 13.8 55.88C13.816 55.88 13.816 55.88 13.8 55.88C13.8 55.896 13.8 55.904 13.8 55.904ZM13.368 56.36C13.368 56.44 13.344 56.456 13.296 56.408C13.312 56.328 13.336 56.312 13.368 56.36ZM13.104 56.984L12.936 56.96C12.984 56.88 13.04 56.832 13.104 56.816C13.136 56.848 13.152 56.912 13.152 57.008L13.104 56.984ZM12.048 56.96C12.016 56.944 12 56.92 12 56.888C12.016 56.872 12.032 56.864 12.048 56.864L12.072 56.912L12.048 56.96ZM12.744 57.104C12.728 57.152 12.672 57.208 12.576 57.272C12.496 57.272 12.456 57.248 12.456 57.2C12.456 57.152 12.488 57.112 12.552 57.08C12.616 57.064 12.68 57.072 12.744 57.104ZM13.128 57.152C13.144 57.136 13.16 57.136 13.176 57.152C13.208 57.184 13.224 57.208 13.224 57.224C13.224 57.272 13.192 57.304 13.128 57.32C13.08 57.352 13.016 57.36 12.936 57.344H12.888C12.968 57.216 13.048 57.152 13.128 57.152ZM11.688 57.368C11.752 57.368 11.784 57.4 11.784 57.464C11.784 57.512 11.76 57.568 11.712 57.632C11.664 57.712 11.608 57.76 11.544 57.776H11.472L11.496 57.728C11.496 57.664 11.512 57.576 11.544 57.464C11.576 57.368 11.624 57.336 11.688 57.368ZM12.768 57.368C12.816 57.384 12.816 57.416 12.768 57.464L12.744 57.44C12.744 57.456 12.736 57.448 12.72 57.416C12.736 57.416 12.712 57.416 12.648 57.416C12.6 57.416 12.64 57.4 12.768 57.368ZM10.416 57.56C10.464 57.608 10.488 57.592 10.488 57.512C10.456 57.464 10.432 57.48 10.416 57.56ZM10.08 58.184C10.096 58.04 10.136 57.968 10.2 57.968C10.232 57.968 10.256 57.976 10.272 57.992C10.288 58.024 10.296 58.056 10.296 58.088C10.296 58.2 10.224 58.248 10.08 58.232V58.184Z" fill="#1F517B"/>
<path d="M46.728 33.872C46.792 33.92 46.808 33.984 46.776 34.064C46.776 34.08 46.76 34.096 46.728 34.112C46.696 34.128 46.672 34.144 46.656 34.16C46.624 34.336 46.544 34.536 46.416 34.76C46.368 34.872 46.328 35.048 46.296 35.288C46.264 35.512 46.232 35.664 46.2 35.744L45.936 36.752L45.816 37.208L45.672 37.592C45.656 37.656 45.648 37.728 45.648 37.808C45.648 37.872 45.648 37.92 45.648 37.952C45.632 38.032 45.6 38.096 45.552 38.144C45.52 38.192 45.488 38.24 45.456 38.288L45.408 38.552C45.392 38.568 45.368 38.608 45.336 38.672C45.304 38.72 45.288 38.752 45.288 38.768C45.272 38.8 45.264 38.848 45.264 38.912L45.288 39.224C45.272 39.464 45.2 39.808 45.072 40.256L44.928 40.76C44.896 40.952 44.88 41.112 44.88 41.24C44.88 41.432 44.856 41.624 44.808 41.816C44.792 41.848 44.768 41.88 44.736 41.912C44.72 41.944 44.704 41.976 44.688 42.008V42.176C44.688 42.304 44.656 42.512 44.592 42.8C44.56 42.928 44.528 43.088 44.496 43.28C44.48 43.408 44.44 43.56 44.376 43.736C44.328 43.912 44.304 44.064 44.304 44.192C44.304 44.352 44.288 44.504 44.256 44.648C44.224 44.792 44.168 44.944 44.088 45.104C44.12 45.104 44.168 45.136 44.232 45.2C44.216 45.2 44.16 45.224 44.064 45.272C44.128 45.32 44.16 45.392 44.16 45.488C44.16 45.536 44.136 45.632 44.088 45.776C44.088 45.808 44.072 45.84 44.04 45.872C44.008 45.904 43.992 45.936 43.992 45.968C43.992 46 44 46.04 44.016 46.088C44.048 46.136 44.064 46.176 44.064 46.208C44.064 46.304 44.056 46.4 44.04 46.496C44.024 46.576 44.016 46.664 44.016 46.76V46.808C44.016 46.872 44.024 46.944 44.04 47.024C44.056 47.088 44.064 47.16 44.064 47.24C44.064 47.32 44.04 47.384 43.992 47.432C44.056 47.432 44.088 47.464 44.088 47.528C44.088 47.592 44.064 47.664 44.016 47.744C43.984 47.808 43.944 47.856 43.896 47.888C43.96 47.936 43.992 48 43.992 48.08C43.992 48.16 43.992 48.208 43.992 48.224C43.96 48.192 43.928 48.176 43.896 48.176C43.88 48.16 43.864 48.152 43.848 48.152C43.816 48.216 43.816 48.296 43.848 48.392C43.848 48.424 43.864 48.44 43.896 48.44C43.944 48.424 43.976 48.44 43.992 48.488V48.56C43.992 48.672 43.984 48.752 43.968 48.8V49.136C43.968 49.456 43.944 49.672 43.896 49.784C43.88 49.816 43.848 49.848 43.8 49.88C43.768 49.912 43.752 49.944 43.752 49.976C43.736 50.024 43.736 50.056 43.752 50.072C43.784 50.088 43.808 50.096 43.824 50.096C43.824 50.128 43.824 50.16 43.824 50.192C43.84 50.224 43.856 50.248 43.872 50.264C43.888 50.392 43.88 50.632 43.848 50.984L43.824 51.488C43.76 51.456 43.72 51.44 43.704 51.44C43.672 51.44 43.656 51.472 43.656 51.536C43.656 51.632 43.68 51.752 43.728 51.896C43.744 51.944 43.768 52.008 43.8 52.088C43.832 52.152 43.848 52.208 43.848 52.256C43.848 52.352 43.792 52.424 43.68 52.472C43.68 52.488 43.696 52.496 43.728 52.496C43.776 52.496 43.8 52.512 43.8 52.544L43.848 52.976L43.872 53.576C43.872 53.704 43.864 53.784 43.848 53.816C43.832 53.848 43.8 53.864 43.752 53.864C43.704 53.88 43.672 53.896 43.656 53.912C43.64 53.928 43.632 53.96 43.632 54.008C43.648 54.072 43.656 54.12 43.656 54.152C43.656 54.232 43.648 54.344 43.632 54.488C43.632 54.648 43.608 54.776 43.56 54.872C43.544 54.872 43.512 54.848 43.464 54.8C43.416 54.752 43.376 54.72 43.344 54.704C43.408 54.656 43.432 54.6 43.416 54.536C43.336 54.536 43.28 54.544 43.248 54.56C43.232 54.592 43.232 54.64 43.248 54.704C43.264 54.768 43.264 54.816 43.248 54.848C43.2 55.024 43.112 55.176 42.984 55.304C42.92 55.208 42.888 55.08 42.888 54.92C42.888 54.76 42.88 54.632 42.864 54.536C42.8 54.584 42.768 54.696 42.768 54.872V55.256C42.768 55.448 42.72 55.552 42.624 55.568C42.624 55.52 42.616 55.48 42.6 55.448L42.624 55.736C42.624 56.104 42.536 56.216 42.36 56.072C42.312 56.104 42.256 56.224 42.192 56.432C42.144 56.656 42.088 56.8 42.024 56.864C41.912 56.928 41.904 56.928 42 56.864L41.904 56.888C41.744 56.888 41.6 56.84 41.472 56.744C41.344 56.648 41.344 56.552 41.472 56.456C41.376 56.392 41.312 56.312 41.28 56.216C41.264 56.12 41.256 56.024 41.256 55.928C41.272 55.832 41.28 55.76 41.28 55.712C41.28 55.584 41.264 55.408 41.232 55.184L41.208 54.704C41.144 53.776 41.112 53.088 41.112 52.64C41.112 52.528 41.12 52.416 41.136 52.304C41.152 52.176 41.16 52.064 41.16 51.968L41.232 51.896L41.16 51.776L41.136 51.56C41.12 51.48 41.112 51.352 41.112 51.176L41.136 50.384C41.136 50.4 41.144 50.392 41.16 50.36C41.192 50.328 41.208 50.304 41.208 50.288C41.208 50.256 41.2 50.224 41.184 50.192C41.168 50.144 41.16 50.104 41.16 50.072C41.16 50.008 41.184 49.736 41.232 49.256C41.264 49.032 41.296 48.664 41.328 48.152L41.4 47.312C41.416 47.168 41.424 46.952 41.424 46.664C41.424 46.232 41.456 45.856 41.52 45.536C41.536 45.472 41.56 45.368 41.592 45.224C41.624 45.064 41.648 44.912 41.664 44.768C41.68 44.704 41.704 44.6 41.736 44.456C41.768 44.312 41.784 44.192 41.784 44.096C41.784 43.984 41.768 43.912 41.736 43.88C41.688 43.896 41.632 43.928 41.568 43.976C41.52 44.008 41.472 44.032 41.424 44.048L41.208 44.072C41.144 44.12 41.112 44.184 41.112 44.264C41.112 44.344 41.096 44.416 41.064 44.48C41 44.64 40.864 44.776 40.656 44.888C40.448 45 40.192 45.104 39.888 45.2C39.824 45.216 39.736 45.232 39.624 45.248C39.512 45.264 39.432 45.288 39.384 45.32C39.304 45.384 39.24 45.576 39.192 45.896C39.144 46.072 39.048 46.264 38.904 46.472C38.824 46.568 38.776 46.656 38.76 46.736C38.744 46.8 38.736 46.904 38.736 47.048C38.72 47.336 38.632 47.736 38.472 48.248L38.304 48.776L38.136 49.4C38.008 49.784 37.912 50.168 37.848 50.552L37.728 51.08C37.696 51.144 37.656 51.208 37.608 51.272C37.576 51.32 37.552 51.368 37.536 51.416C37.52 51.464 37.504 51.544 37.488 51.656C37.488 51.752 37.456 51.832 37.392 51.896C37.392 51.8 37.376 51.776 37.344 51.824C37.36 51.84 37.368 51.856 37.368 51.872C37.368 51.888 37.376 51.896 37.392 51.896C37.36 51.944 37.296 51.992 37.2 52.04C37.12 52.072 37.064 52.128 37.032 52.208C37 52.032 36.952 51.92 36.888 51.872C36.824 51.808 36.704 51.792 36.528 51.824C36.544 51.84 36.552 51.864 36.552 51.896C36.552 51.976 36.496 52.04 36.384 52.088C36.288 52.136 36.232 52.16 36.216 52.16C36.2 52.176 36.136 52.2 36.024 52.232C35.928 52.264 35.88 52.336 35.88 52.448C35.848 52.416 35.792 52.4 35.712 52.4C35.664 52.4 35.616 52.408 35.568 52.424C35.52 52.44 35.48 52.448 35.448 52.448C35.368 52.448 35.32 52.392 35.304 52.28C35.272 52.296 35.232 52.328 35.184 52.376C35.136 52.424 35.088 52.408 35.04 52.328C35.056 52.344 35.072 52.304 35.088 52.208C35.12 52.112 35.136 52.04 35.136 51.992C35.152 51.928 35.16 51.832 35.16 51.704L35.136 51.176C35.136 51.064 35.2 50.664 35.328 49.976C35.408 49.576 35.576 48.976 35.832 48.176C35.88 48 35.944 47.792 36.024 47.552C36.104 47.296 36.184 47 36.264 46.664C36.2 46.712 36.104 46.76 35.976 46.808C35.864 46.84 35.784 46.864 35.736 46.88C35.72 46.896 35.696 46.904 35.664 46.904C35.584 46.904 35.512 46.936 35.448 47C35.4 47.064 35.36 47.112 35.328 47.144C35.232 47.192 35.12 47.216 34.992 47.216C34.832 47.216 34.712 47.184 34.632 47.12C34.584 47.088 34.52 47.024 34.44 46.928C34.36 46.832 34.288 46.768 34.224 46.736L33.84 46.616C33.808 46.6 33.744 46.584 33.648 46.568C33.568 46.552 33.52 46.536 33.504 46.52C33.488 46.504 33.472 46.472 33.456 46.424C33.44 46.36 33.424 46.32 33.408 46.304C33.376 46.288 33.344 46.28 33.312 46.28C33.28 46.264 33.248 46.248 33.216 46.232C33.2 46.216 33.144 46.168 33.048 46.088C32.952 46.008 32.864 45.976 32.784 45.992C32.848 45.816 32.976 45.656 33.168 45.512C33.36 45.368 33.544 45.272 33.72 45.224C33.768 45.208 33.84 45.184 33.936 45.152C34.048 45.12 34.152 45.072 34.248 45.008L34.896 44.624C35.12 44.512 35.568 44.344 36.24 44.12C36.32 44.088 36.408 44.056 36.504 44.024C36.6 43.976 36.712 43.928 36.84 43.88C36.872 43.864 36.928 43.856 37.008 43.856C37.088 43.84 37.144 43.824 37.176 43.808C37.288 43.744 37.36 43.608 37.392 43.4C37.424 43.176 37.456 43.032 37.488 42.968C37.504 42.92 37.528 42.888 37.56 42.872C37.592 42.84 37.616 42.8 37.632 42.752C37.648 42.72 37.656 42.688 37.656 42.656C37.656 42.608 37.664 42.568 37.68 42.536C37.68 42.52 37.688 42.52 37.704 42.536C37.736 42.536 37.76 42.536 37.776 42.536V42.272C37.792 42.192 37.816 42.152 37.848 42.152C37.896 42.152 37.928 42.136 37.944 42.104C38.184 41.72 38.32 41.496 38.352 41.432C38.4 41.336 38.504 41.088 38.664 40.688C38.696 40.608 38.752 40.464 38.832 40.256C38.928 40.048 39.024 39.864 39.12 39.704C39.152 39.64 39.208 39.552 39.288 39.44C39.384 39.328 39.448 39.24 39.48 39.176C39.528 39.096 39.56 39.024 39.576 38.96C39.608 38.88 39.648 38.8 39.696 38.72C39.744 38.672 39.8 38.616 39.864 38.552C39.928 38.488 39.976 38.432 40.008 38.384C40.024 38.368 40.024 38.344 40.008 38.312C40.008 38.264 40.008 38.232 40.008 38.216C40.024 38.184 40.04 38.152 40.056 38.12C40.072 38.072 40.104 38.024 40.152 37.976L40.512 37.448L40.848 36.92C40.912 36.824 40.96 36.744 40.992 36.68C41.024 36.6 41.048 36.536 41.064 36.488C41.096 36.424 41.152 36.36 41.232 36.296C41.312 36.216 41.376 36.152 41.424 36.104C41.52 35.96 41.608 35.832 41.688 35.72C41.768 35.608 41.84 35.504 41.904 35.408C42.064 35.184 42.232 34.952 42.408 34.712C42.584 34.456 42.76 34.248 42.936 34.088C43.256 33.8 43.592 33.536 43.944 33.296C44.168 33.168 44.344 33.104 44.472 33.104C44.568 33.104 44.736 33.144 44.976 33.224C45.2 33.32 45.368 33.4 45.48 33.464C45.816 33.608 46.024 33.696 46.104 33.728L46.704 33.896L46.728 33.872ZM42.648 39.176C42.664 39.112 42.704 38.992 42.768 38.816C42.832 38.624 42.832 38.48 42.768 38.384C42.704 38.384 42.632 38.464 42.552 38.624C42.488 38.768 42.44 38.856 42.408 38.888C42.36 38.952 42.312 39.032 42.264 39.128C42.216 39.224 42.176 39.296 42.144 39.344C42.112 39.376 42.056 39.44 41.976 39.536C41.896 39.632 41.856 39.688 41.856 39.704C41.904 39.72 41.928 39.744 41.928 39.776C41.944 39.808 41.92 39.848 41.856 39.896L41.712 40.136L41.448 40.568L40.896 41.6C40.768 41.824 40.68 42.008 40.632 42.152C40.584 42.216 40.56 42.296 40.56 42.392L40.464 42.44C40.432 42.504 40.4 42.584 40.368 42.68C40.352 42.776 40.32 42.872 40.272 42.968C40.336 42.952 40.432 42.936 40.56 42.92C40.688 42.904 40.792 42.896 40.872 42.896C41 42.88 41.184 42.872 41.424 42.872C41.68 42.856 41.84 42.792 41.904 42.68C41.968 42.568 42.032 42.36 42.096 42.056C42.16 41.656 42.288 41.008 42.48 40.112C42.528 39.904 42.584 39.592 42.648 39.176ZM44.208 39.992C44.224 39.928 44.216 39.864 44.184 39.8C44.168 39.848 44.152 39.888 44.136 39.92C44.136 39.952 44.16 39.976 44.208 39.992ZM43.944 41.456C43.96 41.344 43.968 41.264 43.968 41.216C43.968 41.168 43.952 41.136 43.92 41.12L43.896 41.216C43.896 41.248 43.912 41.328 43.944 41.456ZM43.872 41.84C43.904 41.744 43.92 41.68 43.92 41.648L43.872 41.456C43.84 41.536 43.824 41.6 43.824 41.648C43.824 41.696 43.84 41.76 43.872 41.84ZM43.824 42.104C43.84 42.072 43.832 42.064 43.8 42.08C43.784 42.08 43.768 42.08 43.752 42.08C43.752 42.08 43.768 42.096 43.8 42.128L43.824 42.104ZM43.8 42.128C43.8 42.112 43.8 42.104 43.8 42.104C43.816 42.104 43.824 42.104 43.824 42.104L43.8 42.128ZM43.704 43.856C43.752 43.824 43.752 43.8 43.704 43.784V43.856ZM44.112 44.144C44.112 44.128 44.12 44.112 44.136 44.096C44.152 44.08 44.144 44.064 44.112 44.048C44.064 44.064 44.064 44.096 44.112 44.144ZM43.2 45.08C43.2 45.096 43.216 45.104 43.248 45.104C43.248 45.072 43.24 45.056 43.224 45.056C43.208 45.04 43.2 45.048 43.2 45.08ZM43.704 52.808C43.672 52.84 43.664 52.872 43.68 52.904C43.68 52.92 43.688 52.928 43.704 52.928C43.72 52.928 43.728 52.92 43.728 52.904C43.76 52.872 43.752 52.84 43.704 52.808ZM43.104 53C43.104 52.92 43.096 52.872 43.08 52.856L43.104 53ZM43.728 52.904L43.704 52.928L43.68 52.904H43.728ZM43.704 52.976C43.656 53.008 43.656 53.032 43.704 53.048C43.752 53.032 43.752 53.008 43.704 52.976ZM43.416 54.392C43.416 54.312 43.424 54.216 43.44 54.104C43.456 54.008 43.464 53.912 43.464 53.816C43.464 53.656 43.44 53.552 43.392 53.504C43.392 53.52 43.384 53.592 43.368 53.72C43.352 53.864 43.344 54 43.344 54.128C43.344 54.32 43.368 54.416 43.416 54.416V54.392ZM43.752 53.744C43.736 53.712 43.712 53.688 43.68 53.672C43.648 53.656 43.624 53.656 43.608 53.672C43.624 53.688 43.64 53.704 43.656 53.72C43.688 53.752 43.72 53.76 43.752 53.744ZM42.456 53.696C42.424 53.696 42.408 53.704 42.408 53.72C42.424 53.736 42.432 53.744 42.432 53.744C42.512 53.744 42.52 53.728 42.456 53.696ZM42.408 54.248C42.408 54.184 42.4 54.144 42.384 54.128C42.304 54.144 42.28 54.16 42.312 54.176C42.36 54.208 42.392 54.232 42.408 54.248ZM42.816 54.32C42.816 54.352 42.832 54.352 42.864 54.32C42.848 54.304 42.824 54.272 42.792 54.224C42.776 54.192 42.76 54.184 42.744 54.2C42.76 54.2 42.776 54.2 42.792 54.2C42.808 54.216 42.808 54.232 42.792 54.248C42.792 54.296 42.8 54.32 42.816 54.32ZM42.816 54.32C42.848 54.32 42.864 54.32 42.864 54.32C42.832 54.32 42.816 54.32 42.816 54.32ZM42.552 54.392C42.488 54.408 42.456 54.456 42.456 54.536C42.456 54.6 42.48 54.672 42.528 54.752C42.576 54.832 42.608 54.848 42.624 54.8C42.624 54.72 42.616 54.624 42.6 54.512C42.584 54.416 42.568 54.376 42.552 54.392ZM42.6 55.304C42.632 55.256 42.632 55.216 42.6 55.184C42.568 55.232 42.56 55.256 42.576 55.256C42.592 55.272 42.6 55.288 42.6 55.304Z" fill="#1F517B"/>
</svg>
