<svg width="36" height="36" viewBox="0 0 36 36" fill="none" xmlns="http://www.w3.org/2000/svg">
<path d="M11.4001 12.0449C11.8201 12.5999 12.7351 13.665 14.2801 14.4C15.5701 15 16.7251 15.105 17.4001 15.105C17.3551 13.485 18.3151 12.0299 19.7701 11.4749C21.0451 10.9799 22.5301 11.2649 23.5801 12.2099C24.2851 12.1949 24.9901 12.165 25.6951 12.15C25.3051 12.69 24.9001 13.2299 24.5101 13.7549C25.3501 17.0699 24.4201 20.5349 22.0351 22.6649C18.9751 25.4099 13.9951 25.5299 10.3501 22.6799C10.6201 22.7249 10.8601 22.7399 11.0851 22.7249C12.8101 22.6499 13.9951 21.2849 14.3551 20.8199C13.7101 20.2799 12.7351 19.2899 12.0301 17.7899C10.8301 15.2549 11.2051 12.8999 11.4001 12.0449Z" stroke="#333439" stroke-width="2" stroke-linecap="round" stroke-linejoin="round"/>
<path d="M25.71 31.875H10.29C6.885 31.875 4.125 29.115 4.125 25.71V10.29C4.125 6.885 6.885 4.125 10.29 4.125H25.71C29.115 4.125 31.875 6.885 31.875 10.29V25.71C31.875 29.115 29.115 31.875 25.71 31.875Z" stroke="#333439" stroke-width="2" stroke-linecap="round" stroke-linejoin="round"/>
</svg>
