<svg width="36" height="36" viewBox="0 0 36 36" fill="none" xmlns="http://www.w3.org/2000/svg">
<path d="M30.6448 24.7649C28.9648 27.9749 26.0848 30.5849 22.6498 31.7699C22.4098 31.8449 22.1398 31.9199 21.9298 31.7999C21.7198 31.6649 21.6598 31.3949 21.6298 31.1399C21.4798 29.8499 21.6748 28.5599 21.6748 27.2699C21.6898 25.9799 21.4948 24.6149 20.7148 23.5949C22.9048 23.9099 25.2298 22.8449 26.4148 20.9849C27.5998 19.1249 27.5848 16.5599 26.3698 14.7149C26.1748 14.4299 25.9648 14.1449 25.9048 13.7999C25.8598 13.4999 25.9348 13.1999 25.9798 12.9149C26.1148 12.0749 26.0248 11.2049 25.7248 10.4099C25.6798 10.2749 25.6048 10.1399 25.4998 10.0799C25.3648 9.98994 25.1848 10.0199 25.0198 10.0499C24.2398 10.1999 23.5048 10.4999 22.8298 10.9199C22.5298 11.1149 22.2298 11.3249 21.8848 11.4449C21.2848 11.6399 20.6398 11.4599 20.0248 11.3549C18.6898 11.0999 17.3098 11.1149 15.9748 11.3699C15.4948 11.4599 15.0148 11.5949 14.5198 11.5199C13.9798 11.4299 13.5148 11.0999 13.0348 10.8149C12.4198 10.4699 11.7598 10.2149 11.0698 10.0649C10.9348 10.0349 10.7848 10.0049 10.6648 10.0649C10.5148 10.1399 10.4398 10.2899 10.3798 10.4549C10.0498 11.3249 9.97479 12.2999 10.1548 13.2149C10.1998 13.4849 10.2748 13.7549 10.2148 14.0099C10.1698 14.2199 10.0348 14.3849 9.9148 14.5649C8.6548 16.3949 8.57979 18.9749 9.73479 20.8799C10.8898 22.7849 13.1998 23.9099 15.4198 23.6399C14.9548 24.2099 14.6248 24.9299 14.5348 25.6649C14.5348 25.6649 14.4898 25.9949 14.4598 26.3249C14.4748 26.9999 14.4898 27.6749 14.4898 27.6749C14.5198 28.7999 14.4898 29.9399 14.4898 31.0649C14.4898 31.3049 14.4748 31.5899 14.2948 31.7549C14.0548 31.9799 13.6798 31.9049 13.3648 31.7999C8.3248 30.0599 4.4848 25.2599 3.8698 19.9649C3.2548 14.6699 5.92479 9.13494 10.4398 6.28494C14.9548 3.44994 21.1048 3.44994 25.6048 6.28494C30.1198 9.11994 32.7748 14.6699 32.1598 19.9649C31.9498 21.6299 31.4398 23.2649 30.6448 24.7649Z" stroke="#333439" stroke-width="2" stroke-linecap="round" stroke-linejoin="round"/>
</svg>
