<svg width="768" height="649" viewBox="0 0 768 649" fill="none" xmlns="http://www.w3.org/2000/svg">
<path fill-rule="evenodd" clip-rule="evenodd" d="M425.644 124.038C496.156 117.579 564.034 163.251 605.829 220.407C642.147 270.072 629.22 335.512 625.182 396.907C621.716 449.589 623.085 507.652 584.56 543.751C547.349 578.619 490.528 564.781 439.863 570.556C380.833 577.285 319.673 610.209 268.657 579.759C211.024 545.359 172.27 478.419 173.053 411.305C173.816 345.924 229.316 300.047 272.492 250.945C318.003 199.185 357.009 130.326 425.644 124.038Z" stroke="#1F517B" stroke-width="2"/>
<path fill-rule="evenodd" clip-rule="evenodd" d="M427.444 124.576C493.788 149.318 535.161 219.898 548.052 289.522C559.254 350.022 519.239 403.391 488.988 456.969C463.03 502.942 439.097 555.86 388.731 571.694C340.084 586.986 294.877 549.887 246.715 533.131C190.602 513.608 121.215 516.769 88.4391 467.215C51.4119 411.233 45.5035 334.111 75.2995 273.968C104.326 215.379 174.227 198.093 234.419 172.557C297.869 145.64 362.866 100.492 427.444 124.576Z" stroke="#FF6E11" stroke-width="2"/>
<path fill-rule="evenodd" clip-rule="evenodd" d="M329.381 119.802C383.37 73.9897 465.166 72.3525 532.219 95.1028C590.485 114.872 617.517 175.853 649.499 228.415C676.942 273.518 711.434 320.246 700.655 371.93C690.244 421.85 635.793 443.184 597.651 477.029C553.212 516.463 522.086 578.557 462.838 582.96C395.903 587.935 325.717 555.429 287.783 500.057C250.83 446.116 269.88 376.675 276.99 311.678C284.485 243.163 276.828 164.396 329.381 119.802Z" stroke="#FF6E11" stroke-width="2"/>
</svg>
