<?xml version="1.0" encoding="UTF-8" standalone="no"?>
<!-- Created with Inkscape (http://www.inkscape.org/) -->

<svg
   width="210mm"
   height="297mm"
   viewBox="0 0 210 297"
   version="1.1"
   id="svg300"
   xml:space="preserve"
   xmlns:inkscape="http://www.inkscape.org/namespaces/inkscape"
   xmlns:sodipodi="http://sodipodi.sourceforge.net/DTD/sodipodi-0.dtd"
   xmlns="http://www.w3.org/2000/svg"
   xmlns:svg="http://www.w3.org/2000/svg"><sodipodi:namedview
     id="namedview302"
     pagecolor="#505050"
     bordercolor="#eeeeee"
     borderopacity="1"
     inkscape:showpageshadow="0"
     inkscape:pageopacity="0"
     inkscape:pagecheckerboard="0"
     inkscape:deskcolor="#505050"
     inkscape:document-units="mm"
     showgrid="false" /><defs
     id="defs297" /><g
     inkscape:label="Layer 1"
     inkscape:groupmode="layer"
     id="layer1"><path
       style="fill:#000000;stroke-width:0.176389"
       d="m 160.11396,237.79196 c -0.7276,-0.12568 -1.79917,-0.35855 -2.38125,-0.51748 -0.58208,-0.15892 -1.38043,-0.35731 -1.7741,-0.44085 -0.68334,-0.14501 -1.06026,-0.27841 -2.3095,-0.81735 -0.3057,-0.13188 -0.67805,-0.2398 -0.82744,-0.2398 -0.14938,0 -0.32067,-0.0794 -0.38063,-0.17639 -0.0599,-0.097 -0.23221,-0.17639 -0.38278,-0.17639 -0.15057,0 -1.02291,-0.35718 -1.93853,-0.79375 -0.91562,-0.43656 -1.73362,-0.79375 -1.81779,-0.79375 -0.0842,0 -0.17948,-0.0595 -0.21182,-0.13229 -0.0323,-0.0728 -0.57473,-0.39139 -1.20533,-0.70806 -0.63059,-0.31667 -1.35795,-0.71354 -1.61636,-0.88194 -0.44677,-0.29115 -3.55291,-2.27325 -4.28521,-2.73451 -0.18993,-0.11962 -0.45904,-0.32219 -0.59802,-0.45014 -0.13897,-0.12795 -0.45979,-0.36608 -0.71293,-0.52917 -0.54611,-0.35184 -0.65053,-0.43234 -2.13609,-1.6468 -1.69732,-1.38757 -1.91114,-1.56795 -2.98536,-2.51854 -0.54086,-0.47861 -1.00984,-0.93501 -1.04218,-1.01423 -0.0323,-0.0792 -0.1362,-0.14404 -0.2308,-0.14404 -0.0946,0 -2.60814,-2.42836 -5.58565,-5.39637 -5.03078,-5.01472 -6.83792,-6.71946 -8.30329,-7.83279 -0.31922,-0.24254 -0.68694,-0.5402 -0.81716,-0.66146 -0.13021,-0.12127 -0.31518,-0.22049 -0.41104,-0.22049 -0.0958,0 -0.20074,-0.0627 -0.23308,-0.13925 -0.0774,-0.1833 -1.86611,-1.27186 -2.08992,-1.27186 -0.0956,0 -0.17373,-0.0731 -0.17373,-0.16237 0,-0.0893 -0.23813,-0.21468 -0.52917,-0.2786 -0.29104,-0.0639 -0.52917,-0.18232 -0.52917,-0.2631 0,-0.0808 -0.3175,-0.20051 -0.70555,-0.26607 -0.38806,-0.0656 -0.70556,-0.1916 -0.70556,-0.28009 0,-0.0885 -0.18256,-0.16088 -0.40569,-0.16088 -0.22314,0 -0.4811,-0.0706 -0.57327,-0.1568 -0.18419,-0.17236 -1.65087,-0.48296 -3.43076,-0.72652 -1.49184,-0.20415 -5.74477,-0.20373 -7.32014,7e-4 -2.913745,0.37815 -5.896835,0.93098 -10.142355,1.87959 -0.63059,0.1409 -1.50372,0.32842 -1.94028,0.41673 -7.09173,1.43443 -8.79386,1.65989 -12.52361,1.65883 -3.2619,-8.8e-4 -6.45629,-0.41384 -7.45004,-0.96301 -0.16846,-0.0931 -0.45094,-0.16924 -0.62774,-0.16924 -0.1768,0 -0.47554,-0.11654 -0.66385,-0.25898 -0.18832,-0.14243 -0.52099,-0.26149 -0.73927,-0.26458 -0.21828,-0.003 -0.39688,-0.085 -0.39688,-0.182 0,-0.097 -0.0992,-0.17688 -0.22048,-0.17747 -0.66069,-0.003 -5.95313,-3.33227 -5.95313,-3.74459 0,-0.0742 -0.0828,-0.13488 -0.18407,-0.13488 -0.17445,0 -0.56109,-0.32696 -2.44732,-2.06958 -0.4445,-0.41067 -0.86772,-0.74801 -0.94048,-0.74966 -0.0728,-0.002 -0.1323,-0.0916 -0.1323,-0.20002 0,-0.10836 -0.29765,-0.49093 -0.66145,-0.85015 -0.75,-0.74055 -2.29173,-2.42014 -2.69207,-2.9328 -0.14669,-0.18785 -0.66063,-0.85748 -1.14207,-1.48807 -0.48145,-0.63059 -0.9402,-1.2259 -1.01944,-1.32292 -0.0792,-0.097 -0.71309,-1.04951 -1.40854,-2.11666 -0.69545,-1.06716 -1.30731,-1.97997 -1.35968,-2.02848 -0.0524,-0.0485 -0.37303,-0.64382 -0.71258,-1.32291 -0.33955,-0.6791 -0.65856,-1.27441 -0.70893,-1.32292 -0.10165,-0.0979 -1.71967,-3.41226 -1.93748,-3.96875 -0.0759,-0.19403 -0.33681,-0.78934 -0.5797,-1.32292 -0.24289,-0.53357 -0.57636,-1.36701 -0.74106,-1.85208 -0.16469,-0.48507 -0.41102,-1.13207 -0.54739,-1.43777 -0.13636,-0.3057 -0.24794,-0.64412 -0.24794,-0.75205 0,-0.10792 -0.0747,-0.33405 -0.16605,-0.5025 -0.0913,-0.16846 -0.29552,-0.78254 -0.45376,-1.36463 -0.15825,-0.58208 -0.40103,-1.44448 -0.53951,-1.91643 -0.13848,-0.47196 -0.25179,-0.96913 -0.25179,-1.10482 0,-0.1357 -0.0708,-0.38456 -0.1574,-0.55301 -0.20624,-0.40133 -0.7439,-3.12965 -1.08579,-5.50976 -0.10452,-0.72761 -0.26569,-1.71979 -0.35817,-2.20486 -0.0925,-0.48507 -0.24966,-2.27101 -0.3493,-3.96875 -0.0996,-1.69775 -0.22947,-3.86947 -0.2885,-4.82606 -0.059,-0.95658 -0.018,-2.74252 0.0913,-3.96875 0.10924,-1.22622 0.2777,-3.26138 0.37435,-4.52256 0.27933,-3.64498 0.86862,-7.50984 1.60023,-10.49513 0.0832,-0.33955 0.28057,-1.21268 0.43856,-1.94028 0.158,-0.72761 0.39134,-1.68011 0.51853,-2.11667 0.12719,-0.43656 0.3301,-1.15094 0.45092,-1.5875 0.77432,-2.79786 1.05906,-3.72496 1.70648,-5.55625 0.72134,-2.04038 1.03237,-2.82294 1.81011,-4.55432 0.2972,-0.66161 0.54036,-1.27015 0.54036,-1.35232 0,-0.0822 0.0595,-0.17584 0.13229,-0.20818 0.0728,-0.0323 0.35158,-0.49535 0.6196,-1.02893 0.8595,-1.71108 1.50884,-2.81884 2.06098,-3.51597 0.29619,-0.37397 0.53852,-0.73016 0.53852,-0.79154 0,-0.20106 2.48842,-2.93757 3.70416,-4.07347 1.61862,-1.51231 1.9204,-1.76809 3.52778,-2.99001 0.63059,-0.47937 1.18622,-0.91681 1.23472,-0.97208 0.0485,-0.0553 0.32632,-0.24806 0.61737,-0.42843 0.29104,-0.18036 0.92604,-0.61526 1.41111,-0.96644 0.48507,-0.35118 1.04069,-0.73622 1.23472,-0.85565 0.19403,-0.11942 1.10684,-0.69801 2.02847,-1.28576 0.92163,-0.58774 1.83445,-1.16435 2.02847,-1.28135 0.19403,-0.117 0.59091,-0.37751 0.88195,-0.57893 0.29104,-0.20141 0.64823,-0.423 0.79375,-0.49243 0.27952,-0.133351 0.39829,-0.205187 1.94457,-1.17618 0.53594,-0.336545 1.13126,-0.708122 1.32292,-0.825728 2.22902,-1.367728 3.88736,-2.44579 3.93505,-2.558118 0.0323,-0.07616 0.12924,-0.138471 0.21533,-0.138471 0.1545,0 1.75972,-1.043993 1.93074,-1.255705 0.0485,-0.06005 0.50491,-0.364513 1.01423,-0.676589 0.50933,-0.312075 0.92605,-0.639976 0.92605,-0.728668 0,-0.08869 0.0878,-0.16126 0.1951,-0.16126 0.16387,0 0.97577,-0.57286 1.87134,-1.32038 0.1179,-0.09841 0.33284,-0.278145 0.47763,-0.399412 0.14479,-0.121267 0.30058,-0.220486 0.34619,-0.220486 0.0895,0 2.06721,-1.809983 3.09421,-2.831772 1.07438,-1.068925 2.48414,-2.651197 2.79753,-3.139862 0.16457,-0.256608 0.44401,-0.625311 0.62099,-0.819338 0.17697,-0.194028 0.49092,-0.630591 0.69765,-0.970139 0.20673,-0.339549 0.42554,-0.657049 0.48625,-0.705556 0.0607,-0.04851 0.16515,-0.207257 0.23212,-0.352778 0.067,-0.14552 0.35962,-0.661458 0.65035,-1.146527 0.92968,-1.551118 2.64175,-5.196151 2.64175,-5.624358 0,-0.145117 0.0794,-0.312907 0.17639,-0.372865 0.097,-0.05996 0.17687,-0.243237 0.17747,-0.407285 5.3e-4,-0.164049 0.11966,-0.525625 0.26458,-0.803503 0.14493,-0.277878 0.2635,-0.616297 0.2635,-0.752046 0,-0.135747 0.0762,-0.384643 0.16926,-0.553101 0.0931,-0.168459 0.24545,-0.663475 0.33857,-1.100037 0.0931,-0.436563 0.33444,-1.453623 0.53629,-2.260133 0.59735,-2.38681 0.44674,-6.17759 -0.32719,-8.235006 -0.073,-0.194028 -0.27399,-0.78934 -0.44667,-1.322917 -0.27943,-0.863412 -1.59189,-3.713751 -2.03049,-4.409722 -0.0917,-0.145521 -0.6213,-1.018646 -1.17688,-1.940278 -0.55558,-0.921632 -1.07451,-1.702153 -1.15318,-1.734491 -0.0787,-0.03234 -0.14304,-0.171244 -0.14304,-0.30868 0,-0.137437 -0.074,-0.249885 -0.1645,-0.249885 -0.0905,0 -0.22024,-0.178593 -0.28836,-0.396875 -0.0681,-0.218281 -0.21238,-0.45519 -0.32057,-0.526465 -0.10819,-0.07127 0.0601,-0.130806 0.37405,-0.132292 0.47896,-0.0023 0.64892,0.117877 1.05668,0.746952 0.26726,0.412309 0.52635,0.78934 0.57577,0.837847 0.17712,0.173864 0.54299,0.799491 0.6447,1.102431 0.057,0.169774 0.17377,0.30868 0.25947,0.30868 0.0857,0 0.15581,0.113393 0.15581,0.251984 0,0.138592 0.0992,0.357172 0.22049,0.485734 0.39783,0.421767 1.24792,2.043376 2.43351,4.642143 0.45308,0.993116 0.97713,2.739109 1.27061,4.233334 0.25969,1.322155 0.35915,5.026418 0.15393,5.732639 -0.0987,0.339548 -0.30903,1.172986 -0.46748,1.852083 -0.34996,1.49995 -0.76807,3.050678 -0.95117,3.527778 -0.0745,0.194028 -0.27241,0.776005 -0.43989,1.293283 -0.39613,1.223506 -2.11464,5.03956 -2.39639,5.321301 -0.0485,0.04851 -0.24694,0.402623 -0.44097,0.786925 -0.40736,0.80684 -1.91425,3.1463 -2.45441,3.810482 -0.20229,0.248749 -0.52656,0.679935 -0.72059,0.958194 -0.89949,1.289972 -3.99388,4.432377 -5.33576,5.418546 -0.41231,0.303014 -0.74965,0.616854 -0.74965,0.697421 0,0.08057 -0.11245,0.146487 -0.24989,0.146487 -0.13743,0 -0.27634,0.06012 -0.30868,0.133604 -0.0323,0.07348 -0.41598,0.408775 -0.85254,0.745095 -0.43657,0.336321 -0.83344,0.662376 -0.88195,0.724567 -0.0485,0.06219 -0.26679,0.168809 -0.48507,0.236931 -0.21828,0.06812 -0.39687,0.19788 -0.39687,0.288357 0,0.09047 -0.11907,0.164502 -0.26459,0.164502 -0.14552,0 -0.26512,0.05953 -0.26579,0.132292 -7e-4,0.07276 -0.29831,0.33002 -0.66145,0.571688 -0.36314,0.241671 -0.69994,0.479796 -0.74845,0.529167 -0.12409,0.126302 -0.74322,0.509635 -1.05833,0.655262 -0.14553,0.06725 -0.34396,0.189376 -0.44098,0.271392 -0.73986,0.62547 -7.03556,4.542977 -7.30087,4.542977 -0.10761,0 -0.19565,0.0794 -0.19565,0.17639 0,0.097 -0.11907,0.17639 -0.26459,0.17639 -0.14552,0 -0.26458,0.0779 -0.26458,0.17303 0,0.0952 -0.19844,0.22283 -0.44097,0.2837 -0.24254,0.0609 -0.44098,0.1634 -0.44098,0.22783 0,0.0644 -0.29765,0.27412 -0.66145,0.46595 -0.36381,0.19184 -0.74084,0.41161 -0.83785,0.4884 -0.097,0.0768 -1.03546,0.69564 -2.08543,1.37526 -1.04997,0.67961 -2.49433,1.66851 -3.2097,2.19755 -0.71538,0.52904 -1.34838,0.96189 -1.40668,0.96189 -0.0583,0 -0.28081,0.1801 -0.49446,0.40023 -0.21365,0.22012 -0.69246,0.62588 -1.06403,0.90169 -0.37156,0.2758 -0.91008,0.73069 -1.1967,1.01088 -0.28663,0.28018 -0.56333,0.50942 -0.6149,0.50942 -0.11001,0 -1.94245,1.87526 -3.03842,3.10943 -0.81629,0.91921 -2.35183,3.17473 -3.04642,4.4748 -0.2331,0.43629 -0.4635,0.83317 -0.51201,0.88195 -0.46169,0.46427 -3.52625,7.78423 -3.52738,8.42545 -1.8e-4,0.12259 -0.074,0.36071 -0.16406,0.52917 -0.16912,0.31652 -0.44599,1.2362 -0.96836,3.2167 -0.16632,0.63059 -0.40692,1.50372 -0.53466,1.94028 -0.54825,1.87365 -0.96271,3.57474 -1.16035,4.7625 -0.0888,0.53358 -0.28957,1.56545 -0.44619,2.29306 -0.15662,0.7276 -0.34487,1.79916 -0.41833,2.38125 -0.0735,0.58208 -0.22878,1.7727 -0.34516,2.64583 -0.11638,0.87312 -0.2856,2.14312 -0.37605,2.82222 -0.27853,2.09131 -0.38076,8.31816 -0.18532,11.28889 0.32504,4.94089 0.53281,6.59017 1.33321,10.58333 0.13612,0.6791 0.32547,1.64617 0.42078,2.14904 0.0953,0.50287 0.25828,1.07312 0.36216,1.26722 0.10388,0.1941 0.18888,0.55188 0.18888,0.79507 0,0.24319 0.069,0.48477 0.15322,0.53686 0.0843,0.0521 0.20482,0.41742 0.26789,0.81186 0.0631,0.39444 0.18269,0.85261 0.26581,1.01814 0.0831,0.16554 0.29753,0.77723 0.47647,1.35931 0.17895,0.58209 0.42646,1.25678 0.55003,1.49931 0.12358,0.24254 0.22517,0.54511 0.22577,0.67238 5.3e-4,0.12728 0.18994,0.64321 0.42077,1.14653 0.23084,0.50332 0.60681,1.35168 0.83551,1.88526 0.59514,1.38854 2.92026,5.93886 3.15453,6.17347 0.0485,0.0486 0.23959,0.38599 0.42465,0.74979 0.18505,0.3638 0.40333,0.66146 0.48507,0.66146 0.0817,0 0.14861,0.10292 0.14861,0.22871 0,0.12579 0.11832,0.38375 0.26293,0.57326 0.14461,0.18951 0.82974,1.13831 1.52252,2.10845 0.69277,0.97014 1.30887,1.80357 1.36911,1.85208 0.0602,0.0485 0.46651,0.55976 0.90283,1.13612 0.7485,0.98874 5.50681,5.91944 5.71249,5.91944 0.0526,0 0.33224,0.21828 0.62131,0.48506 0.82537,0.76177 1.04588,0.92605 1.24303,0.92605 0.10111,0 0.18383,0.0641 0.18383,0.14243 0,0.16659 1.52399,1.26868 1.75435,1.26868 0.0861,0 0.18299,0.0595 0.21533,0.13229 0.14557,0.32753 3.67013,2.04171 5.17407,2.51643 0.38806,0.12249 0.904,0.29203 1.14653,0.37676 1.47447,0.5151 8.27109,0.87465 9.96597,0.52721 0.48507,-0.0994 1.55664,-0.26969 2.38125,-0.37834 1.72813,-0.2277 2.56795,-0.37685 4.40973,-0.78311 1.52887,-0.33725 3.44534,-0.74538 4.58611,-0.97666 0.43656,-0.0885 1.38906,-0.29005 2.11666,-0.44787 2.75529,-0.59762 4.69535,-0.92745 7.761105,-1.31947 1.9191,-0.24539 7.04172,-0.13506 8.29028,0.17855 0.43657,0.10965 1.30969,0.32532 1.94028,0.47926 0.63059,0.15394 1.22193,0.34671 1.3141,0.42839 0.0922,0.0817 0.2906,0.14899 0.44097,0.14959 0.15037,5.3e-4 0.50076,0.11966 0.77864,0.26458 0.27787,0.14492 0.61522,0.2635 0.74965,0.2635 0.13443,0 0.24442,0.062 0.24442,0.13772 0,0.0757 0.21828,0.22872 0.48507,0.33996 0.52601,0.21932 1.84157,0.96126 1.98437,1.11913 0.0485,0.0536 0.366,0.2688 0.70555,0.47816 0.33955,0.20936 0.83126,0.56236 1.09268,0.78444 0.26143,0.22208 0.73768,0.60029 1.05834,0.84047 0.32065,0.24017 2.8452,2.69112 5.61009,5.44654 2.7649,2.75542 5.65907,5.57516 6.43148,6.26609 0.77242,0.69093 1.72492,1.55867 2.11667,1.9283 0.39175,0.36963 1.14883,1.00333 1.68241,1.40821 0.53358,0.40488 1.12999,0.8962 1.32536,1.09182 0.19537,0.19563 0.83037,0.7082 1.41111,1.13905 0.58074,0.43086 1.08235,0.84758 1.11469,0.92604 0.0323,0.0785 0.15889,0.14268 0.28124,0.14268 0.12235,0 0.45308,0.20154 0.73496,0.44789 0.28187,0.24632 0.79031,0.61916 1.12986,0.82853 0.33955,0.20936 0.65705,0.43367 0.70556,0.49848 0.0485,0.0648 0.26679,0.17356 0.48507,0.24168 0.21828,0.0681 0.39687,0.19789 0.39687,0.28836 0,0.0905 0.0808,0.1645 0.17949,0.1645 0.0987,0 0.79324,0.38037 1.5434,0.84524 1.54943,0.96023 5.17635,2.77402 5.9076,2.95436 0.2677,0.066 0.53035,0.19062 0.58367,0.27689 0.0533,0.0863 0.28601,0.15685 0.51709,0.15685 0.23108,0 0.46544,0.0733 0.52078,0.16282 0.0554,0.0895 0.35508,0.21871 0.66608,0.28701 0.311,0.0683 0.68712,0.18774 0.83582,0.26543 0.49356,0.25781 2.09381,0.69585 2.54207,0.69585 0.24283,0 0.48714,0.0738 0.5429,0.16404 0.0558,0.0902 0.55654,0.21923 1.11284,0.2867 0.5563,0.0674 1.14925,0.19428 1.31768,0.28182 0.43262,0.22486 4.73264,0.20816 4.96008,-0.0193 0.10126,-0.10126 0.33134,-0.18411 0.51129,-0.18411 0.84939,0 3.30643,-1.68387 3.30643,-2.26597 0,-0.11191 0.0686,-0.20348 0.15243,-0.20348 0.0838,0 0.30211,-0.37703 0.48507,-0.83785 0.26449,-0.66618 0.33264,-1.29682 0.33264,-3.07798 0,-1.55693 -0.0672,-2.30738 -0.22048,-2.46063 -0.12127,-0.12126 -0.22049,-0.32803 -0.22049,-0.45947 0,-0.52367 -1.43839,-3.20096 -1.80799,-3.36523 -0.0728,-0.0323 -0.13229,-0.17124 -0.13229,-0.30868 0,-0.13743 -0.074,-0.24988 -0.1645,-0.24988 -0.0905,0 -0.2103,-0.13891 -0.26628,-0.30868 -0.056,-0.16978 -0.31929,-0.56143 -0.58515,-0.87034 -0.26585,-0.30891 -0.88025,-1.05545 -1.36532,-1.65897 -0.48507,-0.60353 -1.10022,-1.32586 -1.36701,-1.60519 -0.26679,-0.27933 -0.48634,-0.56467 -0.48789,-0.63408 -0.002,-0.0694 -0.24985,-0.40403 -0.55178,-0.74357 -0.30193,-0.33955 -0.75632,-0.93487 -1.00977,-1.32292 -0.25344,-0.38806 -0.50123,-0.74524 -0.55065,-0.79375 -0.30333,-0.29776 -1.76554,-2.60053 -1.76554,-2.78047 0,-0.11998 -0.0708,-0.21814 -0.15726,-0.21814 -0.0865,0 -0.20707,-0.19844 -0.26795,-0.44097 -0.0609,-0.24254 -0.18854,-0.44098 -0.2837,-0.44098 -0.0952,0 -0.17303,-0.0962 -0.17303,-0.2139 0,-0.17886 -1.03498,-2.46101 -1.60179,-3.53197 -0.0891,-0.16846 -0.1621,-0.39458 -0.1621,-0.50251 0,-0.10792 -0.10675,-0.44634 -0.23722,-0.75204 -0.34117,-0.79936 -0.79331,-2.38138 -0.91503,-3.20166 -0.0974,-0.65607 -0.17815,-0.74052 -1.15192,-1.20409 -0.57597,-0.2742 -1.04722,-0.57185 -1.04722,-0.66146 0,-0.0896 -0.0992,-0.16305 -0.22048,-0.16321 -0.20213,-3.5e-4 -0.98999,-0.77666 -1.7701,-1.74432 -0.39935,-0.49536 -1.23896,-2.18555 -1.54296,-3.10609 -0.38403,-1.16284 -0.53661,-2.15203 -0.78905,-5.11527 -0.13224,-1.55223 -0.28911,-3.06035 -0.34862,-3.35139 -0.1988,-0.97238 -0.69187,-2.38125 -0.83337,-2.38125 -0.0769,0 -0.13986,-0.10692 -0.13986,-0.2376 0,-0.5814 -1.30343,-1.52629 -2.10543,-1.52629 -0.49662,0 -0.88732,0.14826 -3.36263,1.27601 -2.62177,1.19447 -5.76388,1.66354 -7.89087,1.17797 -2.47736,-0.56555 -4.63274,-1.23187 -4.63274,-1.43218 0,-0.0769 -0.0923,-0.13986 -0.20504,-0.13986 -0.23763,0 -1.97121,-1.07422 -2.05862,-1.27563 -0.0323,-0.0745 -0.1326,-0.13548 -0.2228,-0.13548 -0.0902,0 -0.53999,-0.38379 -0.99953,-0.85287 -1.83807,-1.87621 -2.20255,-2.57194 -2.20255,-4.20425 0,-0.97285 -0.0754,-1.29788 -0.4016,-1.73043 -1.09334,-1.44994 -0.65226,-3.59232 0.74397,-3.61353 0.21255,-0.003 0.43552,-0.0852 0.49548,-0.18225 0.06,-0.097 0.29808,-0.17639 0.52916,-0.17639 0.23109,0 0.46921,0.0794 0.52917,0.17639 0.06,0.097 0.28027,0.17639 0.48958,0.17639 0.33494,0 1.2314,0.27119 2.33264,0.70566 0.61648,0.24322 5.64069,2.71339 5.73264,2.81847 0.18517,0.21162 4.79232,2.46541 5.42304,2.65292 3.18389,0.94656 4.95915,1.09792 6.68324,0.56982 1.05785,-0.32403 2.7527,-1.64113 2.47444,-1.92293 -0.24663,-0.24978 -2.105,-0.11739 -2.76266,0.19681 -0.33955,0.16222 -0.97455,0.48715 -1.41112,0.72208 -1.25707,0.67646 -3.10966,0.49219 -4.02544,-0.40038 -0.1282,-0.12495 -0.28695,-0.22722 -0.35278,-0.22727 -0.0658,-5e-5 -0.7714,-0.61521 -1.56794,-1.36701 -0.79654,-0.75181 -1.5506,-1.4463 -1.6757,-1.54331 -0.74844,-0.58044 -1.80662,-1.17132 -2.26004,-1.26201 -0.28877,-0.0577 -0.52504,-0.16545 -0.52504,-0.23932 0,-0.0739 -0.36885,-0.18963 -0.81967,-0.25723 -0.45083,-0.0676 -0.94692,-0.18892 -1.10243,-0.26959 -0.33619,-0.17439 -4.13961,-0.51959 -7.85246,-0.7127 -2.70609,-0.14075 -4.63915,-0.42043 -6.54141,-0.94644 -1.01428,-0.28046 -4.31461,-1.78238 -4.49791,-2.04692 -0.0485,-0.07 -0.26679,-0.18301 -0.48507,-0.25113 -0.21828,-0.0681 -0.39688,-0.18862 -0.39688,-0.26778 0,-0.0792 -0.1389,-0.19057 -0.30868,-0.24758 -0.43156,-0.14491 -0.9251,-0.4863 -1.37587,-0.95173 -0.21141,-0.21829 -0.44416,-0.39688 -0.51724,-0.39688 -0.17872,0 -3.4395,-3.22538 -3.44126,-3.40391 -7.1e-4,-0.0774 -0.19983,-0.32462 -0.44236,-0.54939 -0.24254,-0.22477 -0.44134,-0.47895 -0.44179,-0.56484 -5.3e-4,-0.0859 -0.23858,-0.40983 -0.52917,-0.71986 -0.29059,-0.31004 -0.52835,-0.64738 -0.52835,-0.74966 0,-0.10227 -0.0794,-0.18595 -0.17639,-0.18595 -0.097,0 -0.17639,-0.11339 -0.17639,-0.25198 0,-0.1386 -0.0992,-0.36023 -0.22048,-0.49252 -0.32186,-0.35113 -0.65675,-0.88665 -0.77535,-1.23988 -0.057,-0.16977 -0.16746,-0.30868 -0.24545,-0.30868 -0.078,0 -0.1941,-0.23812 -0.25802,-0.52916 -0.0639,-0.29104 -0.1893,-0.52917 -0.2786,-0.52917 -0.0893,0 -0.16238,-0.10724 -0.16238,-0.23831 0,-0.13107 -0.18926,-0.59427 -0.42058,-1.02933 -0.23132,-0.43506 -0.47954,-1.05943 -0.5516,-1.38749 -0.0721,-0.32807 -0.19325,-0.71815 -0.26933,-0.86686 -0.27373,-0.53506 -0.67861,-1.88257 -0.95569,-3.18079 -0.1553,-0.7276 -0.36479,-1.6801 -0.46553,-2.11666 -0.27395,-1.18719 -0.39155,-6.74197 -0.18111,-8.55486 0.3504,-3.01864 0.47119,-3.61354 1.39577,-6.87438 0.0543,-0.19138 0.20335,-0.54857 0.33131,-0.79375 0.12796,-0.24517 0.23314,-0.57999 0.23373,-0.74403 5.3e-4,-0.16405 0.0805,-0.34733 0.17748,-0.40729 0.097,-0.06 0.17639,-0.2292 0.17639,-0.37608 0,-0.34628 1.9342,-4.36809 2.13782,-4.44522 0.0854,-0.0323 0.15523,-0.1406 0.15523,-0.24059 0,-0.17285 1.55101,-2.77825 1.76437,-2.9638 0.0558,-0.0485 0.48105,-0.59266 0.94506,-1.20922 1.66981,-2.21884 4.27992,-4.85854 6.39748,-6.47004 0.47249,-0.35956 0.89875,-0.70719 0.94726,-0.7725 0.15102,-0.20334 2.32465,-1.60241 2.48954,-1.60241 0.086,0 0.15696,-0.0595 0.15778,-0.13229 8.8e-4,-0.0728 0.5366,-0.41011 1.19062,-0.74966 0.65403,-0.33954 1.22883,-0.66619 1.27733,-0.72587 0.0485,-0.0597 0.28663,-0.16961 0.52917,-0.24426 0.24253,-0.0747 0.48066,-0.19074 0.52917,-0.25794 0.11902,-0.16492 2.42712,-1.09864 4.05694,-1.64121 2.52012,-0.83895 3.17944,-0.99243 6.61458,-1.53981 3.69732,-0.58915 10.38332,-0.40066 12.88892,0.36336 0.29793,0.0909 0.67218,0.16518 0.83168,0.16518 0.15949,0 0.6698,0.12093 1.134,0.26874 0.46421,0.1478 1.28058,0.39824 1.81415,0.55652 1.04336,0.30951 2.01919,0.67758 2.51115,0.94717 0.16846,0.0923 0.39587,0.16785 0.50537,0.16785 0.27387,0 4.28946,1.98365 4.36242,2.15498 0.0323,0.0759 0.16557,0.13807 0.29608,0.13807 0.13051,0 0.34363,0.0992 0.4736,0.22049 0.12997,0.12127 0.51268,0.37384 0.85045,0.56129 0.79735,0.44247 2.44711,1.65863 2.94286,2.16939 0.21365,0.22012 0.43153,0.40022 0.48418,0.40022 0.11026,0 1.48126,1.36693 2.39705,2.38992 0.80088,0.89465 2.20638,2.85748 3.06536,4.28089 0.97223,1.61109 2.39621,4.55933 2.39621,4.96118 0,0.10234 0.0794,0.18607 0.17638,0.18607 0.097,0 0.17639,0.14905 0.17639,0.33123 0,0.29829 0.26806,1.07974 0.70319,2.05002 0.087,0.19402 0.21262,0.62798 0.27911,0.96435 0.0665,0.33636 0.18358,0.73323 0.2602,0.88194 0.0766,0.14871 0.26874,0.74662 0.42694,1.32871 0.15821,0.58208 0.37661,1.35799 0.48533,1.72423 l 0.19769,0.66591 0.66372,-0.71178 c 0.98735,-1.05884 1.16825,-2.13323 0.81718,-4.85336 -0.2988,-2.31522 -0.57978,-3.71257 -0.84187,-4.18685 -0.0931,-0.16845 -0.16926,-0.41735 -0.16926,-0.5531 0,-0.13575 -0.11858,-0.47417 -0.2635,-0.75204 -0.14492,-0.27788 -0.26399,-0.64414 -0.26458,-0.81392 -6e-4,-0.16977 -0.0805,-0.30868 -0.17748,-0.30868 -0.097,0 -0.17639,-0.11923 -0.17639,-0.26497 0,-0.26031 -1.04252,-2.38453 -1.25504,-2.55725 -0.0597,-0.0485 -0.16426,-0.26679 -0.23238,-0.48507 -0.0681,-0.21828 -0.18862,-0.39687 -0.26778,-0.39687 -0.0792,0 -0.19057,-0.13891 -0.24758,-0.30868 -0.10559,-0.31449 -0.47681,-0.94285 -0.65128,-1.10243 -0.053,-0.0485 -0.48347,-0.60414 -0.95653,-1.23473 -1.02403,-1.36505 -4.78563,-5.1422 -5.96323,-5.98788 -0.45822,-0.32907 -0.83312,-0.66423 -0.83312,-0.7448 0,-0.0806 -0.11245,-0.14648 -0.24989,-0.14648 -0.13743,0 -0.27634,-0.0636 -0.30868,-0.14125 -0.21153,-0.50819 -7.51665,-4.62125 -8.20768,-4.62125 -0.12627,0 -0.22959,-0.0794 -0.22959,-0.17639 0,-0.097 -0.15605,-0.17639 -0.34679,-0.17639 -0.19074,0 -0.60745,-0.11244 -0.92604,-0.24987 -0.31859,-0.13743 -0.86906,-0.37555 -1.22327,-0.52916 -0.35421,-0.15362 -0.80593,-0.2793 -1.00382,-0.2793 -0.1979,0 -0.40887,-0.0794 -0.46883,-0.17639 -0.0599,-0.097 -0.30798,-0.17639 -0.55117,-0.17639 -0.24319,0 -0.59456,-0.0816 -0.78082,-0.18124 -0.18626,-0.0997 -0.71682,-0.26284 -1.17903,-0.36256 -0.4622,-0.0997 -1.39599,-0.30076 -2.07509,-0.44675 -0.67909,-0.14599 -1.86972,-0.33975 -2.64583,-0.43058 -0.77611,-0.0908 -1.84241,-0.24479 -2.36955,-0.34214 -1.62419,-0.29996 -6.36936,-0.20483 -9.00753,0.18059 -3.68161,0.53786 -4.66036,0.71829 -4.84188,0.8926 -0.0922,0.0885 -0.34736,0.16091 -0.5671,0.16091 -0.37605,0 -1.65663,0.36512 -2.44033,0.69579 -0.19403,0.0819 -0.74965,0.28379 -1.23472,0.44872 -1.71335,0.58258 -6.08541,2.69033 -6.08541,2.93375 0,0.0853 -0.0923,0.15507 -0.20505,0.15507 -0.19081,0 -1.89149,1.00837 -2.08801,1.23802 -0.0485,0.0567 -0.48401,0.37679 -0.96778,0.71134 -0.48378,0.33456 -0.9659,0.68766 -1.07139,0.78467 -0.10549,0.097 -0.45972,0.37483 -0.78717,0.61736 -0.6845,0.507 -5.11116,4.93975 -5.11116,5.1182 0,0.0652 -0.20353,0.34923 -0.45229,0.6311 -0.67623,0.76626 -2.54632,3.62676 -2.54632,3.89488 0,0.12848 -0.0605,0.2336 -0.13456,0.2336 -0.074,0 -0.21292,0.15107 -0.30868,0.33572 -0.37246,0.71814 -0.861155,1.74084 -1.356765,2.83928 -0.28451,0.63059 -0.58112,1.2682 -0.65913,1.4169 -0.078,0.14871 -0.20078,0.54558 -0.27283,0.88195 -0.072,0.33636 -0.18455,0.69094 -0.25002,0.78796 -0.0655,0.097 -0.26027,0.65264 -0.43289,1.23472 -0.17263,0.58208 -0.38702,1.30018 -0.47643,1.59578 -0.0894,0.29559 -0.21403,0.91291 -0.27693,1.37183 -0.0629,0.45891 -0.18265,0.87659 -0.26612,0.92817 -0.0835,0.0516 -0.15365,0.38676 -0.15596,0.74484 -0.002,0.35807 -0.081,0.96855 -0.17495,1.3566 -0.5704,2.35704 -0.78764,9.49719 -0.39712,13.05278 0.34976,3.18458 1.17667,6.48013 2.26978,9.04592 0.13573,0.31858 0.24678,0.69561 0.24678,0.83784 0,0.14223 0.0794,0.2586 0.17639,0.2586 0.097,0 0.17638,0.11637 0.17638,0.2586 0,0.24921 0.52478,1.50038 0.70556,1.68217 0.0485,0.0488 0.27891,0.44566 0.51201,0.88195 0.571245,1.06922 2.193795,3.52281 2.648475,4.00498 0.20201,0.21422 0.36729,0.43912 0.36729,0.49977 0,0.15541 3.51738,3.58515 4.3432,4.23499 0.37613,0.29598 1.00138,0.72916 1.38944,0.96262 0.38805,0.23346 0.73201,0.48739 0.76435,0.56428 0.0323,0.0769 0.17124,0.13981 0.30868,0.13981 0.13744,0 0.24988,0.0606 0.24988,0.13474 0,0.0741 0.41672,0.32936 0.92605,0.56722 0.50932,0.23786 0.96572,0.4765 1.01423,0.5303 0.13907,0.15427 1.03812,0.52656 2.1975,0.90997 0.58613,0.19383 1.22445,0.42042 1.41847,0.50351 0.19403,0.0831 0.67028,0.20159 1.05834,0.26331 1.51267,0.24059 2.02846,0.47229 2.02846,0.91123 0,0.40358 -0.40604,0.57858 -0.603,0.25989 -0.0521,-0.0842 -0.55284,-0.20539 -1.11284,-0.26923 -0.94191,-0.10738 -2.00695,-0.39705 -2.42929,-0.66072 -0.097,-0.0606 -0.42863,-0.1642 -0.73692,-0.23028 -0.30829,-0.0661 -1.19799,-0.43261 -1.9771,-0.81449 -0.7791,-0.38189 -1.49921,-0.69434 -1.60023,-0.69434 -0.10101,0 -0.18367,-0.0608 -0.18367,-0.13518 0,-0.0744 -0.4564,-0.4073 -1.01423,-0.73989 -0.55783,-0.3326 -1.10466,-0.68848 -1.21518,-0.79087 -0.11052,-0.10238 -0.42201,-0.34489 -0.69221,-0.53892 -1.05926,-0.76064 -3.23507,-2.82258 -4.51675,-4.28036 -0.789,-0.8974 -2.656415,-3.52482 -2.912705,-4.09811 -0.0651,-0.14553 -0.30267,-0.56067 -0.52804,-0.92254 -0.22537,-0.36188 -0.40977,-0.77859 -0.40977,-0.92604 0,-0.14745 -0.0641,-0.26809 -0.14244,-0.26809 -0.0784,0 -0.28077,-0.33734 -0.44983,-0.74965 -0.16906,-0.41231 -0.41097,-0.98778 -0.53756,-1.27882 -0.12659,-0.29105 -0.36073,-0.82952 -0.52031,-1.19661 -0.15957,-0.3671 -0.29013,-0.81027 -0.29013,-0.98484 0,-0.17457 -0.0568,-0.37416 -0.12614,-0.44353 -0.22043,-0.22043 -0.7409,-2.21274 -1.11137,-4.25419 -0.10564,-0.58208 -0.27153,-1.29646 -0.36865,-1.5875 -0.25955,-0.77778 -0.39083,-9.02472 -0.1797,-11.28889 0.38855,-4.16682 1.13176,-7.92267 2.04188,-10.31875 0.12897,-0.33955 0.38176,-1.09361 0.56175,-1.67569 0.17999,-0.58209 0.37216,-1.09802 0.42706,-1.14653 0.0549,-0.0485 0.32283,-0.61863 0.59543,-1.26695 0.27259,-0.64831 0.84317,-1.78853 1.26796,-2.53383 0.424775,-0.7453 0.772325,-1.42533 0.772325,-1.51118 0,-0.0859 0.0794,-0.1561 0.17639,-0.1561 0.097,0 0.17639,-0.0879 0.17639,-0.19532 0,-0.25036 2.28842,-3.31173 3.34024,-4.46845 1.80956,-1.99003 4.6179,-4.61205 5.25872,-4.90982 0.21828,-0.10144 0.39687,-0.25106 0.39687,-0.3325 0,-0.0814 0.11907,-0.14807 0.26459,-0.14807 0.14552,0 0.26458,-0.0623 0.26458,-0.13836 0,-0.0761 0.23524,-0.27732 0.52275,-0.44716 0.28751,-0.16983 0.62631,-0.40523 0.75288,-0.5231 0.12658,-0.11786 0.5065,-0.36707 0.84427,-0.5538 0.33777,-0.18672 0.65388,-0.38515 0.70246,-0.44097 0.24297,-0.27915 4.53436,-2.42308 5.15923,-2.57749 0.26679,-0.0659 0.48507,-0.18163 0.48507,-0.25711 0,-0.0755 0.21828,-0.17848 0.48507,-0.22887 0.42009,-0.0793 2.60017,-0.78326 3.66007,-1.18178 0.3286,-0.12355 1.64657,-0.41603 3.96875,-0.88073 2.83449,-0.56723 8.67326,-0.87265 10.58333,-0.55362 0.63059,0.10533 1.82122,0.26823 2.64584,0.362 2.34205,0.26634 4.65347,0.72546 6.70277,1.33139 0.53358,0.15777 1.24796,0.35437 1.5875,0.4369 0.69058,0.16784 1.8052,0.57833 1.94028,0.71456 0.0485,0.0489 0.55816,0.24501 1.13255,0.43576 1.77364,0.589 7.33412,3.49541 7.33412,3.83347 0,0.0769 0.11033,0.13974 0.24518,0.13974 0.21743,0 2.18097,1.34781 2.68031,1.83982 0.1053,0.10376 0.54186,0.46307 0.97014,0.79846 1.00739,0.78893 3.95069,3.72905 4.84548,4.84026 0.38263,0.47517 0.77563,0.95142 0.87333,1.05833 0.50059,0.54777 2.26066,3.36638 2.87501,4.6041 0.93867,1.89112 1.18465,2.47104 1.5338,3.61597 0.16271,0.53358 0.36178,1.12889 0.44237,1.32292 0.0806,0.19403 0.19168,0.63059 0.24686,0.97014 0.0552,0.33955 0.18466,1.01424 0.28772,1.4993 0.10306,0.48507 0.19182,1.76481 0.19725,2.84386 0.0114,2.26444 -0.20931,2.93971 -1.2956,3.96412 -0.36998,0.3489 -0.67268,0.79413 -0.67268,0.9894 0,0.36827 1.31253,1.99221 1.61018,1.99221 0.093,0 0.38311,0.19844 0.64467,0.44097 0.30852,0.28608 0.68099,0.44097 1.0604,0.44097 0.67604,0 3.14068,1.49265 3.55321,2.15191 1.07363,1.7158 1.33162,2.60601 1.60004,5.52101 0.44409,4.82277 0.52443,5.93088 0.52582,7.25294 0.002,2.22219 -0.81842,6.24081 -1.27462,6.24081 -0.0742,0 -0.13498,0.0837 -0.13498,0.18595 0,0.33385 -0.95165,1.20311 -1.81732,1.65999 -1.09013,0.57534 -2.79706,0.62336 -3.72054,0.10467 -0.70096,-0.39371 -0.86992,-0.28573 -1.07879,0.68943 -0.072,0.33637 -0.19147,0.73324 -0.26539,0.88195 -0.0739,0.1487 -0.28211,0.58666 -0.46264,0.97324 -0.18053,0.38657 -0.42746,0.80896 -0.54872,0.93864 -0.12127,0.12967 -0.22049,0.32016 -0.22049,0.42331 0,0.28053 -2.0686,2.25671 -2.36226,2.25671 -0.13979,0 -0.28681,0.0979 -0.3267,0.21757 -0.10984,0.32952 -3.2799,0.29855 -3.94105,-0.0385 -0.96616,-0.49255 -2.28901,-1.54436 -2.80333,-2.22896 -0.28269,-0.37627 -0.55787,-0.72383 -0.6115,-0.77233 -0.18545,-0.16772 -0.53325,-0.79906 -1.16605,-2.11667 -0.65545,-1.36478 -0.70783,-1.4855 -1.22453,-2.82222 -0.16875,-0.43656 -0.37206,-0.9525 -0.45181,-1.14653 -0.0798,-0.19403 -0.19848,-0.63059 -0.26384,-0.97014 -0.0654,-0.33955 -0.17593,-0.69674 -0.24572,-0.79375 -0.0698,-0.097 -0.26552,-0.73201 -0.43497,-1.41111 -0.16944,-0.6791 -0.37649,-1.39347 -0.46011,-1.5875 -0.0836,-0.19403 -0.20259,-0.70997 -0.26439,-1.14653 -0.0618,-0.43656 -0.18032,-1.03187 -0.26336,-1.32291 -0.69806,-2.44661 -1.2876,-8.55667 -1.20325,-12.47075 0.0412,-1.9101 0.12809,-2.83776 0.28016,-2.98979 0.12127,-0.12124 0.22049,-0.37091 0.22049,-0.55482 0,-0.7324 1.16935,-2.35547 2.15456,-2.99055 0.62072,-0.40012 2.46461,-0.42932 2.78433,-0.0441 0.12077,0.14553 0.30908,0.26628 0.41847,0.26835 0.28378,0.005 1.05107,1.17364 1.41564,2.15544 0.35318,0.95112 0.32181,2.13879 -0.14095,5.33733 -0.37662,2.60311 -0.25143,3.26249 1.18886,6.2618 0.20965,0.43656 0.4407,0.82021 0.51346,0.85255 0.0728,0.0323 0.13229,0.16557 0.13229,0.29608 0,0.13051 0.10063,0.34217 0.22361,0.47037 0.12299,0.1282 0.37877,0.59027 0.5684,1.02684 0.18963,0.43656 0.39732,0.83343 0.46154,0.88194 0.0642,0.0485 0.16235,0.24694 0.21808,0.44097 0.0557,0.19403 0.0575,-0.0441 0.004,-0.52916 -0.0536,-0.48507 -0.1602,-0.96132 -0.23693,-1.05834 -0.0767,-0.097 -0.19846,-0.45159 -0.27051,-0.78796 -0.072,-0.33636 -0.18908,-0.73324 -0.26009,-0.88194 -0.25977,-0.54404 -0.70799,-2.09155 -0.70799,-2.4444 0,-0.19954 -0.0725,-0.40758 -0.16104,-0.46232 -0.0886,-0.0547 -0.21661,-0.43646 -0.28452,-0.84826 -0.0679,-0.4118 -0.18434,-0.8281 -0.25871,-0.92512 -0.0744,-0.097 -0.22009,-0.9084 -0.32382,-1.80308 -0.21059,-1.8163 -0.0435,-3.43925 0.45915,-4.45872 0.36102,-0.7323 1.37165,-1.76389 1.72803,-1.76389 0.13861,0 0.25202,-0.0668 0.25202,-0.14847 0,-0.19339 1.22085,-0.55709 1.87002,-0.55709 0.5388,0 2.36332,0.83932 2.36332,1.08718 0,0.0812 0.12774,0.14754 0.28388,0.14754 0.22286,0 0.26274,-0.12322 0.18553,-0.57326 -0.16387,-0.95515 -0.55167,-2.50236 -0.67455,-2.69127 -0.0636,-0.0978 -0.17151,-0.47567 -0.23982,-0.8398 -0.0683,-0.36413 -0.19458,-0.70556 -0.28059,-0.75872 -0.086,-0.0532 -0.1564,-0.27453 -0.1564,-0.49194 0,-0.21741 -0.0679,-0.47069 -0.15089,-0.56285 -0.083,-0.0922 -0.2885,-0.60414 -0.45669,-1.13771 -0.16819,-0.53358 -0.53685,-1.47177 -0.81924,-2.08488 -0.2824,-0.6131 -0.51345,-1.22826 -0.51345,-1.36701 0,-0.13875 -0.0595,-0.25308 -0.1323,-0.25407 -0.0728,-10e-4 -0.32605,-0.43754 -0.56287,-0.97014 -0.23681,-0.53259 -0.49478,-0.96835 -0.57326,-0.96835 -0.0785,0 -0.14269,-0.11906 -0.14269,-0.26458 0,-0.14552 -0.0708,-0.26458 -0.15726,-0.26458 -0.0865,0 -0.20707,-0.19844 -0.26795,-0.44098 -0.0609,-0.24253 -0.18854,-0.44097 -0.2837,-0.44097 -0.0952,0 -0.17303,-0.077 -0.17303,-0.17123 0,-0.2409 -1.09591,-1.76905 -1.26868,-1.76905 -0.0783,0 -0.14243,-0.11611 -0.14243,-0.25803 0,-0.26068 -3.96448,-4.32808 -4.21857,-4.32808 -0.0754,0 -0.31349,-0.15292 -0.52899,-0.33982 -0.84655,-0.73421 -4.70849,-2.96985 -6.36494,-3.68461 -0.24254,-0.10465 -1.07597,-0.43802 -1.85208,-0.74082 -0.77612,-0.3028 -1.53323,-0.61467 -1.68248,-0.69306 -0.14925,-0.0784 -0.62245,-0.20183 -1.05155,-0.27433 -0.4291,-0.0725 -0.9023,-0.19394 -1.05155,-0.26988 -0.42282,-0.21512 -1.76196,-0.55403 -2.82901,-0.71596 -0.53357,-0.081 -1.52576,-0.23761 -2.20486,-0.34809 -1.45873,-0.23731 -9.54056,-0.11722 -10.49514,0.15595 -0.33955,0.0972 -1.25236,0.31072 -2.02847,0.47455 -0.77611,0.16383 -1.59344,0.36928 -1.81628,0.45656 -0.22285,0.0873 -0.52835,0.15868 -0.6789,0.15868 -0.15055,0 -0.52385,0.10939 -0.82955,0.2431 -0.3057,0.1337 -0.9527,0.37932 -1.43777,0.54581 -0.48507,0.16648 -1.13207,0.41428 -1.43777,0.55065 -0.3057,0.13637 -0.64305,0.24794 -0.74965,0.24794 -0.10661,0 -0.19383,0.0794 -0.19383,0.17639 0,0.097 -0.081,0.17639 -0.1801,0.17639 -0.18758,0 -2.48774,1.0724 -2.64212,1.23184 -0.13731,0.1418 -0.75682,0.51615 -1.14653,0.69281 -0.19403,0.088 -0.78383,0.48464 -1.31068,0.88152 -0.52683,0.39688 -1.01182,0.72161 -1.07775,0.72161 -0.0659,0 -0.41442,0.27781 -0.77445,0.61736 -0.36003,0.33955 -0.69393,0.61736 -0.742,0.61736 -0.0481,0 -0.37977,0.27883 -0.7371,0.61963 -0.35732,0.3408 -0.90711,0.79721 -1.22174,1.01424 -0.31463,0.21703 -0.5726,0.45413 -0.57326,0.52689 -7.1e-4,0.0728 -0.29886,0.43855 -0.66267,0.81286 -2.78953,2.8701 -4.77821,5.69622 -6.53392,9.28541 -0.89358,1.82672 -2.08272,4.96967 -2.24604,5.93635 -0.07,0.41407 -0.18991,0.87497 -0.26657,1.02422 -0.36519,0.71103 -1.04747,5.7446 -1.0502,7.74791 -0.002,1.6341 0.43104,5.12064 0.8683,6.98735 0.36455,1.55631 0.55309,2.23082 0.70426,2.5195 0.0872,0.1665 0.29211,0.6996 0.45538,1.18467 0.16328,0.48507 0.40844,1.13206 0.54481,1.43777 0.13637,0.3057 0.24794,0.64304 0.24794,0.74965 0,0.1066 0.0595,0.19412 0.13229,0.19449 0.0728,3.5e-4 0.2852,0.37739 0.47207,0.83785 0.18688,0.46045 0.39003,0.87687 0.45144,0.92538 0.0614,0.0485 0.49356,0.72319 0.96033,1.4993 0.46677,0.77611 0.90068,1.4508 0.96424,1.49931 0.0636,0.0485 0.38998,0.44538 0.72538,0.88194 0.33541,0.43656 0.80961,0.99995 1.05378,1.25196 0.24417,0.25202 0.64238,0.69204 0.88492,0.97782 0.24253,0.28578 0.99659,0.97372 1.67569,1.52875 0.6791,0.55503 1.35828,1.12476 1.5093,1.26608 0.15102,0.14132 0.94477,0.63865 1.76389,1.10518 1.30672,0.74425 1.85239,1.00501 3.42958,1.63896 0.32414,0.13029 0.90699,0.29627 3.08669,0.87903 0.43649,0.1167 1.90493,0.2768 3.26319,0.35578 7.31128,0.42512 8.15945,0.52939 11.1016,1.36479 1.2302,0.3493 2.80023,1.41379 4.56167,3.09282 1.47438,1.4054 1.86773,1.718 2.48793,1.97713 1.03243,0.43138 1.83441,0.32537 3.36837,-0.44524 1.27427,-0.64016 1.53013,-0.70556 2.76036,-0.70556 1.64734,0 1.91394,-0.0898 1.91394,-0.64499 0,-0.96125 -1.17853,-2.2898 -2.7207,-3.06702 -0.80229,-0.40434 -1.37976,-0.7394 -1.51263,-0.87769 -0.0485,-0.0505 -0.28663,-0.18677 -0.52917,-0.30287 -0.24253,-0.11609 -0.99659,-0.53093 -1.67569,-0.92186 -0.6791,-0.39092 -2.62379,-1.39487 -4.32153,-2.23099 -2.75115,-1.35491 -3.55891,-1.73796 -5.55625,-2.63483 -0.29104,-0.13069 -0.96074,-0.44016 -1.48822,-0.68771 -0.52748,-0.24755 -1.03142,-0.45009 -1.11987,-0.45009 -0.0885,0 -0.41094,-0.10829 -0.71664,-0.24063 -0.3057,-0.13235 -0.91301,-0.38125 -1.34958,-0.55312 -0.43656,-0.17188 -1.04387,-0.42078 -1.34957,-0.55313 -0.3057,-0.13234 -0.68273,-0.24062 -0.83785,-0.24062 -0.15511,0 -0.28202,-0.0794 -0.28202,-0.17639 0,-0.097 -0.12399,-0.17639 -0.27554,-0.17639 -0.15154,0 -0.65532,-0.12422 -1.1195,-0.27605 -0.46418,-0.15182 -1.19346,-0.25104 -1.62064,-0.22049 l -0.77668,0.0556 -0.053,1.22995 c -0.0292,0.67648 0.0637,1.78773 0.20642,2.46945 0.59183,2.82707 0.53135,4.082 -0.20564,4.26698 -0.34541,0.0867 -0.5223,0.0154 -0.77118,-0.31097 -0.17762,-0.23291 -0.40236,-0.51934 -0.49941,-0.63651 -0.097,-0.11717 -0.17645,-0.28395 -0.17645,-0.3706 0,-0.0867 -0.18897,-0.51297 -0.41993,-0.94736 -0.23097,-0.43438 -0.51569,-1.35747 -0.63272,-2.0513 -0.29361,-1.74071 -0.0454,-2.87502 0.80455,-3.67661 0.3443,-0.32472 0.72534,-0.5904 0.84676,-0.5904 0.12142,0 0.39538,-0.34965 0.60882,-0.77701 0.62986,-1.26118 3.11585,-3.45632 3.91427,-3.45632 0.15166,0 0.35116,-0.0682 0.44332,-0.15153 0.24273,-0.21949 2.11471,-0.55402 3.1002,-0.55402 0.98728,0 3.43598,0.31831 3.94654,0.51302 0.19403,0.074 1.02746,0.35262 1.85208,0.61916 1.93133,0.62427 2.82451,1.00502 6.08542,2.59416 1.06715,0.52006 1.96674,1.00563 1.99907,1.07905 0.0323,0.0734 0.14061,0.13349 0.24059,0.13349 0.1,0 0.75488,0.35719 1.45532,0.79375 0.70043,0.43657 1.36608,0.79375 1.4792,0.79375 0.11312,0 0.20568,0.0623 0.20568,0.13836 0,0.0761 0.25797,0.28858 0.57326,0.47217 2.52542,1.47056 5.63058,4.35865 6.43882,5.98871 0.88146,1.77771 1.21455,3.43181 0.74903,3.71951 -0.097,0.06 -0.17639,0.25442 -0.17639,0.43212 0,0.47057 -0.55042,1.60717 -1.05882,2.18643 -0.60788,0.69262 -1.33139,1.03435 -2.45037,1.15739 -0.67736,0.0745 -1.00773,0.20181 -1.14652,0.44192 -0.36749,0.63574 -1.8263,1.86756 -2.21169,1.86756 -0.10348,0 -0.18815,0.0701 -0.18815,0.15578 0,0.32113 -2.56368,0.77155 -3.8144,0.67017 -3.15142,-0.25544 -4.204,-0.65244 -10.4731,-3.95005 -0.72761,-0.38272 -1.48167,-0.78825 -1.6757,-0.90116 -0.71312,-0.415 -3.46793,-1.61918 -3.7042,-1.61918 -0.13405,0 -0.28722,-0.0704 -0.34038,-0.1564 -0.0532,-0.086 -0.39519,-0.20987 -0.76007,-0.27524 -0.36487,-0.0654 -0.90982,-0.20519 -1.21099,-0.31072 -0.66772,-0.23398 -1.5285,0.0839 -1.84908,0.68297 -0.17317,0.32357 -0.14394,0.53104 0.16843,1.19559 0.41305,0.87871 0.60857,0.95695 1.25685,0.50287 0.57176,-0.40048 3.36567,-0.38398 4.14906,0.0245 0.28957,0.15098 0.62679,0.27501 0.74937,0.27561 0.12259,5.3e-4 0.36071,0.0766 0.52917,0.16893 0.16846,0.0923 0.62379,0.30646 1.01184,0.47588 0.38806,0.16942 0.74525,0.35186 0.79375,0.40542 0.0485,0.0536 0.468,0.29568 0.93222,0.53804 0.46421,0.24236 1.05202,0.6194 1.30625,0.83785 0.25423,0.21845 0.50942,0.39846 0.56709,0.4 0.12901,0.003 1.03923,0.79426 2.25837,1.96204 1.07463,1.02936 1.46246,1.7228 1.46246,2.61487 0,0.8393 -0.85116,1.77028 -1.61851,1.77028 -0.64306,0 -2.11578,-0.34792 -2.34142,-0.55315 -0.0922,-0.0838 -0.27989,-0.15241 -0.41717,-0.15241 -0.23791,0 -4.25805,-1.9085 -4.44234,-2.10894 -0.0485,-0.0528 -0.48507,-0.37242 -0.97014,-0.71037 -0.48507,-0.33794 -1.07475,-0.7745 -1.31041,-0.97014 -1.10464,-0.91703 -1.89145,-1.63841 -2.35996,-2.16367 -0.51926,-0.58218 -1.00576,-0.75351 -1.0017,-0.35278 0.006,0.56637 1.15769,2.40051 2.05121,3.26593 1.01903,0.98699 3.20597,2.50643 3.62188,2.51641 0.12854,0.003 0.38778,0.12215 0.57609,0.26459 0.18832,0.14243 0.48705,0.25897 0.66386,0.25897 0.1768,0 0.45928,0.0734 0.62774,0.16321 0.64412,0.34323 2.83412,0.71966 4.18684,0.71966 1.35273,0 3.54273,-0.37643 4.18685,-0.71966 0.16845,-0.0898 0.38537,-0.16321 0.48202,-0.16321 0.0967,0 0.91133,-0.34954 1.81038,-0.77675 0.89906,-0.42722 1.90064,-0.83216 2.22574,-0.89988 0.62345,-0.12986 2.14293,0.19974 2.14293,0.46483 0,0.0844 0.11906,0.15347 0.26458,0.15347 0.14552,0 0.26459,0.0603 0.26459,0.13409 0,0.0737 0.17859,0.33172 0.39687,0.57327 0.46679,0.51653 1.01424,1.64225 1.01424,2.08557 0,0.17133 0.0789,0.39039 0.17528,0.4868 0.0964,0.0964 0.25512,1.08462 0.35269,2.19604 0.53676,6.11376 0.57822,6.33217 1.63933,8.63534 0.69189,1.50177 2.79671,3.52778 3.66501,3.52778 0.0938,0 0.16491,-0.98704 0.16491,-2.28949 0,-1.70315 0.0744,-2.48238 0.29045,-3.04271 0.3231,-0.83793 1.12742,-1.7103 1.87861,-2.03758 1.60998,-0.70142 4.40085,0.39365 5.1876,2.03549 0.42622,0.88945 0.42147,2.90914 -0.009,3.71323 -0.43167,0.80683 -1.48755,1.94444 -2.25361,2.42803 -0.70857,0.4473 -2.62809,0.86224 -3.25772,0.70421 -0.22213,-0.0557 -0.44248,-0.0389 -0.48966,0.0374 -0.11004,0.17804 0.20217,1.79573 0.42407,2.19726 0.0931,0.16846 0.16975,0.44627 0.17034,0.61736 5.3e-4,0.17109 0.11966,0.53843 0.26459,0.81631 0.14492,0.27787 0.26349,0.58044 0.26349,0.67238 0,0.24643 1.41258,3.3328 1.60037,3.49669 0.0556,0.0485 0.1491,0.21873 0.20781,0.37826 0.0587,0.15955 0.55083,0.99298 1.09359,1.85209 0.54276,0.85911 1.08425,1.71741 1.2033,1.90734 0.11905,0.18993 0.29584,0.43817 0.39285,0.55165 0.097,0.11348 0.29545,0.38452 0.44097,0.60233 0.14552,0.2178 0.3638,0.49967 0.48507,0.62637 0.12127,0.1267 0.22049,0.27952 0.22049,0.33959 0,0.0601 0.18353,0.28402 0.40786,0.49767 0.22432,0.21365 0.52198,0.55457 0.66145,0.75759 0.2616,0.38078 1.29981,1.6422 2.14697,2.60854 0.26524,0.30255 0.48352,0.60396 0.48507,0.66979 0.002,0.0658 0.10485,0.22458 0.22957,0.35278 0.12471,0.12819 0.50174,0.62996 0.83784,1.11503 0.33611,0.48507 0.65079,0.92163 0.69929,0.97014 0.17822,0.17821 0.54233,0.80242 0.64306,1.10243 0.057,0.16977 0.17376,0.30868 0.25946,0.30868 0.0857,0 0.15582,0.12691 0.15582,0.28202 0,0.1551 0.10878,0.53214 0.24173,0.83785 0.5574,1.28166 0.72841,2.21963 0.72841,3.9954 0,1.97807 -0.2237,2.9733 -0.92315,4.10704 -0.53667,0.86992 -1.73848,2.06658 -2.07547,2.06658 -0.14552,0 -0.26458,0.062 -0.26458,0.13772 0,0.0757 -0.25797,0.24684 -0.57326,0.38022 -1.648,0.69718 -4.63702,0.87981 -7.18785,0.4392 z m -0.683,-35.79658 c 1.08266,-0.48638 2.2705,-1.43916 2.2705,-1.82119 0,-0.0964 0.0815,-0.20242 0.18114,-0.23563 0.0996,-0.0332 0.29697,-0.49623 0.43853,-1.02894 0.22888,-0.86124 0.22678,-1.06139 -0.0189,-1.8064 -0.15198,-0.46082 -0.34932,-0.83785 -0.43854,-0.83785 -0.0892,0 -0.16221,-0.11906 -0.16221,-0.26458 0,-0.14552 -0.11906,-0.26459 -0.26458,-0.26459 -0.14552,0 -0.26459,-0.0686 -0.26459,-0.15242 0,-0.25343 -1.4622,-0.72952 -2.24056,-0.72952 -1.92671,0 -2.84704,1.71349 -2.62763,4.89219 0.16668,2.41462 0.22684,2.51614 1.4909,2.51614 0.57264,0 1.30882,-0.12024 1.63596,-0.26721 z m -21.28571,-17.39999 c 0.36064,-0.16432 0.44889,-0.32959 0.44738,-0.83785 -0.002,-0.5595 -0.17384,-0.8024 -1.48025,-2.08835 -0.81309,-0.80036 -1.55969,-1.45521 -1.6591,-1.45521 -0.0994,0 -0.20721,-0.0595 -0.23955,-0.13229 -0.0827,-0.18603 -1.03303,-0.83721 -2.0333,-1.39323 -1.22764,-0.6824 -1.30649,-0.72171 -2.08244,-1.0384 -0.38806,-0.15838 -0.84038,-0.35878 -1.00516,-0.44534 -0.16478,-0.0866 -0.85894,-0.28461 -1.54258,-0.4401 -0.98322,-0.22363 -1.36921,-0.24105 -1.84705,-0.0833 -1.08959,0.35959 -1.11222,0.58706 -0.16199,1.62829 0.46894,0.51385 0.96079,1.00276 1.093,1.08647 0.13222,0.0837 0.37548,0.28214 0.54058,0.44097 0.16511,0.15883 0.65225,0.56365 1.08253,0.89961 0.43028,0.33595 0.80879,0.6733 0.84113,0.74965 0.0323,0.0764 0.12291,0.13882 0.20128,0.13882 0.0784,0 0.88127,0.43657 1.78423,0.97014 0.90296,0.53358 1.78473,0.97014 1.95949,0.97014 0.17475,0 0.31773,0.0701 0.31773,0.15583 0,0.0857 0.1786,0.19738 0.39688,0.24816 0.21828,0.0508 0.79375,0.25093 1.27882,0.44475 1.04558,0.41779 1.50297,0.45712 2.10837,0.18128 z m 15.30989,-8.44807 c 0.67553,-0.75681 1.19077,-2.08047 1.19077,-3.05911 0,-0.51931 -0.48674,-2.04453 -0.70937,-2.22284 -0.0606,-0.0485 -0.16335,-0.20726 -0.22842,-0.35278 -0.51899,-1.16072 -3.73707,-4.14405 -5.19173,-4.813 -0.21828,-0.10038 -0.39687,-0.24915 -0.39687,-0.33059 0,-0.0814 -0.0703,-0.14807 -0.15629,-0.14807 -0.086,0 -0.62174,-0.30955 -1.19063,-0.68789 -0.56888,-0.37833 -1.37207,-0.8628 -1.78487,-1.0766 -0.41279,-0.2138 -0.79451,-0.45987 -0.84825,-0.54684 -0.0538,-0.087 -0.24518,-0.15812 -0.4254,-0.15812 -0.18021,0 -0.35412,-0.0692 -0.38646,-0.1538 -0.0703,-0.18397 -3.33441,-1.78648 -3.63881,-1.78648 -0.11679,0 -0.21235,-0.0794 -0.21235,-0.17639 0,-0.097 -0.15406,-0.17638 -0.34237,-0.17638 -0.1883,0 -0.38553,-0.0699 -0.43829,-0.15521 -0.0528,-0.0854 -0.51385,-0.29077 -1.02465,-0.45644 -0.51079,-0.16567 -1.16684,-0.40113 -1.45788,-0.52323 -1.78849,-0.75033 -3.46164,-1.05628 -5.73264,-1.04827 -1.8816,0.007 -2.91017,0.17794 -3.70417,0.6169 -0.94259,0.5211 -2.05638,1.37613 -2.38739,1.83274 -0.19065,0.26298 -0.44586,0.58275 -0.56712,0.71059 -0.3351,0.35326 -0.27178,0.43403 0.34025,0.43403 0.30841,0 0.8045,0.0772 1.10243,0.17152 2.46572,0.78075 2.89103,0.93296 4.27252,1.52896 0.3057,0.13189 0.68273,0.23979 0.83784,0.23979 0.15512,0 0.28203,0.0794 0.28203,0.17639 0,0.097 0.15231,0.17639 0.33848,0.17639 0.18617,0 0.5632,0.11421 0.83785,0.25379 0.82164,0.41759 1.77454,0.80455 1.98123,0.80455 0.1066,0 0.19383,0.0794 0.19383,0.17638 0,0.097 0.15406,0.17639 0.34236,0.17639 0.18831,0 0.38708,0.0724 0.44173,0.16077 0.0546,0.0884 0.61496,0.34568 1.24513,0.57169 0.63018,0.226 1.14578,0.47116 1.14578,0.54479 0,0.0736 0.0861,0.13386 0.19134,0.13386 0.18665,0 5.278,2.47042 5.4531,2.64595 0.0485,0.0486 0.44538,0.27106 0.88194,0.49429 0.43657,0.22324 1.03188,0.54744 1.32292,0.72046 0.29104,0.17302 1.00542,0.57883 1.5875,0.9018 0.58208,0.32298 1.29646,0.73403 1.5875,0.91345 0.29104,0.17942 0.66807,0.37405 0.83785,0.43251 0.16977,0.0585 0.30868,0.17193 0.30868,0.25215 0,0.0802 0.23812,0.2865 0.52917,0.45843 0.29104,0.17192 0.52916,0.41453 0.52916,0.53913 0,0.12461 0.0686,0.22656 0.15243,0.22656 0.21674,0 0.72952,1.41529 0.72952,2.01349 0,0.48894 0.0201,0.49976 0.74965,0.40379 0.59483,-0.0782 0.88623,-0.25163 1.41097,-0.8395 z m -30.46404,-6.85813 c -0.15435,-0.24974 -0.6456,-3.27656 -0.7748,-4.77382 -0.11709,-1.35701 -0.15497,-1.3778 -0.68648,-0.37671 -0.32028,0.60325 -0.27181,2.09632 0.10106,3.11323 0.54037,1.4737 0.93982,2.20237 1.20734,2.20237 0.14019,0 0.20899,-0.0743 0.15288,-0.16507 z m 44.90175,-0.20008 c 1.38833,-0.43709 2.1011,-1.03035 3.05798,-2.54527 0.48741,-0.77167 0.73401,-1.29132 1.33929,-2.82222 0.28418,-0.71877 0.70023,-2.19235 0.70023,-2.48009 0,-0.24412 0.0472,-0.25796 0.26458,-0.0776 0.14552,0.12077 0.26459,0.30201 0.26459,0.40274 0,0.10073 0.25242,0.40852 0.56093,0.68396 0.49299,0.44014 0.69842,0.5008 1.69592,0.5008 1.69923,0 2.67949,-0.58556 3.3629,-2.00883 0.80986,-1.68665 0.91734,-2.16398 1.01719,-4.51756 0.12461,-2.93721 -0.33389,-9.20682 -0.79976,-10.93611 -0.40883,-1.51755 -1.38752,-3.175 -1.87477,-3.175 -0.0782,0 -0.28792,-0.1318 -0.46593,-0.2929 -0.46448,-0.42035 -0.50847,-0.24993 -0.1439,0.55748 0.94226,2.08683 0.96845,2.34942 0.9687,9.71475 l 1.8e-4,6.89252 -0.50384,0.99641 c -0.43009,0.85057 -0.59197,1.01294 -1.10599,1.10937 -0.46718,0.0876 -0.73946,0.0195 -1.21474,-0.30421 -0.33693,-0.22944 -0.61314,-0.51639 -0.61381,-0.63766 -7e-4,-0.12126 -0.0647,-0.22048 -0.14227,-0.22048 -0.23222,0 -0.7276,-2.4507 -0.82005,-4.05695 -0.0475,-0.82461 -0.21494,-3.04711 -0.37217,-4.93888 -0.47407,-5.70406 -0.50592,-7.3224 -0.16543,-8.40492 0.16332,-0.51903 0.36888,-0.9437 0.45686,-0.9437 0.088,0 0.15998,-0.0905 0.15998,-0.20104 0,-0.11057 0.1389,-0.30906 0.30868,-0.44109 0.28909,-0.22481 0.28069,-0.26316 -0.13229,-0.60425 -1.13605,-0.93828 -1.90175,-1.7112 -2.20013,-2.22089 -0.36734,-0.62747 -0.93588,-0.64681 -0.60065,-0.0204 0.25948,0.48484 0.38631,2.86251 0.20486,3.84048 -0.12804,0.69014 -0.23596,0.83561 -0.82676,1.11447 -0.84358,0.39816 -1.49824,0.19888 -2.35406,-0.71659 -0.55968,-0.59869 -0.67136,-0.99581 -0.58315,-2.07357 0.0588,-0.71896 0.80269,-2.02847 1.15224,-2.02847 0.0601,0 0.31013,-0.21679 0.55569,-0.48176 l 0.44647,-0.48175 -0.49899,-0.39932 c -1.38627,-1.10935 -3.84311,0.11654 -4.54711,2.26889 -0.30331,0.92733 -0.36206,2.91873 -0.1108,3.75572 0.0894,0.29793 0.29002,1.01794 0.44573,1.60002 0.39181,1.46464 0.82553,2.93102 0.99127,3.35139 0.13407,0.34005 0.39697,1.20873 0.98761,3.26319 0.15339,0.53358 0.34178,1.09738 0.41864,1.2529 0.0769,0.15551 0.19506,0.65161 0.26266,1.10243 0.0676,0.45082 0.18495,0.81967 0.26075,0.81967 0.0758,0 0.17744,0.29766 0.22584,0.66146 0.0994,0.74718 0.43402,2.07249 0.65689,2.60174 0.19341,0.45928 0.55266,2.70483 0.6528,4.08036 0.0625,0.85912 0.002,1.23122 -0.29175,1.80799 -0.34792,0.68197 -0.41708,0.72623 -1.13478,0.72623 H 167.0449 L 166.92787,162.09 c -0.13404,-2.37364 -0.38007,-4.27426 -0.74175,-5.72997 -0.13823,-0.55637 -0.25133,-1.20653 -0.25133,-1.4448 0,-0.23828 -0.0725,-0.47801 -0.16104,-0.53276 -0.0886,-0.0547 -0.21461,-0.41661 -0.28008,-0.80416 -0.0655,-0.38754 -0.19145,-0.70463 -0.27994,-0.70463 -0.0885,0 -0.16088,-0.16304 -0.16088,-0.36231 0,-0.19927 -0.25227,-0.81443 -0.5606,-1.36701 -0.30834,-0.55259 -0.76474,-1.40158 -1.01424,-1.88665 -0.2495,-0.48507 -0.50687,-0.92243 -0.57194,-0.97191 -0.0651,-0.0495 -0.17289,-0.30744 -0.23961,-0.57326 -0.0667,-0.26582 -0.19207,-0.4833 -0.27857,-0.4833 -0.0865,0 -0.15726,-0.16269 -0.15726,-0.36154 0,-0.19884 -0.12368,-0.6007 -0.27484,-0.89301 -0.36086,-0.69782 -0.35985,-3.395 0.002,-4.92953 0.5982,-2.53793 0.22075,-4.70011 -0.99978,-5.72712 -0.48736,-0.41009 -0.68386,-0.46373 -1.46228,-0.39917 -0.67261,0.0558 -1.04143,0.20125 -1.46335,0.57718 -0.31026,0.27644 -0.5641,0.60855 -0.5641,0.73804 0,0.12948 -0.0731,0.23543 -0.16237,0.23543 -0.0893,0 -0.21754,0.25796 -0.28495,0.57326 -0.0674,0.3153 -0.18441,0.65264 -0.25999,0.74965 -0.0756,0.097 -0.23222,0.89077 -0.34811,1.76389 -0.17239,1.29879 -0.16038,2.22907 0.066,5.11528 0.42933,5.47348 0.75284,7.52614 1.69574,10.75972 0.0849,0.29104 0.2045,0.84667 0.26585,1.23472 0.0613,0.38806 0.17867,0.86431 0.26072,1.05834 0.0821,0.19403 0.39895,1.10684 0.70424,2.02847 0.30528,0.92163 0.62932,1.81352 0.72007,1.98198 0.0908,0.16846 0.16501,0.41828 0.16501,0.55516 0,0.13689 0.23813,0.72882 0.52917,1.31542 0.29104,0.5866 0.52917,1.15037 0.52917,1.25282 0,0.10246 0.0794,0.18629 0.17639,0.18629 0.097,0 0.17638,0.0878 0.17638,0.1951 0,0.41495 2.22485,2.94786 2.82223,3.213 0.14552,0.0646 0.38364,0.18803 0.52916,0.27432 0.86507,0.51297 1.92972,0.64872 2.84,0.36215 z m 0.44224,-6.46532 c 0.20409,-1.08789 -0.80781,-6.92786 -1.20041,-6.92786 -0.19486,0 -0.17807,0.6438 0.0265,1.01663 0.0924,0.16845 0.25987,1.37784 0.37206,2.68753 0.28914,3.37539 0.35787,3.88056 0.52796,3.88056 0.0829,0 0.20609,-0.29559 0.27386,-0.65686 z m 8.14762,-2.70337 c 0.46072,-0.73773 0.73453,-3.21693 0.72955,-6.60574 -0.005,-3.70336 -0.36567,-8.99092 -0.64935,-9.53109 -0.10013,-0.19068 -0.32797,-0.64435 -0.50631,-1.00815 -0.17834,-0.3638 -0.38558,-0.66146 -0.46053,-0.66146 -0.075,0 -0.13628,-0.11371 -0.13628,-0.2527 0,-0.34338 -0.61412,-0.5142 -1.03631,-0.28825 -0.18924,0.10128 -0.47658,0.5311 -0.63853,0.95515 -0.34664,0.90767 -0.30562,3.19342 0.15717,8.75802 0.15733,1.89177 0.35815,4.31271 0.44627,5.37986 0.1609,1.94858 0.38487,2.66204 1.06476,3.39182 0.40273,0.43228 0.69841,0.39281 1.02956,-0.13746 z m -9.54915,-5.15054 c -0.0489,-0.12126 -0.089,-0.022 -0.089,0.22049 0,0.24253 0.04,0.34175 0.089,0.22049 0.0489,-0.12127 0.0489,-0.31971 0,-0.44098 z m -0.35278,-1.05833 c -0.0489,-0.12127 -0.089,-0.022 -0.089,0.22049 0,0.24253 0.04,0.34175 0.089,0.22048 0.0489,-0.12126 0.0489,-0.3197 0,-0.44097 z m -0.17639,-0.88194 c -0.0489,-0.12127 -0.089,-0.0221 -0.089,0.22048 0,0.24254 0.04,0.34176 0.089,0.22049 0.0489,-0.12127 0.0489,-0.31971 0,-0.44097 z m 3.7681,-10.81531 c 0.34961,-0.91952 0.14006,-3.78087 -0.27688,-3.78087 -0.36865,0 -1.41966,1.12799 -1.64003,1.76016 -0.31732,0.91026 -0.25033,1.22751 0.3956,1.87345 0.72538,0.72537 1.28106,0.77916 1.52131,0.14726 z"
       id="path316" /></g></svg>
