<svg version="1.1" id="Layer_1" xmlns="http://www.w3.org/2000/svg" xmlns:xlink="http://www.w3.org/1999/xlink" x="0px" y="0px"
	 viewBox="0 0 771 724" style="enable-background:new 0 0 771 724;" xml:space="preserve">
<path d="M287.63,0c2.3,3.83,4.4,7.79,6.92,11.46c18.09,26.43,18.51,53.78,6.28,82.84c-12.39,29.45-32.9,51.17-59.31,68.04
	c-18.48,11.81-36.86,23.78-55.5,35.34c-30.79,19.12-49.45,46.86-59.6,81.24c-9.04,30.62-15.33,61.68-15.32,93.65
	c0.01,42.59,8.86,83.18,30.59,120.3c14.21,24.27,31.75,45.53,56.12,60.41c17,10.38,35.65,12.88,54.77,10
	c22.46-3.38,44.72-8.1,67.04-12.41c34.37-6.64,62.95,3.38,87.25,28.47c15.96,16.47,32.61,32.4,50.06,47.26
	c22.8,19.41,48.75,33.39,78.63,38.72c5.33,0.95,10.97,1.08,16.36,0.52c11.71-1.22,19.27-10.22,19.35-22.17
	c0.08-11.9-6.11-21.09-12.89-30.1c-8.79-11.68-18.27-22.98-25.76-35.46c-5.54-9.24-8.34-20.12-12.45-30.24
	c-0.63-1.56-1.41-3.64-2.7-4.26c-13.85-6.6-18.44-18.81-20.14-32.78c-0.79-6.43-1.1-12.93-2.01-19.34c-0.39-2.73-1.5-5.46-2.77-7.93
	c-2.92-5.71-6.87-6.85-12.84-4.46c-6.12,2.46-12.18,5.56-18.57,6.8c-16.85,3.27-31.92-1.28-44.72-12.74
	c-5.29-4.73-9.64-10.08-8.2-18.11c0.23-1.27-1.73-2.8-1.95-4.32c-0.46-3.08-1.63-6.93-0.31-9.18c1.86-3.17,5.85-4.91,9.98-3.04
	c12.06,5.46,23.95,11.33,36.17,16.43c8.35,3.48,16.98,6.59,25.77,8.66c7.46,1.75,14.36-0.7,19.38-6.83
	c-0.17-0.62-0.34-1.25-0.51-1.87c-3.82,0.98-7.94,1.35-11.41,3.05c-9.17,4.46-14.21,4.74-20.96-2.88
	c-11.78-13.31-26.77-16.85-43.46-17.23c-17.52-0.4-34.91-1.86-50.24-11.8c-27.4-17.77-42.51-43.42-46.95-75.35
	c-9.07-65.36,40.37-129.59,106.56-140.67c41.57-6.96,78.99,2.66,110.73,30.75c14.89,13.17,23.29,30.9,29.28,49.69
	c1.76,5.53,3.38,11.09,5.19,17.04c4.48-2.42,5.87-6.18,5.89-10.68c0.08-20.72-7.65-38.65-20.28-54.54
	c-22.42-28.21-52.26-44.17-87.12-51.04c-37.49-7.39-73.15-2.23-105.82,18.25c-33.41,20.94-53.01,51.31-59.68,90.22
	c-4.26,24.8-4.45,49.38,3.18,73.55c9.08,28.73,26.14,51.02,53.9,63.97c5.79,2.7,12.27,3.91,18.39,5.94c1.4,0.47,2.62,1.49,3.46,2.93
	c-24.59-2.93-43.69-15.3-58.76-34.03c-17.64-21.93-25.29-47.55-25.99-75.43c-0.64-25.58,3.15-50.36,13.92-73.78
	c13.03-28.35,33.93-49.49,61.85-62.56c55.02-25.76,108.07-18.98,157.79,14.16c21.87,14.58,38.13,34.64,45.23,60.78
	c1.64,6.05,2.62,12.37,3.13,18.63c0.55,6.75-1.2,12.96-8.04,16.92c3.27,5.77,7.15,9.7,13.63,11.46c7.17,1.94,13.13,6.38,14.85,14.02
	c3.89,17.3,5.65,34.88,2.76,52.49c-1.92,11.69-9.59,17.57-19.49,16.31c-2.07-0.26-4.06-1.12-6.11-1.71
	c-1.86,4.2-3.4,8.59-5.66,12.58c-8.54,15.1-23.44,16.21-34.45,2.81c-8.48-10.33-11.95-22.89-15.58-35.29
	c-5.59-19.08-8.52-38.65-8.06-58.57c0.12-5.36,1.26-10.92,3.13-15.95c2.59-6.97,7.58-9.77,13.3-8.94c5.26,0.77,9.95,6.26,10.27,13.1
	c0.22,4.6-0.14,9.36-1.14,13.85c-1.77,7.93-0.44,15.17,3.33,22.14c2.43,4.51,4.91,8.99,8.24,13.19c-1.94-6.37-4.13-12.68-5.76-19.12
	c-1.5-5.93-3.19-11.98-3.42-18.03c-0.62-16.23,10.97-23.04,26.22-14.85c-0.87-3.57-1.5-6.52-2.32-9.42
	c-6.38-22.72-15.55-43.97-33.63-60.03c-16.42-14.59-35.99-23.28-57.31-27.41c-32.74-6.33-63.88-1.33-92.42,16.37
	c-31.2,19.35-51.5,47.07-58.81,83.08c-7.5,36.95,1.62,70.06,27.87,97.58c14.36,15.06,32.28,22.82,53.25,23.69
	c10.6,0.44,21.21,1.47,31.7,3.04c8.4,1.25,15.53,5.6,21.4,11.89c1.69,1.81,3.65,3.4,5.55,5.01c5.59,4.73,8.32,4.63,14.92,1.82
	c4.26-1.81,9.09-2.8,13.73-3.06c4.01-0.23,4.54-2.09,3.1-4.63c-1.5-2.63-3.65-5.32-6.19-6.85c-24.94-15.05-51.02-27.78-78.52-37.44
	c-11.43-4.01-12.82-2.59-10.71,9.45c0.72,4.09,1.51,8.21,1.69,12.34c0.07,1.62-1.42,3.32-2.2,4.98c-1.36-1-3.19-1.71-3.99-3.04
	c-3.44-5.74-6.43-11.75-5.27-18.77c0.31-1.89,0.99-3.97,2.17-5.42c3.28-4.06,6.79-7.95,10.43-11.7c9.4-9.66,21.15-10.87,33.26-7.71
	c26.63,6.95,50.37,19.58,70.36,38.67c6.33,6.04,9.57,13.67,6.51,22.64c-2.08,6.1-5.96,10.28-12.9,10.7
	c-1.05,0.06-2.48,0.38-3.05,1.11c-9.6,12.24-22.18,11.52-34.9,7.36c-7.81-2.56-15-7-22.54-10.43c-9.19-4.17-18.36-8.41-27.75-12.06
	c-2.11-0.82-6.07-0.17-7.43,1.37c-1.16,1.31,0.19,4.85,0.53,8.44c8.14-5.29,15.08-3.35,22.01-0.65c9.9,3.86,18.5,9.7,26.02,17.16
	c5.4,5.36,5.81,8.71,0.93,15.7c5.26-1.68,9.29-2.81,13.19-4.27c2.63-0.98,5.05-2.52,7.63-3.64c6.76-2.94,13.01-1.31,15.99,5.39
	c2.38,5.34,3.32,11.36,4.51,17.17c1.89,9.22,2.82,18.68,5.38,27.69c1.79,6.27,6.93,10.65,13.54,14c0-5.18-0.15-9.61,0.04-14.02
	c0.23-5.68,2.27-10.64,7.93-12.71c5.81-2.13,11.33-0.37,15.69,3.7c4.39,4.1,5.27,9.44,3.21,15.15c-2.96,8.2-10.39,12.71-22.84,13.06
	c2.43,6.97,4.38,13.72,7.12,20.13c6.8,15.95,17.54,29.32,28.52,42.52c6.71,8.07,13.01,16.43,15.46,27.01
	c3.8,16.42-3.92,30.49-19.25,33.25c-6.25,1.12-13.06,0.96-19.33-0.17c-32.11-5.78-59.62-21.35-83.89-42.45
	c-16.68-14.5-32.13-30.43-48.02-45.83c-13.22-12.81-27.69-23.34-46.33-26.66c-15.5-2.76-30.8-0.83-46.04,2.11
	c-18.73,3.61-37.38,7.81-56.22,10.73c-28.61,4.44-53.93-3.29-75.57-22.75c-35.82-32.22-56.79-72.71-65.87-119.6
	c-8.8-45.46-5.4-90.44,7.62-134.64c4.34-14.75,9.75-29.31,16.06-43.33c10.65-23.67,30.18-39.3,51.28-53.12
	c21.69-14.19,43.82-27.75,65.08-42.56c30.08-20.95,46.55-50.92,53.24-86.43c2.48-13.18-1.18-25.86-7.27-37.57
	C294.29,17.24,288.77,8.72,283.63,0C284.96,0,286.3,0,287.63,0z M583.22,324.69c-3.66-3.94-6.95-7.49-9.44-10.17
	c0,3.66,0.35,8.47-0.1,13.2c-0.46,4.87-4.9,6.65-9.1,4.09c-4.36-2.66-6.02-7.51-3.49-12.05c1.71-3.06,4.28-5.64,6.49-8.48
	c-3.66-3.34-7.51-3.06-11.47-0.72c-6.01,3.56-8.72,11.11-6.24,20.45c4.34,16.36,9.45,32.52,13.82,48.87
	c1.75,6.54,2.84,13.33,3.38,20.08c0.46,5.73-2.02,7.48-7.54,6.54c-0.11-0.57-0.31-1.2-0.34-1.83c-0.68-19.53-4.26-38.22-14.97-55.08
	c-4.47-7.04-4.73-14.86-3.39-23.08c0.91-5.59,0.99-11.59-0.1-17.1c-0.5-2.53-4.52-5.69-7.28-6.05c-2.43-0.32-6.55,2.25-7.73,4.64
	c-2.29,4.61-4.14,9.97-4.25,15.06c-0.64,27.43,4.56,53.96,14.91,79.29c2.74,6.71,7.28,13.11,12.35,18.33
	c6.64,6.83,15.84,5.8,21.8-1.67c2.84-3.56,4.77-7.94,6.66-12.14c1.5-3.34,2.33-6.99,3.52-10.71c5.44,6.55,11.65,7.85,17.47,3.68
	c4.67-3.35,6.7-8.52,6.85-13.86c0.32-10.94,0.2-21.93-0.44-32.86c-0.34-5.89-1.59-11.88-3.49-17.46c-1.1-3.25-4.3-5.79-6.55-8.64
	c0.67,5.94,2.52,11.03,2.76,16.2c0.63,13.13,0.68,26.3,0.63,39.45c-0.01,3.24-0.91,6.64-2.14,9.67c-2.1,5.18-7.57,5.7-10.25,0.78
	c-1.84-3.37-2.8-7.47-3.21-11.35c-1.23-11.74-2.26-23.52-2.84-35.31C579.15,338.65,577.08,330.31,583.22,324.69z M405.57,398.58
	c2.63,0.51,4.6,0.8,6.52,1.28c2.08,0.52,4.17,1.09,6.18,1.84c25.88,9.58,50.64,21.52,74.45,35.45c6.07,3.55,11.42,7.63,10.7,15.86
	c6.07-0.33,9.14-3.71,10.8-8.64c2.84-8.45-0.97-15.08-6.65-20.58c-13.65-13.25-30.19-22.07-47.36-29.79
	c-10.65-4.79-21.5-8.87-33.48-8.06C417.74,386.53,410.7,390.53,405.57,398.58z M588.55,325.76c-1.05,0.01-2.1,0.02-3.15,0.04
	c-1.06,3.28-2.89,6.52-3.01,9.83c-0.23,6.27,0.37,12.59,0.87,18.88c0.86,10.74,1.68,21.5,3.05,32.18c0.3,2.36,2.83,4.43,4.34,6.63
	c1.23-2.33,3.48-4.65,3.51-6.99c0.23-15.57,0.39-31.17-0.36-46.72C593.58,334.92,590.38,330.37,588.55,325.76z M411.83,452.55
	c11.7,14.04,25.2,22.58,41.13,27.3c1.49,0.44,4.48-0.51,5.06-1.68c0.63-1.27-0.2-4-1.32-5.29c-9.53-10.99-21.38-18.36-35.67-21.35
	C418.54,451.01,415.72,452.07,411.83,452.55z M521.33,531.5c0.03,0,0.06,0,0.09,0c0,1.5-0.06,3,0.01,4.49
	c0.3,5.87,0.97,6.52,6.88,6.07c6.84-0.52,11.24-4.49,13.89-10.54c1.94-4.43,1.07-8.69-2.35-11.91c-3.4-3.2-7.73-4.73-12.4-3.09
	c-4.56,1.61-5.69,5.69-6.09,9.99C521.2,528.17,521.33,529.84,521.33,531.5z M453.03,483.47c-16.64-5.12-30.22-13.83-42.15-26.53
	C412.43,471.31,434.82,485.19,453.03,483.47z M570.92,315.47c-0.59-0.18-1.19-0.35-1.78-0.53c-1.41,1.32-3.07,2.47-4.17,4.01
	c-2.04,2.87-3.06,6.08-0.11,9c0.96,0.95,2.7,1.92,3.81,1.67c0.95-0.22,2.05-2.12,2.15-3.35
	C571.1,322.69,570.92,319.07,570.92,315.47z M402.76,425c-0.94-6.68-1.88-13.35-3.01-21.38C395.15,412.27,398.43,418.68,402.76,425z
	 M562.45,403.44c2.63-8.85-0.39-17.01-2.81-25.25C560.58,386.61,561.52,395.02,562.45,403.44z"/>
</svg>
